%TF.GenerationSoftware,KiCad,Pcbnew,(6.0.7)*%
%TF.CreationDate,2022-08-07T17:46:13+02:00*%
%TF.ProjectId,nue-pcb,6e75652d-7063-4622-9e6b-696361645f70,0.1*%
%TF.SameCoordinates,Original*%
%TF.FileFunction,Profile,NP*%
%FSLAX46Y46*%
G04 Gerber Fmt 4.6, Leading zero omitted, Abs format (unit mm)*
G04 Created by KiCad (PCBNEW (6.0.7)) date 2022-08-07 17:46:13*
%MOMM*%
%LPD*%
G01*
G04 APERTURE LIST*
%TA.AperFunction,Profile*%
%ADD10C,0.200000*%
%TD*%
G04 APERTURE END LIST*
D10*
X104062500Y-54687500D02*
X83262500Y-54687500D01*
X341587601Y-70487801D02*
G75*
G03*
X340987601Y-71087826I-1J-599999D01*
G01*
X140856249Y-55287453D02*
G75*
G03*
X142856253Y-53287531I51J1999953D01*
G01*
X340987601Y-91887826D02*
X340987601Y-71087826D01*
X142856328Y-153087468D02*
G75*
G03*
X140856249Y-151087472I-2000028J-32D01*
G01*
X108762500Y-53037500D02*
X108762500Y-53287500D01*
X51487501Y-94737499D02*
G75*
G03*
X53037499Y-96287499I1549999J-1D01*
G01*
X173056253Y-153087412D02*
X173056253Y-153337412D01*
X168966801Y-151087499D02*
G75*
G03*
X168366818Y-150487499I-600001J-1D01*
G01*
X107212500Y-154887499D02*
X80112500Y-154887499D01*
X292812499Y-54687500D02*
X313612499Y-54687500D01*
X342187601Y-71087826D02*
X342187601Y-91887826D01*
X341587499Y-142287500D02*
X341587496Y-149087500D01*
X256018750Y-55287527D02*
X286112499Y-55287500D01*
X221818750Y-55287646D02*
G75*
G03*
X223818746Y-53287587I-50J2000046D01*
G01*
X171506256Y-154887353D02*
G75*
G03*
X173056253Y-153337412I44J1549953D01*
G01*
X320312499Y-151087499D02*
G75*
G03*
X318312499Y-153087499I1J-2000001D01*
G01*
X288112501Y-153337499D02*
G75*
G03*
X289662499Y-154887499I1549999J-1D01*
G01*
X288112499Y-153337499D02*
X288112499Y-153087499D01*
X228508181Y-55887500D02*
X249308181Y-55887500D01*
X249908200Y-55287500D02*
G75*
G03*
X249308181Y-54687500I-600000J0D01*
G01*
X254018745Y-53037531D02*
X254018746Y-53287531D01*
X343587499Y-66087499D02*
X343837499Y-66087499D01*
X345387499Y-111637500D02*
X345387499Y-138737500D01*
X144406256Y-51487453D02*
G75*
G03*
X142856253Y-53037531I44J-1550047D01*
G01*
X76562500Y-55287500D02*
G75*
G03*
X78562500Y-53287500I0J2000000D01*
G01*
X108762500Y-153087499D02*
X108762500Y-153337499D01*
X54687397Y-135287173D02*
X54687397Y-114487173D01*
X286112499Y-151087499D02*
X256018750Y-151087472D01*
X142856253Y-53287531D02*
X142856253Y-53037531D01*
X55287397Y-70487797D02*
G75*
G03*
X54687397Y-71087826I3J-600003D01*
G01*
X53287500Y-140287500D02*
X53037499Y-140287500D01*
X249308181Y-55887481D02*
G75*
G03*
X249908181Y-55287500I19J599981D01*
G01*
X339587496Y-151087496D02*
G75*
G03*
X341587496Y-149087500I4J1999996D01*
G01*
X53037499Y-66087499D02*
X53287500Y-66087499D01*
X316762499Y-154887499D02*
G75*
G03*
X318312499Y-153337499I1J1549999D01*
G01*
X345387500Y-111637500D02*
G75*
G03*
X343837499Y-110087500I-1550000J0D01*
G01*
X168966800Y-55287500D02*
G75*
G03*
X168366818Y-54687500I-600000J0D01*
G01*
X147566818Y-151687499D02*
X168366818Y-151687499D01*
X249308181Y-151687481D02*
G75*
G03*
X249908181Y-151087499I19J599981D01*
G01*
X82662500Y-55287500D02*
G75*
G03*
X83262500Y-55887500I600000J0D01*
G01*
X55887397Y-114487173D02*
X55887397Y-135287173D01*
X144406256Y-51487534D02*
X171506256Y-51487584D01*
X55287397Y-92487797D02*
G75*
G03*
X55887397Y-91887826I3J599997D01*
G01*
X147566818Y-150487518D02*
G75*
G03*
X146966818Y-151087499I-18J-599982D01*
G01*
X110762500Y-151087500D02*
G75*
G03*
X108762500Y-153087499I0J-2000000D01*
G01*
X249308181Y-151687499D02*
X228508181Y-151687499D01*
X341587496Y-57287500D02*
X341587499Y-64087499D01*
X55287500Y-64087499D02*
X55287500Y-57287500D01*
X82662501Y-151087499D02*
G75*
G03*
X83262500Y-151687499I599999J-1D01*
G01*
X288112501Y-153087499D02*
G75*
G03*
X286112499Y-151087499I-2000001J-1D01*
G01*
X78562500Y-153337499D02*
X78562500Y-153087499D01*
X57287500Y-55287500D02*
X76562500Y-55287500D01*
X168366818Y-151687518D02*
G75*
G03*
X168966818Y-151087499I-18J600018D01*
G01*
X53287500Y-96287499D02*
X53037499Y-96287499D01*
X140856249Y-151087472D02*
X110762500Y-151087499D01*
X53037499Y-110087500D02*
X53287500Y-110087500D01*
X318312499Y-153087499D02*
X318312499Y-153337499D01*
X313612499Y-151687499D02*
G75*
G03*
X314212499Y-151087499I1J599999D01*
G01*
X341587601Y-135887201D02*
G75*
G03*
X342187601Y-135287173I-1J600001D01*
G01*
X57287500Y-55287500D02*
G75*
G03*
X55287500Y-57287500I0J-2000000D01*
G01*
X345387499Y-67637499D02*
X345387499Y-94737499D01*
X343837499Y-140287500D02*
X343587499Y-140287500D01*
X289662499Y-51487500D02*
X316762499Y-51487500D01*
X342187574Y-71087826D02*
G75*
G03*
X341587601Y-70487826I-599974J26D01*
G01*
X292812499Y-151687499D02*
X313612499Y-151687499D01*
X340987574Y-91887826D02*
G75*
G03*
X341587601Y-92487826I600026J26D01*
G01*
X252468743Y-154887465D02*
X225368743Y-154887415D01*
X54687374Y-91887826D02*
G75*
G03*
X55287397Y-92487826I600026J26D01*
G01*
X318312500Y-53287500D02*
G75*
G03*
X320312499Y-55287500I2000000J0D01*
G01*
X51487500Y-138737500D02*
G75*
G03*
X53037499Y-140287500I1550000J0D01*
G01*
X173056316Y-53037587D02*
G75*
G03*
X171506256Y-51487584I-1550016J-13D01*
G01*
X341587501Y-64087499D02*
G75*
G03*
X343587499Y-66087499I1999999J-1D01*
G01*
X228508181Y-150487481D02*
G75*
G03*
X227908181Y-151087499I19J-600019D01*
G01*
X110762500Y-55287500D02*
X140856249Y-55287527D01*
X228508181Y-54687481D02*
G75*
G03*
X227908181Y-55287500I19J-600019D01*
G01*
X292212501Y-151087499D02*
G75*
G03*
X292812499Y-151687499I599999J-1D01*
G01*
X53287500Y-66087500D02*
G75*
G03*
X55287500Y-64087499I0J2000000D01*
G01*
X83262500Y-150487500D02*
G75*
G03*
X82662500Y-151087499I0J-600000D01*
G01*
X343587499Y-96287499D02*
G75*
G03*
X341587499Y-98287499I1J-2000001D01*
G01*
X53037499Y-66087499D02*
G75*
G03*
X51487499Y-67637499I1J-1550001D01*
G01*
X55887397Y-91887826D02*
X55887397Y-71087826D01*
X254018666Y-53037531D02*
G75*
G03*
X252468742Y-51487534I-1549966J31D01*
G01*
X223818746Y-53287587D02*
X223818745Y-53037587D01*
X343587499Y-110087500D02*
X343837499Y-110087500D01*
X341587601Y-113887201D02*
G75*
G03*
X340987601Y-114487173I-1J-599999D01*
G01*
X221818750Y-151087408D02*
X175056249Y-151087408D01*
X288112499Y-53287500D02*
X288112499Y-53037500D01*
X249908201Y-151087499D02*
G75*
G03*
X249308181Y-150487499I-600001J-1D01*
G01*
X256018750Y-151087546D02*
G75*
G03*
X254018746Y-153087468I-50J-1999954D01*
G01*
X313612499Y-55887499D02*
G75*
G03*
X314212499Y-55287500I1J599999D01*
G01*
X289662499Y-51487499D02*
G75*
G03*
X288112499Y-53037500I1J-1550001D01*
G01*
X83262500Y-54687500D02*
G75*
G03*
X82662500Y-55287500I0J-600000D01*
G01*
X55287501Y-149087499D02*
G75*
G03*
X57287500Y-151087499I1999999J-1D01*
G01*
X227908201Y-151087499D02*
G75*
G03*
X228508181Y-151687499I599999J-1D01*
G01*
X168366818Y-55887500D02*
X147566818Y-55887500D01*
X318312499Y-53037500D02*
X318312499Y-53287500D01*
X254018746Y-153087468D02*
X254018745Y-153337468D01*
X175056249Y-151087353D02*
G75*
G03*
X173056253Y-153087412I51J-2000047D01*
G01*
X108762500Y-53037500D02*
G75*
G03*
X107212500Y-51487500I-1550000J0D01*
G01*
X313612499Y-55887500D02*
X292812499Y-55887500D01*
X107212500Y-154887500D02*
G75*
G03*
X108762500Y-153337499I0J1550000D01*
G01*
X341587500Y-57287500D02*
G75*
G03*
X339587496Y-55287500I-2000000J0D01*
G01*
X286112499Y-55287499D02*
G75*
G03*
X288112499Y-53287500I1J1999999D01*
G01*
X168366818Y-55887518D02*
G75*
G03*
X168966818Y-55287500I-18J600018D01*
G01*
X228508181Y-150487499D02*
X249308181Y-150487499D01*
X55287500Y-142287500D02*
G75*
G03*
X53287500Y-140287500I-2000000J0D01*
G01*
X254018673Y-53287531D02*
G75*
G03*
X256018750Y-55287527I2000027J31D01*
G01*
X227908200Y-55287500D02*
G75*
G03*
X228508181Y-55887500I600000J0D01*
G01*
X223818692Y-153087412D02*
G75*
G03*
X221818750Y-151087408I-1999992J12D01*
G01*
X249308181Y-54687500D02*
X228508181Y-54687500D01*
X83262500Y-150487499D02*
X104062500Y-150487499D01*
X147566818Y-54687500D02*
X168366818Y-54687500D01*
X225368743Y-51487645D02*
G75*
G03*
X223818745Y-53037586I-43J-1549955D01*
G01*
X313612499Y-150487499D02*
X292812499Y-150487499D01*
X342187627Y-114487173D02*
G75*
G03*
X341587601Y-113887173I-600027J-27D01*
G01*
X104062500Y-151687500D02*
G75*
G03*
X104662500Y-151087499I0J600000D01*
G01*
X142856335Y-153337468D02*
G75*
G03*
X144406256Y-154887465I1549965J-32D01*
G01*
X147566818Y-54687518D02*
G75*
G03*
X146966818Y-55287500I-18J-599982D01*
G01*
X340987601Y-114487173D02*
X340987601Y-135287173D01*
X146966800Y-55287500D02*
G75*
G03*
X147566818Y-55887500I600000J0D01*
G01*
X146966801Y-151087499D02*
G75*
G03*
X147566818Y-151687499I599999J-1D01*
G01*
X343587499Y-140287499D02*
G75*
G03*
X341587499Y-142287500I1J-2000001D01*
G01*
X292812499Y-54687499D02*
G75*
G03*
X292212499Y-55287500I1J-600001D01*
G01*
X173056309Y-53287587D02*
G75*
G03*
X175056249Y-55287591I1999991J-13D01*
G01*
X78562501Y-153337499D02*
G75*
G03*
X80112500Y-154887499I1549999J-1D01*
G01*
X54687427Y-135287173D02*
G75*
G03*
X55287397Y-135887173I599973J-27D01*
G01*
X51487499Y-138737500D02*
X51487499Y-111637500D01*
X53037499Y-110087499D02*
G75*
G03*
X51487499Y-111637500I1J-1550001D01*
G01*
X223818745Y-153337412D02*
X223818746Y-153087412D01*
X343837499Y-96287499D02*
X343587499Y-96287499D01*
X341587601Y-92487801D02*
G75*
G03*
X342187601Y-91887826I-1J600001D01*
G01*
X318312500Y-53037500D02*
G75*
G03*
X316762499Y-51487500I-1550000J0D01*
G01*
X343837499Y-96287499D02*
G75*
G03*
X345387499Y-94737499I1J1549999D01*
G01*
X171506256Y-154887415D02*
X144406256Y-154887465D01*
X341587500Y-108087500D02*
G75*
G03*
X343587499Y-110087500I2000000J0D01*
G01*
X53287500Y-110087500D02*
G75*
G03*
X55287500Y-108087500I0J2000000D01*
G01*
X78562501Y-153087499D02*
G75*
G03*
X76562500Y-151087499I-2000001J-1D01*
G01*
X341587499Y-98287499D02*
X341587499Y-108087500D01*
X223818685Y-153337412D02*
G75*
G03*
X225368742Y-154887415I1550015J12D01*
G01*
X78562500Y-53287500D02*
X78562500Y-53037500D01*
X314212500Y-55287500D02*
G75*
G03*
X313612499Y-54687500I-600000J0D01*
G01*
X55287500Y-108087500D02*
X55287500Y-98287499D01*
X175056249Y-55287591D02*
X221818750Y-55287591D01*
X55887374Y-71087826D02*
G75*
G03*
X55287397Y-70487826I-599974J26D01*
G01*
X173056253Y-53037587D02*
X173056253Y-53287587D01*
X314212501Y-151087499D02*
G75*
G03*
X313612499Y-150487499I-600001J-1D01*
G01*
X51487499Y-94737499D02*
X51487499Y-67637499D01*
X55287500Y-149087499D02*
X55287500Y-142287500D01*
X55887427Y-114487173D02*
G75*
G03*
X55287397Y-113887173I-600027J-27D01*
G01*
X292812499Y-150487499D02*
G75*
G03*
X292212499Y-151087499I1J-600001D01*
G01*
X252468743Y-154887545D02*
G75*
G03*
X254018745Y-153337467I-43J1550045D01*
G01*
X55287397Y-113887197D02*
G75*
G03*
X54687397Y-114487173I3J-600003D01*
G01*
X104662500Y-55287500D02*
G75*
G03*
X104062500Y-54687500I-600000J0D01*
G01*
X104062500Y-151687499D02*
X83262500Y-151687499D01*
X83262500Y-55887500D02*
X104062500Y-55887500D01*
X342187601Y-135287173D02*
X342187601Y-114487173D01*
X339587496Y-151087500D02*
X320312499Y-151087499D01*
X80112500Y-51487500D02*
G75*
G03*
X78562500Y-53037500I0J-1550000D01*
G01*
X55287501Y-98287499D02*
G75*
G03*
X53287500Y-96287499I-2000001J-1D01*
G01*
X104662501Y-151087499D02*
G75*
G03*
X104062500Y-150487499I-600001J-1D01*
G01*
X225368743Y-51487584D02*
X252468743Y-51487534D01*
X168366818Y-150487499D02*
X147566818Y-150487499D01*
X104062500Y-55887500D02*
G75*
G03*
X104662500Y-55287500I0J600000D01*
G01*
X76562500Y-151087499D02*
X57287500Y-151087499D01*
X80112500Y-51487500D02*
X107212500Y-51487500D01*
X320312499Y-55287500D02*
X339587496Y-55287500D01*
X54687397Y-71087826D02*
X54687397Y-91887826D01*
X343837499Y-140287499D02*
G75*
G03*
X345387499Y-138737500I1J1549999D01*
G01*
X292212500Y-55287500D02*
G75*
G03*
X292812499Y-55887500I600000J0D01*
G01*
X345387501Y-67637499D02*
G75*
G03*
X343837499Y-66087499I-1550001J-1D01*
G01*
X55287397Y-135887197D02*
G75*
G03*
X55887397Y-135287173I3J599997D01*
G01*
X142856253Y-153337468D02*
X142856253Y-153087468D01*
X340987627Y-135287173D02*
G75*
G03*
X341587601Y-135887173I599973J-27D01*
G01*
X316762499Y-154887499D02*
X289662499Y-154887499D01*
X108762500Y-53287501D02*
G75*
G03*
X110762500Y-55287500I2000000J1D01*
G01*
M02*
