%TF.GenerationSoftware,KiCad,Pcbnew,(6.0.7)*%
%TF.CreationDate,2022-08-07T17:46:13+02:00*%
%TF.ProjectId,nue-pcb,6e75652d-7063-4622-9e6b-696361645f70,0.1*%
%TF.SameCoordinates,Original*%
%TF.FileFunction,Other,Comment*%
%FSLAX46Y46*%
G04 Gerber Fmt 4.6, Leading zero omitted, Abs format (unit mm)*
G04 Created by KiCad (PCBNEW (6.0.7)) date 2022-08-07 17:46:13*
%MOMM*%
%LPD*%
G01*
G04 APERTURE LIST*
%ADD10C,0.150000*%
G04 APERTURE END LIST*
D10*
%TO.C,SW1*%
X330365446Y-69992261D02*
X330502351Y-70039880D01*
X330740446Y-70039880D01*
X330841636Y-69992261D01*
X330895208Y-69944642D01*
X330954732Y-69849404D01*
X330966636Y-69754166D01*
X330930922Y-69658928D01*
X330889255Y-69611309D01*
X330799970Y-69563690D01*
X330615446Y-69516071D01*
X330526160Y-69468452D01*
X330484494Y-69420833D01*
X330448779Y-69325595D01*
X330460684Y-69230357D01*
X330520208Y-69135119D01*
X330573779Y-69087500D01*
X330674970Y-69039880D01*
X330913065Y-69039880D01*
X331049970Y-69087500D01*
X331389255Y-69039880D02*
X331502351Y-70039880D01*
X331782113Y-69325595D01*
X331883303Y-70039880D01*
X332246398Y-69039880D01*
X333026160Y-70039880D02*
X332454732Y-70039880D01*
X332740446Y-70039880D02*
X332865446Y-69039880D01*
X332752351Y-69182738D01*
X332645208Y-69277976D01*
X332544017Y-69325595D01*
X330597023Y-71016071D02*
X330930357Y-71016071D01*
X331073214Y-71539880D02*
X330597023Y-71539880D01*
X330597023Y-70539880D01*
X331073214Y-70539880D01*
X331454166Y-71492261D02*
X331597023Y-71539880D01*
X331835119Y-71539880D01*
X331930357Y-71492261D01*
X331977976Y-71444642D01*
X332025595Y-71349404D01*
X332025595Y-71254166D01*
X331977976Y-71158928D01*
X331930357Y-71111309D01*
X331835119Y-71063690D01*
X331644642Y-71016071D01*
X331549404Y-70968452D01*
X331501785Y-70920833D01*
X331454166Y-70825595D01*
X331454166Y-70730357D01*
X331501785Y-70635119D01*
X331549404Y-70587500D01*
X331644642Y-70539880D01*
X331882738Y-70539880D01*
X332025595Y-70587500D01*
X333025595Y-71444642D02*
X332977976Y-71492261D01*
X332835119Y-71539880D01*
X332739880Y-71539880D01*
X332597023Y-71492261D01*
X332501785Y-71397023D01*
X332454166Y-71301785D01*
X332406547Y-71111309D01*
X332406547Y-70968452D01*
X332454166Y-70777976D01*
X332501785Y-70682738D01*
X332597023Y-70587500D01*
X332739880Y-70539880D01*
X332835119Y-70539880D01*
X332977976Y-70587500D01*
X333025595Y-70635119D01*
%TO.C,SW2*%
X311315446Y-69992261D02*
X311452351Y-70039880D01*
X311690446Y-70039880D01*
X311791636Y-69992261D01*
X311845208Y-69944642D01*
X311904732Y-69849404D01*
X311916636Y-69754166D01*
X311880922Y-69658928D01*
X311839255Y-69611309D01*
X311749970Y-69563690D01*
X311565446Y-69516071D01*
X311476160Y-69468452D01*
X311434494Y-69420833D01*
X311398779Y-69325595D01*
X311410684Y-69230357D01*
X311470208Y-69135119D01*
X311523779Y-69087500D01*
X311624970Y-69039880D01*
X311863065Y-69039880D01*
X311999970Y-69087500D01*
X312339255Y-69039880D02*
X312452351Y-70039880D01*
X312732113Y-69325595D01*
X312833303Y-70039880D01*
X313196398Y-69039880D01*
X313517827Y-69135119D02*
X313571398Y-69087500D01*
X313672589Y-69039880D01*
X313910684Y-69039880D01*
X313999970Y-69087500D01*
X314041636Y-69135119D01*
X314077351Y-69230357D01*
X314065446Y-69325595D01*
X313999970Y-69468452D01*
X313357113Y-70039880D01*
X313976160Y-70039880D01*
X313023214Y-71539880D02*
X312451785Y-71539880D01*
X312737500Y-71539880D02*
X312737500Y-70539880D01*
X312642261Y-70682738D01*
X312547023Y-70777976D01*
X312451785Y-70825595D01*
%TO.C,SW3*%
X292265446Y-69992261D02*
X292402351Y-70039880D01*
X292640446Y-70039880D01*
X292741636Y-69992261D01*
X292795208Y-69944642D01*
X292854732Y-69849404D01*
X292866636Y-69754166D01*
X292830922Y-69658928D01*
X292789255Y-69611309D01*
X292699970Y-69563690D01*
X292515446Y-69516071D01*
X292426160Y-69468452D01*
X292384494Y-69420833D01*
X292348779Y-69325595D01*
X292360684Y-69230357D01*
X292420208Y-69135119D01*
X292473779Y-69087500D01*
X292574970Y-69039880D01*
X292813065Y-69039880D01*
X292949970Y-69087500D01*
X293289255Y-69039880D02*
X293402351Y-70039880D01*
X293682113Y-69325595D01*
X293783303Y-70039880D01*
X294146398Y-69039880D01*
X294432113Y-69039880D02*
X295051160Y-69039880D01*
X294670208Y-69420833D01*
X294813065Y-69420833D01*
X294902351Y-69468452D01*
X294944017Y-69516071D01*
X294979732Y-69611309D01*
X294949970Y-69849404D01*
X294890446Y-69944642D01*
X294836875Y-69992261D01*
X294735684Y-70039880D01*
X294449970Y-70039880D01*
X294360684Y-69992261D01*
X294319017Y-69944642D01*
X293401785Y-70635119D02*
X293449404Y-70587500D01*
X293544642Y-70539880D01*
X293782738Y-70539880D01*
X293877976Y-70587500D01*
X293925595Y-70635119D01*
X293973214Y-70730357D01*
X293973214Y-70825595D01*
X293925595Y-70968452D01*
X293354166Y-71539880D01*
X293973214Y-71539880D01*
%TO.C,SW4*%
X273215446Y-69992261D02*
X273352351Y-70039880D01*
X273590446Y-70039880D01*
X273691636Y-69992261D01*
X273745208Y-69944642D01*
X273804732Y-69849404D01*
X273816636Y-69754166D01*
X273780922Y-69658928D01*
X273739255Y-69611309D01*
X273649970Y-69563690D01*
X273465446Y-69516071D01*
X273376160Y-69468452D01*
X273334494Y-69420833D01*
X273298779Y-69325595D01*
X273310684Y-69230357D01*
X273370208Y-69135119D01*
X273423779Y-69087500D01*
X273524970Y-69039880D01*
X273763065Y-69039880D01*
X273899970Y-69087500D01*
X274239255Y-69039880D02*
X274352351Y-70039880D01*
X274632113Y-69325595D01*
X274733303Y-70039880D01*
X275096398Y-69039880D01*
X275864255Y-69373214D02*
X275780922Y-70039880D01*
X275673779Y-68992261D02*
X275346398Y-69706547D01*
X275965446Y-69706547D01*
X274304166Y-70539880D02*
X274923214Y-70539880D01*
X274589880Y-70920833D01*
X274732738Y-70920833D01*
X274827976Y-70968452D01*
X274875595Y-71016071D01*
X274923214Y-71111309D01*
X274923214Y-71349404D01*
X274875595Y-71444642D01*
X274827976Y-71492261D01*
X274732738Y-71539880D01*
X274447023Y-71539880D01*
X274351785Y-71492261D01*
X274304166Y-71444642D01*
%TO.C,SW5*%
X254165446Y-69992261D02*
X254302351Y-70039880D01*
X254540446Y-70039880D01*
X254641636Y-69992261D01*
X254695208Y-69944642D01*
X254754732Y-69849404D01*
X254766636Y-69754166D01*
X254730922Y-69658928D01*
X254689255Y-69611309D01*
X254599970Y-69563690D01*
X254415446Y-69516071D01*
X254326160Y-69468452D01*
X254284494Y-69420833D01*
X254248779Y-69325595D01*
X254260684Y-69230357D01*
X254320208Y-69135119D01*
X254373779Y-69087500D01*
X254474970Y-69039880D01*
X254713065Y-69039880D01*
X254849970Y-69087500D01*
X255189255Y-69039880D02*
X255302351Y-70039880D01*
X255582113Y-69325595D01*
X255683303Y-70039880D01*
X256046398Y-69039880D01*
X256903541Y-69039880D02*
X256427351Y-69039880D01*
X256320208Y-69516071D01*
X256373779Y-69468452D01*
X256474970Y-69420833D01*
X256713065Y-69420833D01*
X256802351Y-69468452D01*
X256844017Y-69516071D01*
X256879732Y-69611309D01*
X256849970Y-69849404D01*
X256790446Y-69944642D01*
X256736875Y-69992261D01*
X256635684Y-70039880D01*
X256397589Y-70039880D01*
X256308303Y-69992261D01*
X256266636Y-69944642D01*
X255777976Y-70873214D02*
X255777976Y-71539880D01*
X255539880Y-70492261D02*
X255301785Y-71206547D01*
X255920833Y-71206547D01*
%TO.C,SW6*%
X235115446Y-69992261D02*
X235252351Y-70039880D01*
X235490446Y-70039880D01*
X235591636Y-69992261D01*
X235645208Y-69944642D01*
X235704732Y-69849404D01*
X235716636Y-69754166D01*
X235680922Y-69658928D01*
X235639255Y-69611309D01*
X235549970Y-69563690D01*
X235365446Y-69516071D01*
X235276160Y-69468452D01*
X235234494Y-69420833D01*
X235198779Y-69325595D01*
X235210684Y-69230357D01*
X235270208Y-69135119D01*
X235323779Y-69087500D01*
X235424970Y-69039880D01*
X235663065Y-69039880D01*
X235799970Y-69087500D01*
X236139255Y-69039880D02*
X236252351Y-70039880D01*
X236532113Y-69325595D01*
X236633303Y-70039880D01*
X236996398Y-69039880D01*
X237805922Y-69039880D02*
X237615446Y-69039880D01*
X237514255Y-69087500D01*
X237460684Y-69135119D01*
X237347589Y-69277976D01*
X237276160Y-69468452D01*
X237228541Y-69849404D01*
X237264255Y-69944642D01*
X237305922Y-69992261D01*
X237395208Y-70039880D01*
X237585684Y-70039880D01*
X237686875Y-69992261D01*
X237740446Y-69944642D01*
X237799970Y-69849404D01*
X237829732Y-69611309D01*
X237794017Y-69516071D01*
X237752351Y-69468452D01*
X237663065Y-69420833D01*
X237472589Y-69420833D01*
X237371398Y-69468452D01*
X237317827Y-69516071D01*
X237258303Y-69611309D01*
X236775595Y-70539880D02*
X236299404Y-70539880D01*
X236251785Y-71016071D01*
X236299404Y-70968452D01*
X236394642Y-70920833D01*
X236632738Y-70920833D01*
X236727976Y-70968452D01*
X236775595Y-71016071D01*
X236823214Y-71111309D01*
X236823214Y-71349404D01*
X236775595Y-71444642D01*
X236727976Y-71492261D01*
X236632738Y-71539880D01*
X236394642Y-71539880D01*
X236299404Y-71492261D01*
X236251785Y-71444642D01*
%TO.C,SW7*%
X216065446Y-69992261D02*
X216202351Y-70039880D01*
X216440446Y-70039880D01*
X216541636Y-69992261D01*
X216595208Y-69944642D01*
X216654732Y-69849404D01*
X216666636Y-69754166D01*
X216630922Y-69658928D01*
X216589255Y-69611309D01*
X216499970Y-69563690D01*
X216315446Y-69516071D01*
X216226160Y-69468452D01*
X216184494Y-69420833D01*
X216148779Y-69325595D01*
X216160684Y-69230357D01*
X216220208Y-69135119D01*
X216273779Y-69087500D01*
X216374970Y-69039880D01*
X216613065Y-69039880D01*
X216749970Y-69087500D01*
X217089255Y-69039880D02*
X217202351Y-70039880D01*
X217482113Y-69325595D01*
X217583303Y-70039880D01*
X217946398Y-69039880D01*
X218232113Y-69039880D02*
X218898779Y-69039880D01*
X218345208Y-70039880D01*
X217677976Y-70539880D02*
X217487500Y-70539880D01*
X217392261Y-70587500D01*
X217344642Y-70635119D01*
X217249404Y-70777976D01*
X217201785Y-70968452D01*
X217201785Y-71349404D01*
X217249404Y-71444642D01*
X217297023Y-71492261D01*
X217392261Y-71539880D01*
X217582738Y-71539880D01*
X217677976Y-71492261D01*
X217725595Y-71444642D01*
X217773214Y-71349404D01*
X217773214Y-71111309D01*
X217725595Y-71016071D01*
X217677976Y-70968452D01*
X217582738Y-70920833D01*
X217392261Y-70920833D01*
X217297023Y-70968452D01*
X217249404Y-71016071D01*
X217201785Y-71111309D01*
%TO.C,SW8*%
X197015446Y-69992261D02*
X197152351Y-70039880D01*
X197390446Y-70039880D01*
X197491636Y-69992261D01*
X197545208Y-69944642D01*
X197604732Y-69849404D01*
X197616636Y-69754166D01*
X197580922Y-69658928D01*
X197539255Y-69611309D01*
X197449970Y-69563690D01*
X197265446Y-69516071D01*
X197176160Y-69468452D01*
X197134494Y-69420833D01*
X197098779Y-69325595D01*
X197110684Y-69230357D01*
X197170208Y-69135119D01*
X197223779Y-69087500D01*
X197324970Y-69039880D01*
X197563065Y-69039880D01*
X197699970Y-69087500D01*
X198039255Y-69039880D02*
X198152351Y-70039880D01*
X198432113Y-69325595D01*
X198533303Y-70039880D01*
X198896398Y-69039880D01*
X199366636Y-69468452D02*
X199277351Y-69420833D01*
X199235684Y-69373214D01*
X199199970Y-69277976D01*
X199205922Y-69230357D01*
X199265446Y-69135119D01*
X199319017Y-69087500D01*
X199420208Y-69039880D01*
X199610684Y-69039880D01*
X199699970Y-69087500D01*
X199741636Y-69135119D01*
X199777351Y-69230357D01*
X199771398Y-69277976D01*
X199711875Y-69373214D01*
X199658303Y-69420833D01*
X199557113Y-69468452D01*
X199366636Y-69468452D01*
X199265446Y-69516071D01*
X199211875Y-69563690D01*
X199152351Y-69658928D01*
X199128541Y-69849404D01*
X199164255Y-69944642D01*
X199205922Y-69992261D01*
X199295208Y-70039880D01*
X199485684Y-70039880D01*
X199586875Y-69992261D01*
X199640446Y-69944642D01*
X199699970Y-69849404D01*
X199723779Y-69658928D01*
X199688065Y-69563690D01*
X199646398Y-69516071D01*
X199557113Y-69468452D01*
X198104166Y-70539880D02*
X198770833Y-70539880D01*
X198342261Y-71539880D01*
%TO.C,SW9*%
X177965446Y-69992261D02*
X178102351Y-70039880D01*
X178340446Y-70039880D01*
X178441636Y-69992261D01*
X178495208Y-69944642D01*
X178554732Y-69849404D01*
X178566636Y-69754166D01*
X178530922Y-69658928D01*
X178489255Y-69611309D01*
X178399970Y-69563690D01*
X178215446Y-69516071D01*
X178126160Y-69468452D01*
X178084494Y-69420833D01*
X178048779Y-69325595D01*
X178060684Y-69230357D01*
X178120208Y-69135119D01*
X178173779Y-69087500D01*
X178274970Y-69039880D01*
X178513065Y-69039880D01*
X178649970Y-69087500D01*
X178989255Y-69039880D02*
X179102351Y-70039880D01*
X179382113Y-69325595D01*
X179483303Y-70039880D01*
X179846398Y-69039880D01*
X180149970Y-70039880D02*
X180340446Y-70039880D01*
X180441636Y-69992261D01*
X180495208Y-69944642D01*
X180608303Y-69801785D01*
X180679732Y-69611309D01*
X180727351Y-69230357D01*
X180691636Y-69135119D01*
X180649970Y-69087500D01*
X180560684Y-69039880D01*
X180370208Y-69039880D01*
X180269017Y-69087500D01*
X180215446Y-69135119D01*
X180155922Y-69230357D01*
X180126160Y-69468452D01*
X180161875Y-69563690D01*
X180203541Y-69611309D01*
X180292827Y-69658928D01*
X180483303Y-69658928D01*
X180584494Y-69611309D01*
X180638065Y-69563690D01*
X180697589Y-69468452D01*
X179292261Y-70968452D02*
X179197023Y-70920833D01*
X179149404Y-70873214D01*
X179101785Y-70777976D01*
X179101785Y-70730357D01*
X179149404Y-70635119D01*
X179197023Y-70587500D01*
X179292261Y-70539880D01*
X179482738Y-70539880D01*
X179577976Y-70587500D01*
X179625595Y-70635119D01*
X179673214Y-70730357D01*
X179673214Y-70777976D01*
X179625595Y-70873214D01*
X179577976Y-70920833D01*
X179482738Y-70968452D01*
X179292261Y-70968452D01*
X179197023Y-71016071D01*
X179149404Y-71063690D01*
X179101785Y-71158928D01*
X179101785Y-71349404D01*
X179149404Y-71444642D01*
X179197023Y-71492261D01*
X179292261Y-71539880D01*
X179482738Y-71539880D01*
X179577976Y-71492261D01*
X179625595Y-71444642D01*
X179673214Y-71349404D01*
X179673214Y-71158928D01*
X179625595Y-71063690D01*
X179577976Y-71016071D01*
X179482738Y-70968452D01*
%TO.C,SW10*%
X158439255Y-69992261D02*
X158576160Y-70039880D01*
X158814255Y-70039880D01*
X158915446Y-69992261D01*
X158969017Y-69944642D01*
X159028541Y-69849404D01*
X159040446Y-69754166D01*
X159004732Y-69658928D01*
X158963065Y-69611309D01*
X158873779Y-69563690D01*
X158689255Y-69516071D01*
X158599970Y-69468452D01*
X158558303Y-69420833D01*
X158522589Y-69325595D01*
X158534494Y-69230357D01*
X158594017Y-69135119D01*
X158647589Y-69087500D01*
X158748779Y-69039880D01*
X158986875Y-69039880D01*
X159123779Y-69087500D01*
X159463065Y-69039880D02*
X159576160Y-70039880D01*
X159855922Y-69325595D01*
X159957113Y-70039880D01*
X160320208Y-69039880D01*
X161099970Y-70039880D02*
X160528541Y-70039880D01*
X160814255Y-70039880D02*
X160939255Y-69039880D01*
X160826160Y-69182738D01*
X160719017Y-69277976D01*
X160617827Y-69325595D01*
X161844017Y-69039880D02*
X161939255Y-69039880D01*
X162028541Y-69087500D01*
X162070208Y-69135119D01*
X162105922Y-69230357D01*
X162129732Y-69420833D01*
X162099970Y-69658928D01*
X162028541Y-69849404D01*
X161969017Y-69944642D01*
X161915446Y-69992261D01*
X161814255Y-70039880D01*
X161719017Y-70039880D01*
X161629732Y-69992261D01*
X161588065Y-69944642D01*
X161552351Y-69849404D01*
X161528541Y-69658928D01*
X161558303Y-69420833D01*
X161629732Y-69230357D01*
X161689255Y-69135119D01*
X161742827Y-69087500D01*
X161844017Y-69039880D01*
X160147023Y-71539880D02*
X160337500Y-71539880D01*
X160432738Y-71492261D01*
X160480357Y-71444642D01*
X160575595Y-71301785D01*
X160623214Y-71111309D01*
X160623214Y-70730357D01*
X160575595Y-70635119D01*
X160527976Y-70587500D01*
X160432738Y-70539880D01*
X160242261Y-70539880D01*
X160147023Y-70587500D01*
X160099404Y-70635119D01*
X160051785Y-70730357D01*
X160051785Y-70968452D01*
X160099404Y-71063690D01*
X160147023Y-71111309D01*
X160242261Y-71158928D01*
X160432738Y-71158928D01*
X160527976Y-71111309D01*
X160575595Y-71063690D01*
X160623214Y-70968452D01*
%TO.C,SW11*%
X139389255Y-69992261D02*
X139526160Y-70039880D01*
X139764255Y-70039880D01*
X139865446Y-69992261D01*
X139919017Y-69944642D01*
X139978541Y-69849404D01*
X139990446Y-69754166D01*
X139954732Y-69658928D01*
X139913065Y-69611309D01*
X139823779Y-69563690D01*
X139639255Y-69516071D01*
X139549970Y-69468452D01*
X139508303Y-69420833D01*
X139472589Y-69325595D01*
X139484494Y-69230357D01*
X139544017Y-69135119D01*
X139597589Y-69087500D01*
X139698779Y-69039880D01*
X139936875Y-69039880D01*
X140073779Y-69087500D01*
X140413065Y-69039880D02*
X140526160Y-70039880D01*
X140805922Y-69325595D01*
X140907113Y-70039880D01*
X141270208Y-69039880D01*
X142049970Y-70039880D02*
X141478541Y-70039880D01*
X141764255Y-70039880D02*
X141889255Y-69039880D01*
X141776160Y-69182738D01*
X141669017Y-69277976D01*
X141567827Y-69325595D01*
X143002351Y-70039880D02*
X142430922Y-70039880D01*
X142716636Y-70039880D02*
X142841636Y-69039880D01*
X142728541Y-69182738D01*
X142621398Y-69277976D01*
X142520208Y-69325595D01*
X141239880Y-70539880D02*
X141335119Y-70539880D01*
X141430357Y-70587500D01*
X141477976Y-70635119D01*
X141525595Y-70730357D01*
X141573214Y-70920833D01*
X141573214Y-71158928D01*
X141525595Y-71349404D01*
X141477976Y-71444642D01*
X141430357Y-71492261D01*
X141335119Y-71539880D01*
X141239880Y-71539880D01*
X141144642Y-71492261D01*
X141097023Y-71444642D01*
X141049404Y-71349404D01*
X141001785Y-71158928D01*
X141001785Y-70920833D01*
X141049404Y-70730357D01*
X141097023Y-70635119D01*
X141144642Y-70587500D01*
X141239880Y-70539880D01*
%TO.C,SW12*%
X120339255Y-69992261D02*
X120476160Y-70039880D01*
X120714255Y-70039880D01*
X120815446Y-69992261D01*
X120869017Y-69944642D01*
X120928541Y-69849404D01*
X120940446Y-69754166D01*
X120904732Y-69658928D01*
X120863065Y-69611309D01*
X120773779Y-69563690D01*
X120589255Y-69516071D01*
X120499970Y-69468452D01*
X120458303Y-69420833D01*
X120422589Y-69325595D01*
X120434494Y-69230357D01*
X120494017Y-69135119D01*
X120547589Y-69087500D01*
X120648779Y-69039880D01*
X120886875Y-69039880D01*
X121023779Y-69087500D01*
X121363065Y-69039880D02*
X121476160Y-70039880D01*
X121755922Y-69325595D01*
X121857113Y-70039880D01*
X122220208Y-69039880D01*
X122999970Y-70039880D02*
X122428541Y-70039880D01*
X122714255Y-70039880D02*
X122839255Y-69039880D01*
X122726160Y-69182738D01*
X122619017Y-69277976D01*
X122517827Y-69325595D01*
X123494017Y-69135119D02*
X123547589Y-69087500D01*
X123648779Y-69039880D01*
X123886875Y-69039880D01*
X123976160Y-69087500D01*
X124017827Y-69135119D01*
X124053541Y-69230357D01*
X124041636Y-69325595D01*
X123976160Y-69468452D01*
X123333303Y-70039880D01*
X123952351Y-70039880D01*
X121856547Y-71158928D02*
X122618452Y-71158928D01*
%TO.C,SW13*%
X101289255Y-69992261D02*
X101426160Y-70039880D01*
X101664255Y-70039880D01*
X101765446Y-69992261D01*
X101819017Y-69944642D01*
X101878541Y-69849404D01*
X101890446Y-69754166D01*
X101854732Y-69658928D01*
X101813065Y-69611309D01*
X101723779Y-69563690D01*
X101539255Y-69516071D01*
X101449970Y-69468452D01*
X101408303Y-69420833D01*
X101372589Y-69325595D01*
X101384494Y-69230357D01*
X101444017Y-69135119D01*
X101497589Y-69087500D01*
X101598779Y-69039880D01*
X101836875Y-69039880D01*
X101973779Y-69087500D01*
X102313065Y-69039880D02*
X102426160Y-70039880D01*
X102705922Y-69325595D01*
X102807113Y-70039880D01*
X103170208Y-69039880D01*
X103949970Y-70039880D02*
X103378541Y-70039880D01*
X103664255Y-70039880D02*
X103789255Y-69039880D01*
X103676160Y-69182738D01*
X103569017Y-69277976D01*
X103467827Y-69325595D01*
X104408303Y-69039880D02*
X105027351Y-69039880D01*
X104646398Y-69420833D01*
X104789255Y-69420833D01*
X104878541Y-69468452D01*
X104920208Y-69516071D01*
X104955922Y-69611309D01*
X104926160Y-69849404D01*
X104866636Y-69944642D01*
X104813065Y-69992261D01*
X104711875Y-70039880D01*
X104426160Y-70039880D01*
X104336875Y-69992261D01*
X104295208Y-69944642D01*
X102806547Y-71016071D02*
X103568452Y-71016071D01*
X103568452Y-71301785D02*
X102806547Y-71301785D01*
%TO.C,SW14*%
X72714255Y-68667261D02*
X72851160Y-68714880D01*
X73089255Y-68714880D01*
X73190446Y-68667261D01*
X73244017Y-68619642D01*
X73303541Y-68524404D01*
X73315446Y-68429166D01*
X73279732Y-68333928D01*
X73238065Y-68286309D01*
X73148779Y-68238690D01*
X72964255Y-68191071D01*
X72874970Y-68143452D01*
X72833303Y-68095833D01*
X72797589Y-68000595D01*
X72809494Y-67905357D01*
X72869017Y-67810119D01*
X72922589Y-67762500D01*
X73023779Y-67714880D01*
X73261875Y-67714880D01*
X73398779Y-67762500D01*
X73738065Y-67714880D02*
X73851160Y-68714880D01*
X74130922Y-68000595D01*
X74232113Y-68714880D01*
X74595208Y-67714880D01*
X75374970Y-68714880D02*
X74803541Y-68714880D01*
X75089255Y-68714880D02*
X75214255Y-67714880D01*
X75101160Y-67857738D01*
X74994017Y-67952976D01*
X74892827Y-68000595D01*
X76315446Y-68048214D02*
X76232113Y-68714880D01*
X76124970Y-67667261D02*
X75797589Y-68381547D01*
X76416636Y-68381547D01*
X70517261Y-73335119D02*
X70564880Y-73287500D01*
X70660119Y-73239880D01*
X70898214Y-73239880D01*
X70993452Y-73287500D01*
X71041071Y-73335119D01*
X71088690Y-73430357D01*
X71088690Y-73525595D01*
X71041071Y-73668452D01*
X70469642Y-74239880D01*
X71088690Y-74239880D01*
X71517261Y-73239880D02*
X71517261Y-74049404D01*
X71564880Y-74144642D01*
X71612500Y-74192261D01*
X71707738Y-74239880D01*
X71898214Y-74239880D01*
X71993452Y-74192261D01*
X72041071Y-74144642D01*
X72088690Y-74049404D01*
X72088690Y-73239880D01*
X73660119Y-73716071D02*
X73802976Y-73763690D01*
X73850595Y-73811309D01*
X73898214Y-73906547D01*
X73898214Y-74049404D01*
X73850595Y-74144642D01*
X73802976Y-74192261D01*
X73707738Y-74239880D01*
X73326785Y-74239880D01*
X73326785Y-73239880D01*
X73660119Y-73239880D01*
X73755357Y-73287500D01*
X73802976Y-73335119D01*
X73850595Y-73430357D01*
X73850595Y-73525595D01*
X73802976Y-73620833D01*
X73755357Y-73668452D01*
X73660119Y-73716071D01*
X73326785Y-73716071D01*
X74279166Y-73954166D02*
X74755357Y-73954166D01*
X74183928Y-74239880D02*
X74517261Y-73239880D01*
X74850595Y-74239880D01*
X75755357Y-74144642D02*
X75707738Y-74192261D01*
X75564880Y-74239880D01*
X75469642Y-74239880D01*
X75326785Y-74192261D01*
X75231547Y-74097023D01*
X75183928Y-74001785D01*
X75136309Y-73811309D01*
X75136309Y-73668452D01*
X75183928Y-73477976D01*
X75231547Y-73382738D01*
X75326785Y-73287500D01*
X75469642Y-73239880D01*
X75564880Y-73239880D01*
X75707738Y-73287500D01*
X75755357Y-73335119D01*
X76183928Y-74239880D02*
X76183928Y-73239880D01*
X76755357Y-74239880D02*
X76326785Y-73668452D01*
X76755357Y-73239880D02*
X76183928Y-73811309D01*
X77136309Y-74192261D02*
X77279166Y-74239880D01*
X77517261Y-74239880D01*
X77612500Y-74192261D01*
X77660119Y-74144642D01*
X77707738Y-74049404D01*
X77707738Y-73954166D01*
X77660119Y-73858928D01*
X77612500Y-73811309D01*
X77517261Y-73763690D01*
X77326785Y-73716071D01*
X77231547Y-73668452D01*
X77183928Y-73620833D01*
X77136309Y-73525595D01*
X77136309Y-73430357D01*
X77183928Y-73335119D01*
X77231547Y-73287500D01*
X77326785Y-73239880D01*
X77564880Y-73239880D01*
X77707738Y-73287500D01*
X78136309Y-74239880D02*
X78136309Y-73239880D01*
X78517261Y-73239880D01*
X78612500Y-73287500D01*
X78660119Y-73335119D01*
X78707738Y-73430357D01*
X78707738Y-73573214D01*
X78660119Y-73668452D01*
X78612500Y-73716071D01*
X78517261Y-73763690D01*
X78136309Y-73763690D01*
%TO.C,SW16*%
X301314255Y-89042261D02*
X301451160Y-89089880D01*
X301689255Y-89089880D01*
X301790446Y-89042261D01*
X301844017Y-88994642D01*
X301903541Y-88899404D01*
X301915446Y-88804166D01*
X301879732Y-88708928D01*
X301838065Y-88661309D01*
X301748779Y-88613690D01*
X301564255Y-88566071D01*
X301474970Y-88518452D01*
X301433303Y-88470833D01*
X301397589Y-88375595D01*
X301409494Y-88280357D01*
X301469017Y-88185119D01*
X301522589Y-88137500D01*
X301623779Y-88089880D01*
X301861875Y-88089880D01*
X301998779Y-88137500D01*
X302338065Y-88089880D02*
X302451160Y-89089880D01*
X302730922Y-88375595D01*
X302832113Y-89089880D01*
X303195208Y-88089880D01*
X303974970Y-89089880D02*
X303403541Y-89089880D01*
X303689255Y-89089880D02*
X303814255Y-88089880D01*
X303701160Y-88232738D01*
X303594017Y-88327976D01*
X303492827Y-88375595D01*
X304957113Y-88089880D02*
X304766636Y-88089880D01*
X304665446Y-88137500D01*
X304611875Y-88185119D01*
X304498779Y-88327976D01*
X304427351Y-88518452D01*
X304379732Y-88899404D01*
X304415446Y-88994642D01*
X304457113Y-89042261D01*
X304546398Y-89089880D01*
X304736875Y-89089880D01*
X304838065Y-89042261D01*
X304891636Y-88994642D01*
X304951160Y-88899404D01*
X304980922Y-88661309D01*
X304945208Y-88566071D01*
X304903541Y-88518452D01*
X304814255Y-88470833D01*
X304623779Y-88470833D01*
X304522589Y-88518452D01*
X304469017Y-88566071D01*
X304409494Y-88661309D01*
X303593452Y-90685119D02*
X303498214Y-90637500D01*
X303402976Y-90542261D01*
X303260119Y-90399404D01*
X303164880Y-90351785D01*
X303069642Y-90351785D01*
X303117261Y-90589880D02*
X303022023Y-90542261D01*
X302926785Y-90447023D01*
X302879166Y-90256547D01*
X302879166Y-89923214D01*
X302926785Y-89732738D01*
X303022023Y-89637500D01*
X303117261Y-89589880D01*
X303307738Y-89589880D01*
X303402976Y-89637500D01*
X303498214Y-89732738D01*
X303545833Y-89923214D01*
X303545833Y-90256547D01*
X303498214Y-90447023D01*
X303402976Y-90542261D01*
X303307738Y-90589880D01*
X303117261Y-90589880D01*
%TO.C,SW17*%
X282264255Y-89042261D02*
X282401160Y-89089880D01*
X282639255Y-89089880D01*
X282740446Y-89042261D01*
X282794017Y-88994642D01*
X282853541Y-88899404D01*
X282865446Y-88804166D01*
X282829732Y-88708928D01*
X282788065Y-88661309D01*
X282698779Y-88613690D01*
X282514255Y-88566071D01*
X282424970Y-88518452D01*
X282383303Y-88470833D01*
X282347589Y-88375595D01*
X282359494Y-88280357D01*
X282419017Y-88185119D01*
X282472589Y-88137500D01*
X282573779Y-88089880D01*
X282811875Y-88089880D01*
X282948779Y-88137500D01*
X283288065Y-88089880D02*
X283401160Y-89089880D01*
X283680922Y-88375595D01*
X283782113Y-89089880D01*
X284145208Y-88089880D01*
X284924970Y-89089880D02*
X284353541Y-89089880D01*
X284639255Y-89089880D02*
X284764255Y-88089880D01*
X284651160Y-88232738D01*
X284544017Y-88327976D01*
X284442827Y-88375595D01*
X285383303Y-88089880D02*
X286049970Y-88089880D01*
X285496398Y-89089880D01*
X283733928Y-89589880D02*
X283972023Y-90589880D01*
X284162500Y-89875595D01*
X284352976Y-90589880D01*
X284591071Y-89589880D01*
%TO.C,SW18*%
X263214255Y-89042261D02*
X263351160Y-89089880D01*
X263589255Y-89089880D01*
X263690446Y-89042261D01*
X263744017Y-88994642D01*
X263803541Y-88899404D01*
X263815446Y-88804166D01*
X263779732Y-88708928D01*
X263738065Y-88661309D01*
X263648779Y-88613690D01*
X263464255Y-88566071D01*
X263374970Y-88518452D01*
X263333303Y-88470833D01*
X263297589Y-88375595D01*
X263309494Y-88280357D01*
X263369017Y-88185119D01*
X263422589Y-88137500D01*
X263523779Y-88089880D01*
X263761875Y-88089880D01*
X263898779Y-88137500D01*
X264238065Y-88089880D02*
X264351160Y-89089880D01*
X264630922Y-88375595D01*
X264732113Y-89089880D01*
X265095208Y-88089880D01*
X265874970Y-89089880D02*
X265303541Y-89089880D01*
X265589255Y-89089880D02*
X265714255Y-88089880D01*
X265601160Y-88232738D01*
X265494017Y-88327976D01*
X265392827Y-88375595D01*
X266517827Y-88518452D02*
X266428541Y-88470833D01*
X266386875Y-88423214D01*
X266351160Y-88327976D01*
X266357113Y-88280357D01*
X266416636Y-88185119D01*
X266470208Y-88137500D01*
X266571398Y-88089880D01*
X266761875Y-88089880D01*
X266851160Y-88137500D01*
X266892827Y-88185119D01*
X266928541Y-88280357D01*
X266922589Y-88327976D01*
X266863065Y-88423214D01*
X266809494Y-88470833D01*
X266708303Y-88518452D01*
X266517827Y-88518452D01*
X266416636Y-88566071D01*
X266363065Y-88613690D01*
X266303541Y-88708928D01*
X266279732Y-88899404D01*
X266315446Y-88994642D01*
X266357113Y-89042261D01*
X266446398Y-89089880D01*
X266636875Y-89089880D01*
X266738065Y-89042261D01*
X266791636Y-88994642D01*
X266851160Y-88899404D01*
X266874970Y-88708928D01*
X266839255Y-88613690D01*
X266797589Y-88566071D01*
X266708303Y-88518452D01*
X264898214Y-90066071D02*
X265231547Y-90066071D01*
X265374404Y-90589880D02*
X264898214Y-90589880D01*
X264898214Y-89589880D01*
X265374404Y-89589880D01*
%TO.C,SW19*%
X244164255Y-89042261D02*
X244301160Y-89089880D01*
X244539255Y-89089880D01*
X244640446Y-89042261D01*
X244694017Y-88994642D01*
X244753541Y-88899404D01*
X244765446Y-88804166D01*
X244729732Y-88708928D01*
X244688065Y-88661309D01*
X244598779Y-88613690D01*
X244414255Y-88566071D01*
X244324970Y-88518452D01*
X244283303Y-88470833D01*
X244247589Y-88375595D01*
X244259494Y-88280357D01*
X244319017Y-88185119D01*
X244372589Y-88137500D01*
X244473779Y-88089880D01*
X244711875Y-88089880D01*
X244848779Y-88137500D01*
X245188065Y-88089880D02*
X245301160Y-89089880D01*
X245580922Y-88375595D01*
X245682113Y-89089880D01*
X246045208Y-88089880D01*
X246824970Y-89089880D02*
X246253541Y-89089880D01*
X246539255Y-89089880D02*
X246664255Y-88089880D01*
X246551160Y-88232738D01*
X246444017Y-88327976D01*
X246342827Y-88375595D01*
X247301160Y-89089880D02*
X247491636Y-89089880D01*
X247592827Y-89042261D01*
X247646398Y-88994642D01*
X247759494Y-88851785D01*
X247830922Y-88661309D01*
X247878541Y-88280357D01*
X247842827Y-88185119D01*
X247801160Y-88137500D01*
X247711875Y-88089880D01*
X247521398Y-88089880D01*
X247420208Y-88137500D01*
X247366636Y-88185119D01*
X247307113Y-88280357D01*
X247277351Y-88518452D01*
X247313065Y-88613690D01*
X247354732Y-88661309D01*
X247444017Y-88708928D01*
X247634494Y-88708928D01*
X247735684Y-88661309D01*
X247789255Y-88613690D01*
X247848779Y-88518452D01*
X246372023Y-90589880D02*
X246038690Y-90113690D01*
X245800595Y-90589880D02*
X245800595Y-89589880D01*
X246181547Y-89589880D01*
X246276785Y-89637500D01*
X246324404Y-89685119D01*
X246372023Y-89780357D01*
X246372023Y-89923214D01*
X246324404Y-90018452D01*
X246276785Y-90066071D01*
X246181547Y-90113690D01*
X245800595Y-90113690D01*
%TO.C,SW20*%
X225114255Y-89042261D02*
X225251160Y-89089880D01*
X225489255Y-89089880D01*
X225590446Y-89042261D01*
X225644017Y-88994642D01*
X225703541Y-88899404D01*
X225715446Y-88804166D01*
X225679732Y-88708928D01*
X225638065Y-88661309D01*
X225548779Y-88613690D01*
X225364255Y-88566071D01*
X225274970Y-88518452D01*
X225233303Y-88470833D01*
X225197589Y-88375595D01*
X225209494Y-88280357D01*
X225269017Y-88185119D01*
X225322589Y-88137500D01*
X225423779Y-88089880D01*
X225661875Y-88089880D01*
X225798779Y-88137500D01*
X226138065Y-88089880D02*
X226251160Y-89089880D01*
X226530922Y-88375595D01*
X226632113Y-89089880D01*
X226995208Y-88089880D01*
X227316636Y-88185119D02*
X227370208Y-88137500D01*
X227471398Y-88089880D01*
X227709494Y-88089880D01*
X227798779Y-88137500D01*
X227840446Y-88185119D01*
X227876160Y-88280357D01*
X227864255Y-88375595D01*
X227798779Y-88518452D01*
X227155922Y-89089880D01*
X227774970Y-89089880D01*
X228519017Y-88089880D02*
X228614255Y-88089880D01*
X228703541Y-88137500D01*
X228745208Y-88185119D01*
X228780922Y-88280357D01*
X228804732Y-88470833D01*
X228774970Y-88708928D01*
X228703541Y-88899404D01*
X228644017Y-88994642D01*
X228590446Y-89042261D01*
X228489255Y-89089880D01*
X228394017Y-89089880D01*
X228304732Y-89042261D01*
X228263065Y-88994642D01*
X228227351Y-88899404D01*
X228203541Y-88708928D01*
X228233303Y-88470833D01*
X228304732Y-88280357D01*
X228364255Y-88185119D01*
X228417827Y-88137500D01*
X228519017Y-88089880D01*
X226726785Y-89589880D02*
X227298214Y-89589880D01*
X227012500Y-90589880D02*
X227012500Y-89589880D01*
%TO.C,SW21*%
X206064255Y-89042261D02*
X206201160Y-89089880D01*
X206439255Y-89089880D01*
X206540446Y-89042261D01*
X206594017Y-88994642D01*
X206653541Y-88899404D01*
X206665446Y-88804166D01*
X206629732Y-88708928D01*
X206588065Y-88661309D01*
X206498779Y-88613690D01*
X206314255Y-88566071D01*
X206224970Y-88518452D01*
X206183303Y-88470833D01*
X206147589Y-88375595D01*
X206159494Y-88280357D01*
X206219017Y-88185119D01*
X206272589Y-88137500D01*
X206373779Y-88089880D01*
X206611875Y-88089880D01*
X206748779Y-88137500D01*
X207088065Y-88089880D02*
X207201160Y-89089880D01*
X207480922Y-88375595D01*
X207582113Y-89089880D01*
X207945208Y-88089880D01*
X208266636Y-88185119D02*
X208320208Y-88137500D01*
X208421398Y-88089880D01*
X208659494Y-88089880D01*
X208748779Y-88137500D01*
X208790446Y-88185119D01*
X208826160Y-88280357D01*
X208814255Y-88375595D01*
X208748779Y-88518452D01*
X208105922Y-89089880D01*
X208724970Y-89089880D01*
X209677351Y-89089880D02*
X209105922Y-89089880D01*
X209391636Y-89089880D02*
X209516636Y-88089880D01*
X209403541Y-88232738D01*
X209296398Y-88327976D01*
X209195208Y-88375595D01*
X207962500Y-90113690D02*
X207962500Y-90589880D01*
X207629166Y-89589880D02*
X207962500Y-90113690D01*
X208295833Y-89589880D01*
%TO.C,SW22*%
X187014255Y-89042261D02*
X187151160Y-89089880D01*
X187389255Y-89089880D01*
X187490446Y-89042261D01*
X187544017Y-88994642D01*
X187603541Y-88899404D01*
X187615446Y-88804166D01*
X187579732Y-88708928D01*
X187538065Y-88661309D01*
X187448779Y-88613690D01*
X187264255Y-88566071D01*
X187174970Y-88518452D01*
X187133303Y-88470833D01*
X187097589Y-88375595D01*
X187109494Y-88280357D01*
X187169017Y-88185119D01*
X187222589Y-88137500D01*
X187323779Y-88089880D01*
X187561875Y-88089880D01*
X187698779Y-88137500D01*
X188038065Y-88089880D02*
X188151160Y-89089880D01*
X188430922Y-88375595D01*
X188532113Y-89089880D01*
X188895208Y-88089880D01*
X189216636Y-88185119D02*
X189270208Y-88137500D01*
X189371398Y-88089880D01*
X189609494Y-88089880D01*
X189698779Y-88137500D01*
X189740446Y-88185119D01*
X189776160Y-88280357D01*
X189764255Y-88375595D01*
X189698779Y-88518452D01*
X189055922Y-89089880D01*
X189674970Y-89089880D01*
X190169017Y-88185119D02*
X190222589Y-88137500D01*
X190323779Y-88089880D01*
X190561875Y-88089880D01*
X190651160Y-88137500D01*
X190692827Y-88185119D01*
X190728541Y-88280357D01*
X190716636Y-88375595D01*
X190651160Y-88518452D01*
X190008303Y-89089880D01*
X190627351Y-89089880D01*
X188626785Y-89589880D02*
X188626785Y-90399404D01*
X188674404Y-90494642D01*
X188722023Y-90542261D01*
X188817261Y-90589880D01*
X189007738Y-90589880D01*
X189102976Y-90542261D01*
X189150595Y-90494642D01*
X189198214Y-90399404D01*
X189198214Y-89589880D01*
%TO.C,SW23*%
X167964255Y-89042261D02*
X168101160Y-89089880D01*
X168339255Y-89089880D01*
X168440446Y-89042261D01*
X168494017Y-88994642D01*
X168553541Y-88899404D01*
X168565446Y-88804166D01*
X168529732Y-88708928D01*
X168488065Y-88661309D01*
X168398779Y-88613690D01*
X168214255Y-88566071D01*
X168124970Y-88518452D01*
X168083303Y-88470833D01*
X168047589Y-88375595D01*
X168059494Y-88280357D01*
X168119017Y-88185119D01*
X168172589Y-88137500D01*
X168273779Y-88089880D01*
X168511875Y-88089880D01*
X168648779Y-88137500D01*
X168988065Y-88089880D02*
X169101160Y-89089880D01*
X169380922Y-88375595D01*
X169482113Y-89089880D01*
X169845208Y-88089880D01*
X170166636Y-88185119D02*
X170220208Y-88137500D01*
X170321398Y-88089880D01*
X170559494Y-88089880D01*
X170648779Y-88137500D01*
X170690446Y-88185119D01*
X170726160Y-88280357D01*
X170714255Y-88375595D01*
X170648779Y-88518452D01*
X170005922Y-89089880D01*
X170624970Y-89089880D01*
X171083303Y-88089880D02*
X171702351Y-88089880D01*
X171321398Y-88470833D01*
X171464255Y-88470833D01*
X171553541Y-88518452D01*
X171595208Y-88566071D01*
X171630922Y-88661309D01*
X171601160Y-88899404D01*
X171541636Y-88994642D01*
X171488065Y-89042261D01*
X171386875Y-89089880D01*
X171101160Y-89089880D01*
X171011875Y-89042261D01*
X170970208Y-88994642D01*
X169862500Y-90589880D02*
X169862500Y-89589880D01*
%TO.C,SW24*%
X148914255Y-89042261D02*
X149051160Y-89089880D01*
X149289255Y-89089880D01*
X149390446Y-89042261D01*
X149444017Y-88994642D01*
X149503541Y-88899404D01*
X149515446Y-88804166D01*
X149479732Y-88708928D01*
X149438065Y-88661309D01*
X149348779Y-88613690D01*
X149164255Y-88566071D01*
X149074970Y-88518452D01*
X149033303Y-88470833D01*
X148997589Y-88375595D01*
X149009494Y-88280357D01*
X149069017Y-88185119D01*
X149122589Y-88137500D01*
X149223779Y-88089880D01*
X149461875Y-88089880D01*
X149598779Y-88137500D01*
X149938065Y-88089880D02*
X150051160Y-89089880D01*
X150330922Y-88375595D01*
X150432113Y-89089880D01*
X150795208Y-88089880D01*
X151116636Y-88185119D02*
X151170208Y-88137500D01*
X151271398Y-88089880D01*
X151509494Y-88089880D01*
X151598779Y-88137500D01*
X151640446Y-88185119D01*
X151676160Y-88280357D01*
X151664255Y-88375595D01*
X151598779Y-88518452D01*
X150955922Y-89089880D01*
X151574970Y-89089880D01*
X152515446Y-88423214D02*
X152432113Y-89089880D01*
X152324970Y-88042261D02*
X151997589Y-88756547D01*
X152616636Y-88756547D01*
X150717261Y-89589880D02*
X150907738Y-89589880D01*
X151002976Y-89637500D01*
X151098214Y-89732738D01*
X151145833Y-89923214D01*
X151145833Y-90256547D01*
X151098214Y-90447023D01*
X151002976Y-90542261D01*
X150907738Y-90589880D01*
X150717261Y-90589880D01*
X150622023Y-90542261D01*
X150526785Y-90447023D01*
X150479166Y-90256547D01*
X150479166Y-89923214D01*
X150526785Y-89732738D01*
X150622023Y-89637500D01*
X150717261Y-89589880D01*
%TO.C,SW25*%
X129864255Y-89042261D02*
X130001160Y-89089880D01*
X130239255Y-89089880D01*
X130340446Y-89042261D01*
X130394017Y-88994642D01*
X130453541Y-88899404D01*
X130465446Y-88804166D01*
X130429732Y-88708928D01*
X130388065Y-88661309D01*
X130298779Y-88613690D01*
X130114255Y-88566071D01*
X130024970Y-88518452D01*
X129983303Y-88470833D01*
X129947589Y-88375595D01*
X129959494Y-88280357D01*
X130019017Y-88185119D01*
X130072589Y-88137500D01*
X130173779Y-88089880D01*
X130411875Y-88089880D01*
X130548779Y-88137500D01*
X130888065Y-88089880D02*
X131001160Y-89089880D01*
X131280922Y-88375595D01*
X131382113Y-89089880D01*
X131745208Y-88089880D01*
X132066636Y-88185119D02*
X132120208Y-88137500D01*
X132221398Y-88089880D01*
X132459494Y-88089880D01*
X132548779Y-88137500D01*
X132590446Y-88185119D01*
X132626160Y-88280357D01*
X132614255Y-88375595D01*
X132548779Y-88518452D01*
X131905922Y-89089880D01*
X132524970Y-89089880D01*
X133554732Y-88089880D02*
X133078541Y-88089880D01*
X132971398Y-88566071D01*
X133024970Y-88518452D01*
X133126160Y-88470833D01*
X133364255Y-88470833D01*
X133453541Y-88518452D01*
X133495208Y-88566071D01*
X133530922Y-88661309D01*
X133501160Y-88899404D01*
X133441636Y-88994642D01*
X133388065Y-89042261D01*
X133286875Y-89089880D01*
X133048779Y-89089880D01*
X132959494Y-89042261D01*
X132917827Y-88994642D01*
X131500595Y-90589880D02*
X131500595Y-89589880D01*
X131881547Y-89589880D01*
X131976785Y-89637500D01*
X132024404Y-89685119D01*
X132072023Y-89780357D01*
X132072023Y-89923214D01*
X132024404Y-90018452D01*
X131976785Y-90066071D01*
X131881547Y-90113690D01*
X131500595Y-90113690D01*
%TO.C,SW26*%
X110814255Y-89042261D02*
X110951160Y-89089880D01*
X111189255Y-89089880D01*
X111290446Y-89042261D01*
X111344017Y-88994642D01*
X111403541Y-88899404D01*
X111415446Y-88804166D01*
X111379732Y-88708928D01*
X111338065Y-88661309D01*
X111248779Y-88613690D01*
X111064255Y-88566071D01*
X110974970Y-88518452D01*
X110933303Y-88470833D01*
X110897589Y-88375595D01*
X110909494Y-88280357D01*
X110969017Y-88185119D01*
X111022589Y-88137500D01*
X111123779Y-88089880D01*
X111361875Y-88089880D01*
X111498779Y-88137500D01*
X111838065Y-88089880D02*
X111951160Y-89089880D01*
X112230922Y-88375595D01*
X112332113Y-89089880D01*
X112695208Y-88089880D01*
X113016636Y-88185119D02*
X113070208Y-88137500D01*
X113171398Y-88089880D01*
X113409494Y-88089880D01*
X113498779Y-88137500D01*
X113540446Y-88185119D01*
X113576160Y-88280357D01*
X113564255Y-88375595D01*
X113498779Y-88518452D01*
X112855922Y-89089880D01*
X113474970Y-89089880D01*
X114457113Y-88089880D02*
X114266636Y-88089880D01*
X114165446Y-88137500D01*
X114111875Y-88185119D01*
X113998779Y-88327976D01*
X113927351Y-88518452D01*
X113879732Y-88899404D01*
X113915446Y-88994642D01*
X113957113Y-89042261D01*
X114046398Y-89089880D01*
X114236875Y-89089880D01*
X114338065Y-89042261D01*
X114391636Y-88994642D01*
X114451160Y-88899404D01*
X114480922Y-88661309D01*
X114445208Y-88566071D01*
X114403541Y-88518452D01*
X114314255Y-88470833D01*
X114123779Y-88470833D01*
X114022589Y-88518452D01*
X113969017Y-88566071D01*
X113909494Y-88661309D01*
X110807738Y-90494642D02*
X110760119Y-90542261D01*
X110617261Y-90589880D01*
X110522023Y-90589880D01*
X110379166Y-90542261D01*
X110283928Y-90447023D01*
X110236309Y-90351785D01*
X110188690Y-90161309D01*
X110188690Y-90018452D01*
X110236309Y-89827976D01*
X110283928Y-89732738D01*
X110379166Y-89637500D01*
X110522023Y-89589880D01*
X110617261Y-89589880D01*
X110760119Y-89637500D01*
X110807738Y-89685119D01*
X111236309Y-89589880D02*
X111236309Y-90399404D01*
X111283928Y-90494642D01*
X111331547Y-90542261D01*
X111426785Y-90589880D01*
X111617261Y-90589880D01*
X111712500Y-90542261D01*
X111760119Y-90494642D01*
X111807738Y-90399404D01*
X111807738Y-89589880D01*
X112855357Y-90589880D02*
X112522023Y-90113690D01*
X112283928Y-90589880D02*
X112283928Y-89589880D01*
X112664880Y-89589880D01*
X112760119Y-89637500D01*
X112807738Y-89685119D01*
X112855357Y-89780357D01*
X112855357Y-89923214D01*
X112807738Y-90018452D01*
X112760119Y-90066071D01*
X112664880Y-90113690D01*
X112283928Y-90113690D01*
X113760119Y-90589880D02*
X113283928Y-90589880D01*
X113283928Y-89589880D01*
X113855357Y-90685119D02*
X114617261Y-90685119D01*
X115331547Y-90589880D02*
X114855357Y-90589880D01*
X114855357Y-89589880D01*
%TO.C,SW27*%
X91764255Y-89042261D02*
X91901160Y-89089880D01*
X92139255Y-89089880D01*
X92240446Y-89042261D01*
X92294017Y-88994642D01*
X92353541Y-88899404D01*
X92365446Y-88804166D01*
X92329732Y-88708928D01*
X92288065Y-88661309D01*
X92198779Y-88613690D01*
X92014255Y-88566071D01*
X91924970Y-88518452D01*
X91883303Y-88470833D01*
X91847589Y-88375595D01*
X91859494Y-88280357D01*
X91919017Y-88185119D01*
X91972589Y-88137500D01*
X92073779Y-88089880D01*
X92311875Y-88089880D01*
X92448779Y-88137500D01*
X92788065Y-88089880D02*
X92901160Y-89089880D01*
X93180922Y-88375595D01*
X93282113Y-89089880D01*
X93645208Y-88089880D01*
X93966636Y-88185119D02*
X94020208Y-88137500D01*
X94121398Y-88089880D01*
X94359494Y-88089880D01*
X94448779Y-88137500D01*
X94490446Y-88185119D01*
X94526160Y-88280357D01*
X94514255Y-88375595D01*
X94448779Y-88518452D01*
X93805922Y-89089880D01*
X94424970Y-89089880D01*
X94883303Y-88089880D02*
X95549970Y-88089880D01*
X94996398Y-89089880D01*
X91662500Y-90494642D02*
X91614880Y-90542261D01*
X91472023Y-90589880D01*
X91376785Y-90589880D01*
X91233928Y-90542261D01*
X91138690Y-90447023D01*
X91091071Y-90351785D01*
X91043452Y-90161309D01*
X91043452Y-90018452D01*
X91091071Y-89827976D01*
X91138690Y-89732738D01*
X91233928Y-89637500D01*
X91376785Y-89589880D01*
X91472023Y-89589880D01*
X91614880Y-89637500D01*
X91662500Y-89685119D01*
X92091071Y-89589880D02*
X92091071Y-90399404D01*
X92138690Y-90494642D01*
X92186309Y-90542261D01*
X92281547Y-90589880D01*
X92472023Y-90589880D01*
X92567261Y-90542261D01*
X92614880Y-90494642D01*
X92662500Y-90399404D01*
X92662500Y-89589880D01*
X93710119Y-90589880D02*
X93376785Y-90113690D01*
X93138690Y-90589880D02*
X93138690Y-89589880D01*
X93519642Y-89589880D01*
X93614880Y-89637500D01*
X93662500Y-89685119D01*
X93710119Y-89780357D01*
X93710119Y-89923214D01*
X93662500Y-90018452D01*
X93614880Y-90066071D01*
X93519642Y-90113690D01*
X93138690Y-90113690D01*
X94614880Y-90589880D02*
X94138690Y-90589880D01*
X94138690Y-89589880D01*
X94710119Y-90685119D02*
X95472023Y-90685119D01*
X96281547Y-90589880D02*
X95948214Y-90113690D01*
X95710119Y-90589880D02*
X95710119Y-89589880D01*
X96091071Y-89589880D01*
X96186309Y-89637500D01*
X96233928Y-89685119D01*
X96281547Y-89780357D01*
X96281547Y-89923214D01*
X96233928Y-90018452D01*
X96186309Y-90066071D01*
X96091071Y-90113690D01*
X95710119Y-90113690D01*
%TO.C,SW28*%
X63189255Y-69992261D02*
X63326160Y-70039880D01*
X63564255Y-70039880D01*
X63665446Y-69992261D01*
X63719017Y-69944642D01*
X63778541Y-69849404D01*
X63790446Y-69754166D01*
X63754732Y-69658928D01*
X63713065Y-69611309D01*
X63623779Y-69563690D01*
X63439255Y-69516071D01*
X63349970Y-69468452D01*
X63308303Y-69420833D01*
X63272589Y-69325595D01*
X63284494Y-69230357D01*
X63344017Y-69135119D01*
X63397589Y-69087500D01*
X63498779Y-69039880D01*
X63736875Y-69039880D01*
X63873779Y-69087500D01*
X64213065Y-69039880D02*
X64326160Y-70039880D01*
X64605922Y-69325595D01*
X64707113Y-70039880D01*
X65070208Y-69039880D01*
X65391636Y-69135119D02*
X65445208Y-69087500D01*
X65546398Y-69039880D01*
X65784494Y-69039880D01*
X65873779Y-69087500D01*
X65915446Y-69135119D01*
X65951160Y-69230357D01*
X65939255Y-69325595D01*
X65873779Y-69468452D01*
X65230922Y-70039880D01*
X65849970Y-70039880D01*
X66492827Y-69468452D02*
X66403541Y-69420833D01*
X66361875Y-69373214D01*
X66326160Y-69277976D01*
X66332113Y-69230357D01*
X66391636Y-69135119D01*
X66445208Y-69087500D01*
X66546398Y-69039880D01*
X66736875Y-69039880D01*
X66826160Y-69087500D01*
X66867827Y-69135119D01*
X66903541Y-69230357D01*
X66897589Y-69277976D01*
X66838065Y-69373214D01*
X66784494Y-69420833D01*
X66683303Y-69468452D01*
X66492827Y-69468452D01*
X66391636Y-69516071D01*
X66338065Y-69563690D01*
X66278541Y-69658928D01*
X66254732Y-69849404D01*
X66290446Y-69944642D01*
X66332113Y-69992261D01*
X66421398Y-70039880D01*
X66611875Y-70039880D01*
X66713065Y-69992261D01*
X66766636Y-69944642D01*
X66826160Y-69849404D01*
X66849970Y-69658928D01*
X66814255Y-69563690D01*
X66772589Y-69516071D01*
X66683303Y-69468452D01*
X61992261Y-71539880D02*
X61420833Y-71539880D01*
X61706547Y-71539880D02*
X61706547Y-70539880D01*
X61611309Y-70682738D01*
X61516071Y-70777976D01*
X61420833Y-70825595D01*
X62420833Y-70539880D02*
X62420833Y-71349404D01*
X62468452Y-71444642D01*
X62516071Y-71492261D01*
X62611309Y-71539880D01*
X62801785Y-71539880D01*
X62897023Y-71492261D01*
X62944642Y-71444642D01*
X62992261Y-71349404D01*
X62992261Y-70539880D01*
X64801785Y-71539880D02*
X64468452Y-71063690D01*
X64230357Y-71539880D02*
X64230357Y-70539880D01*
X64611309Y-70539880D01*
X64706547Y-70587500D01*
X64754166Y-70635119D01*
X64801785Y-70730357D01*
X64801785Y-70873214D01*
X64754166Y-70968452D01*
X64706547Y-71016071D01*
X64611309Y-71063690D01*
X64230357Y-71063690D01*
X65563690Y-71016071D02*
X65706547Y-71063690D01*
X65754166Y-71111309D01*
X65801785Y-71206547D01*
X65801785Y-71349404D01*
X65754166Y-71444642D01*
X65706547Y-71492261D01*
X65611309Y-71539880D01*
X65230357Y-71539880D01*
X65230357Y-70539880D01*
X65563690Y-70539880D01*
X65658928Y-70587500D01*
X65706547Y-70635119D01*
X65754166Y-70730357D01*
X65754166Y-70825595D01*
X65706547Y-70920833D01*
X65658928Y-70968452D01*
X65563690Y-71016071D01*
X65230357Y-71016071D01*
X66230357Y-71539880D02*
X66230357Y-70539880D01*
X66801785Y-71539880D02*
X66373214Y-70968452D01*
X66801785Y-70539880D02*
X66230357Y-71111309D01*
X67182738Y-71492261D02*
X67325595Y-71539880D01*
X67563690Y-71539880D01*
X67658928Y-71492261D01*
X67706547Y-71444642D01*
X67754166Y-71349404D01*
X67754166Y-71254166D01*
X67706547Y-71158928D01*
X67658928Y-71111309D01*
X67563690Y-71063690D01*
X67373214Y-71016071D01*
X67277976Y-70968452D01*
X67230357Y-70920833D01*
X67182738Y-70825595D01*
X67182738Y-70730357D01*
X67230357Y-70635119D01*
X67277976Y-70587500D01*
X67373214Y-70539880D01*
X67611309Y-70539880D01*
X67754166Y-70587500D01*
X68182738Y-71539880D02*
X68182738Y-70539880D01*
X68563690Y-70539880D01*
X68658928Y-70587500D01*
X68706547Y-70635119D01*
X68754166Y-70730357D01*
X68754166Y-70873214D01*
X68706547Y-70968452D01*
X68658928Y-71016071D01*
X68563690Y-71063690D01*
X68182738Y-71063690D01*
%TO.C,SW31*%
X277501755Y-108092261D02*
X277638660Y-108139880D01*
X277876755Y-108139880D01*
X277977946Y-108092261D01*
X278031517Y-108044642D01*
X278091041Y-107949404D01*
X278102946Y-107854166D01*
X278067232Y-107758928D01*
X278025565Y-107711309D01*
X277936279Y-107663690D01*
X277751755Y-107616071D01*
X277662470Y-107568452D01*
X277620803Y-107520833D01*
X277585089Y-107425595D01*
X277596994Y-107330357D01*
X277656517Y-107235119D01*
X277710089Y-107187500D01*
X277811279Y-107139880D01*
X278049375Y-107139880D01*
X278186279Y-107187500D01*
X278525565Y-107139880D02*
X278638660Y-108139880D01*
X278918422Y-107425595D01*
X279019613Y-108139880D01*
X279382708Y-107139880D01*
X279668422Y-107139880D02*
X280287470Y-107139880D01*
X279906517Y-107520833D01*
X280049375Y-107520833D01*
X280138660Y-107568452D01*
X280180327Y-107616071D01*
X280216041Y-107711309D01*
X280186279Y-107949404D01*
X280126755Y-108044642D01*
X280073184Y-108092261D01*
X279971994Y-108139880D01*
X279686279Y-108139880D01*
X279596994Y-108092261D01*
X279555327Y-108044642D01*
X281114851Y-108139880D02*
X280543422Y-108139880D01*
X280829136Y-108139880D02*
X280954136Y-107139880D01*
X280841041Y-107282738D01*
X280733898Y-107377976D01*
X280632708Y-107425595D01*
X279114285Y-109592261D02*
X279257142Y-109639880D01*
X279495238Y-109639880D01*
X279590476Y-109592261D01*
X279638095Y-109544642D01*
X279685714Y-109449404D01*
X279685714Y-109354166D01*
X279638095Y-109258928D01*
X279590476Y-109211309D01*
X279495238Y-109163690D01*
X279304761Y-109116071D01*
X279209523Y-109068452D01*
X279161904Y-109020833D01*
X279114285Y-108925595D01*
X279114285Y-108830357D01*
X279161904Y-108735119D01*
X279209523Y-108687500D01*
X279304761Y-108639880D01*
X279542857Y-108639880D01*
X279685714Y-108687500D01*
%TO.C,SW32*%
X258451755Y-108092261D02*
X258588660Y-108139880D01*
X258826755Y-108139880D01*
X258927946Y-108092261D01*
X258981517Y-108044642D01*
X259041041Y-107949404D01*
X259052946Y-107854166D01*
X259017232Y-107758928D01*
X258975565Y-107711309D01*
X258886279Y-107663690D01*
X258701755Y-107616071D01*
X258612470Y-107568452D01*
X258570803Y-107520833D01*
X258535089Y-107425595D01*
X258546994Y-107330357D01*
X258606517Y-107235119D01*
X258660089Y-107187500D01*
X258761279Y-107139880D01*
X258999375Y-107139880D01*
X259136279Y-107187500D01*
X259475565Y-107139880D02*
X259588660Y-108139880D01*
X259868422Y-107425595D01*
X259969613Y-108139880D01*
X260332708Y-107139880D01*
X260618422Y-107139880D02*
X261237470Y-107139880D01*
X260856517Y-107520833D01*
X260999375Y-107520833D01*
X261088660Y-107568452D01*
X261130327Y-107616071D01*
X261166041Y-107711309D01*
X261136279Y-107949404D01*
X261076755Y-108044642D01*
X261023184Y-108092261D01*
X260921994Y-108139880D01*
X260636279Y-108139880D01*
X260546994Y-108092261D01*
X260505327Y-108044642D01*
X261606517Y-107235119D02*
X261660089Y-107187500D01*
X261761279Y-107139880D01*
X261999375Y-107139880D01*
X262088660Y-107187500D01*
X262130327Y-107235119D01*
X262166041Y-107330357D01*
X262154136Y-107425595D01*
X262088660Y-107568452D01*
X261445803Y-108139880D01*
X262064851Y-108139880D01*
X260088095Y-109639880D02*
X260088095Y-108639880D01*
X260326190Y-108639880D01*
X260469047Y-108687500D01*
X260564285Y-108782738D01*
X260611904Y-108877976D01*
X260659523Y-109068452D01*
X260659523Y-109211309D01*
X260611904Y-109401785D01*
X260564285Y-109497023D01*
X260469047Y-109592261D01*
X260326190Y-109639880D01*
X260088095Y-109639880D01*
%TO.C,SW33*%
X239401755Y-108092261D02*
X239538660Y-108139880D01*
X239776755Y-108139880D01*
X239877946Y-108092261D01*
X239931517Y-108044642D01*
X239991041Y-107949404D01*
X240002946Y-107854166D01*
X239967232Y-107758928D01*
X239925565Y-107711309D01*
X239836279Y-107663690D01*
X239651755Y-107616071D01*
X239562470Y-107568452D01*
X239520803Y-107520833D01*
X239485089Y-107425595D01*
X239496994Y-107330357D01*
X239556517Y-107235119D01*
X239610089Y-107187500D01*
X239711279Y-107139880D01*
X239949375Y-107139880D01*
X240086279Y-107187500D01*
X240425565Y-107139880D02*
X240538660Y-108139880D01*
X240818422Y-107425595D01*
X240919613Y-108139880D01*
X241282708Y-107139880D01*
X241568422Y-107139880D02*
X242187470Y-107139880D01*
X241806517Y-107520833D01*
X241949375Y-107520833D01*
X242038660Y-107568452D01*
X242080327Y-107616071D01*
X242116041Y-107711309D01*
X242086279Y-107949404D01*
X242026755Y-108044642D01*
X241973184Y-108092261D01*
X241871994Y-108139880D01*
X241586279Y-108139880D01*
X241496994Y-108092261D01*
X241455327Y-108044642D01*
X242520803Y-107139880D02*
X243139851Y-107139880D01*
X242758898Y-107520833D01*
X242901755Y-107520833D01*
X242991041Y-107568452D01*
X243032708Y-107616071D01*
X243068422Y-107711309D01*
X243038660Y-107949404D01*
X242979136Y-108044642D01*
X242925565Y-108092261D01*
X242824375Y-108139880D01*
X242538660Y-108139880D01*
X242449375Y-108092261D01*
X242407708Y-108044642D01*
X241442857Y-109116071D02*
X241109523Y-109116071D01*
X241109523Y-109639880D02*
X241109523Y-108639880D01*
X241585714Y-108639880D01*
%TO.C,SW34*%
X220351755Y-108092261D02*
X220488660Y-108139880D01*
X220726755Y-108139880D01*
X220827946Y-108092261D01*
X220881517Y-108044642D01*
X220941041Y-107949404D01*
X220952946Y-107854166D01*
X220917232Y-107758928D01*
X220875565Y-107711309D01*
X220786279Y-107663690D01*
X220601755Y-107616071D01*
X220512470Y-107568452D01*
X220470803Y-107520833D01*
X220435089Y-107425595D01*
X220446994Y-107330357D01*
X220506517Y-107235119D01*
X220560089Y-107187500D01*
X220661279Y-107139880D01*
X220899375Y-107139880D01*
X221036279Y-107187500D01*
X221375565Y-107139880D02*
X221488660Y-108139880D01*
X221768422Y-107425595D01*
X221869613Y-108139880D01*
X222232708Y-107139880D01*
X222518422Y-107139880D02*
X223137470Y-107139880D01*
X222756517Y-107520833D01*
X222899375Y-107520833D01*
X222988660Y-107568452D01*
X223030327Y-107616071D01*
X223066041Y-107711309D01*
X223036279Y-107949404D01*
X222976755Y-108044642D01*
X222923184Y-108092261D01*
X222821994Y-108139880D01*
X222536279Y-108139880D01*
X222446994Y-108092261D01*
X222405327Y-108044642D01*
X223952946Y-107473214D02*
X223869613Y-108139880D01*
X223762470Y-107092261D02*
X223435089Y-107806547D01*
X224054136Y-107806547D01*
X222511904Y-108687500D02*
X222416666Y-108639880D01*
X222273809Y-108639880D01*
X222130952Y-108687500D01*
X222035714Y-108782738D01*
X221988095Y-108877976D01*
X221940476Y-109068452D01*
X221940476Y-109211309D01*
X221988095Y-109401785D01*
X222035714Y-109497023D01*
X222130952Y-109592261D01*
X222273809Y-109639880D01*
X222369047Y-109639880D01*
X222511904Y-109592261D01*
X222559523Y-109544642D01*
X222559523Y-109211309D01*
X222369047Y-109211309D01*
%TO.C,SW36*%
X182251755Y-108092261D02*
X182388660Y-108139880D01*
X182626755Y-108139880D01*
X182727946Y-108092261D01*
X182781517Y-108044642D01*
X182841041Y-107949404D01*
X182852946Y-107854166D01*
X182817232Y-107758928D01*
X182775565Y-107711309D01*
X182686279Y-107663690D01*
X182501755Y-107616071D01*
X182412470Y-107568452D01*
X182370803Y-107520833D01*
X182335089Y-107425595D01*
X182346994Y-107330357D01*
X182406517Y-107235119D01*
X182460089Y-107187500D01*
X182561279Y-107139880D01*
X182799375Y-107139880D01*
X182936279Y-107187500D01*
X183275565Y-107139880D02*
X183388660Y-108139880D01*
X183668422Y-107425595D01*
X183769613Y-108139880D01*
X184132708Y-107139880D01*
X184418422Y-107139880D02*
X185037470Y-107139880D01*
X184656517Y-107520833D01*
X184799375Y-107520833D01*
X184888660Y-107568452D01*
X184930327Y-107616071D01*
X184966041Y-107711309D01*
X184936279Y-107949404D01*
X184876755Y-108044642D01*
X184823184Y-108092261D01*
X184721994Y-108139880D01*
X184436279Y-108139880D01*
X184346994Y-108092261D01*
X184305327Y-108044642D01*
X185894613Y-107139880D02*
X185704136Y-107139880D01*
X185602946Y-107187500D01*
X185549375Y-107235119D01*
X185436279Y-107377976D01*
X185364851Y-107568452D01*
X185317232Y-107949404D01*
X185352946Y-108044642D01*
X185394613Y-108092261D01*
X185483898Y-108139880D01*
X185674375Y-108139880D01*
X185775565Y-108092261D01*
X185829136Y-108044642D01*
X185888660Y-107949404D01*
X185918422Y-107711309D01*
X185882708Y-107616071D01*
X185841041Y-107568452D01*
X185751755Y-107520833D01*
X185561279Y-107520833D01*
X185460089Y-107568452D01*
X185406517Y-107616071D01*
X185346994Y-107711309D01*
X184292857Y-108639880D02*
X184292857Y-109354166D01*
X184245238Y-109497023D01*
X184150000Y-109592261D01*
X184007142Y-109639880D01*
X183911904Y-109639880D01*
%TO.C,SW37*%
X163201755Y-108092261D02*
X163338660Y-108139880D01*
X163576755Y-108139880D01*
X163677946Y-108092261D01*
X163731517Y-108044642D01*
X163791041Y-107949404D01*
X163802946Y-107854166D01*
X163767232Y-107758928D01*
X163725565Y-107711309D01*
X163636279Y-107663690D01*
X163451755Y-107616071D01*
X163362470Y-107568452D01*
X163320803Y-107520833D01*
X163285089Y-107425595D01*
X163296994Y-107330357D01*
X163356517Y-107235119D01*
X163410089Y-107187500D01*
X163511279Y-107139880D01*
X163749375Y-107139880D01*
X163886279Y-107187500D01*
X164225565Y-107139880D02*
X164338660Y-108139880D01*
X164618422Y-107425595D01*
X164719613Y-108139880D01*
X165082708Y-107139880D01*
X165368422Y-107139880D02*
X165987470Y-107139880D01*
X165606517Y-107520833D01*
X165749375Y-107520833D01*
X165838660Y-107568452D01*
X165880327Y-107616071D01*
X165916041Y-107711309D01*
X165886279Y-107949404D01*
X165826755Y-108044642D01*
X165773184Y-108092261D01*
X165671994Y-108139880D01*
X165386279Y-108139880D01*
X165296994Y-108092261D01*
X165255327Y-108044642D01*
X166320803Y-107139880D02*
X166987470Y-107139880D01*
X166433898Y-108139880D01*
X164838095Y-109639880D02*
X164838095Y-108639880D01*
X165409523Y-109639880D02*
X164980952Y-109068452D01*
X165409523Y-108639880D02*
X164838095Y-109211309D01*
%TO.C,SW38*%
X144151755Y-108092261D02*
X144288660Y-108139880D01*
X144526755Y-108139880D01*
X144627946Y-108092261D01*
X144681517Y-108044642D01*
X144741041Y-107949404D01*
X144752946Y-107854166D01*
X144717232Y-107758928D01*
X144675565Y-107711309D01*
X144586279Y-107663690D01*
X144401755Y-107616071D01*
X144312470Y-107568452D01*
X144270803Y-107520833D01*
X144235089Y-107425595D01*
X144246994Y-107330357D01*
X144306517Y-107235119D01*
X144360089Y-107187500D01*
X144461279Y-107139880D01*
X144699375Y-107139880D01*
X144836279Y-107187500D01*
X145175565Y-107139880D02*
X145288660Y-108139880D01*
X145568422Y-107425595D01*
X145669613Y-108139880D01*
X146032708Y-107139880D01*
X146318422Y-107139880D02*
X146937470Y-107139880D01*
X146556517Y-107520833D01*
X146699375Y-107520833D01*
X146788660Y-107568452D01*
X146830327Y-107616071D01*
X146866041Y-107711309D01*
X146836279Y-107949404D01*
X146776755Y-108044642D01*
X146723184Y-108092261D01*
X146621994Y-108139880D01*
X146336279Y-108139880D01*
X146246994Y-108092261D01*
X146205327Y-108044642D01*
X147455327Y-107568452D02*
X147366041Y-107520833D01*
X147324375Y-107473214D01*
X147288660Y-107377976D01*
X147294613Y-107330357D01*
X147354136Y-107235119D01*
X147407708Y-107187500D01*
X147508898Y-107139880D01*
X147699375Y-107139880D01*
X147788660Y-107187500D01*
X147830327Y-107235119D01*
X147866041Y-107330357D01*
X147860089Y-107377976D01*
X147800565Y-107473214D01*
X147746994Y-107520833D01*
X147645803Y-107568452D01*
X147455327Y-107568452D01*
X147354136Y-107616071D01*
X147300565Y-107663690D01*
X147241041Y-107758928D01*
X147217232Y-107949404D01*
X147252946Y-108044642D01*
X147294613Y-108092261D01*
X147383898Y-108139880D01*
X147574375Y-108139880D01*
X147675565Y-108092261D01*
X147729136Y-108044642D01*
X147788660Y-107949404D01*
X147812470Y-107758928D01*
X147776755Y-107663690D01*
X147735089Y-107616071D01*
X147645803Y-107568452D01*
X146359523Y-109639880D02*
X145883333Y-109639880D01*
X145883333Y-108639880D01*
%TO.C,SW39*%
X125101755Y-108092261D02*
X125238660Y-108139880D01*
X125476755Y-108139880D01*
X125577946Y-108092261D01*
X125631517Y-108044642D01*
X125691041Y-107949404D01*
X125702946Y-107854166D01*
X125667232Y-107758928D01*
X125625565Y-107711309D01*
X125536279Y-107663690D01*
X125351755Y-107616071D01*
X125262470Y-107568452D01*
X125220803Y-107520833D01*
X125185089Y-107425595D01*
X125196994Y-107330357D01*
X125256517Y-107235119D01*
X125310089Y-107187500D01*
X125411279Y-107139880D01*
X125649375Y-107139880D01*
X125786279Y-107187500D01*
X126125565Y-107139880D02*
X126238660Y-108139880D01*
X126518422Y-107425595D01*
X126619613Y-108139880D01*
X126982708Y-107139880D01*
X127268422Y-107139880D02*
X127887470Y-107139880D01*
X127506517Y-107520833D01*
X127649375Y-107520833D01*
X127738660Y-107568452D01*
X127780327Y-107616071D01*
X127816041Y-107711309D01*
X127786279Y-107949404D01*
X127726755Y-108044642D01*
X127673184Y-108092261D01*
X127571994Y-108139880D01*
X127286279Y-108139880D01*
X127196994Y-108092261D01*
X127155327Y-108044642D01*
X128238660Y-108139880D02*
X128429136Y-108139880D01*
X128530327Y-108092261D01*
X128583898Y-108044642D01*
X128696994Y-107901785D01*
X128768422Y-107711309D01*
X128816041Y-107330357D01*
X128780327Y-107235119D01*
X128738660Y-107187500D01*
X128649375Y-107139880D01*
X128458898Y-107139880D01*
X128357708Y-107187500D01*
X128304136Y-107235119D01*
X128244613Y-107330357D01*
X128214851Y-107568452D01*
X128250565Y-107663690D01*
X128292232Y-107711309D01*
X128381517Y-107758928D01*
X128571994Y-107758928D01*
X128673184Y-107711309D01*
X128726755Y-107663690D01*
X128786279Y-107568452D01*
X127047619Y-109592261D02*
X127047619Y-109639880D01*
X127000000Y-109735119D01*
X126952380Y-109782738D01*
X127000000Y-109020833D02*
X127047619Y-109068452D01*
X127000000Y-109116071D01*
X126952380Y-109068452D01*
X127000000Y-109020833D01*
X127000000Y-109116071D01*
%TO.C,SW40*%
X106051755Y-108092261D02*
X106188660Y-108139880D01*
X106426755Y-108139880D01*
X106527946Y-108092261D01*
X106581517Y-108044642D01*
X106641041Y-107949404D01*
X106652946Y-107854166D01*
X106617232Y-107758928D01*
X106575565Y-107711309D01*
X106486279Y-107663690D01*
X106301755Y-107616071D01*
X106212470Y-107568452D01*
X106170803Y-107520833D01*
X106135089Y-107425595D01*
X106146994Y-107330357D01*
X106206517Y-107235119D01*
X106260089Y-107187500D01*
X106361279Y-107139880D01*
X106599375Y-107139880D01*
X106736279Y-107187500D01*
X107075565Y-107139880D02*
X107188660Y-108139880D01*
X107468422Y-107425595D01*
X107569613Y-108139880D01*
X107932708Y-107139880D01*
X108700565Y-107473214D02*
X108617232Y-108139880D01*
X108510089Y-107092261D02*
X108182708Y-107806547D01*
X108801755Y-107806547D01*
X109456517Y-107139880D02*
X109551755Y-107139880D01*
X109641041Y-107187500D01*
X109682708Y-107235119D01*
X109718422Y-107330357D01*
X109742232Y-107520833D01*
X109712470Y-107758928D01*
X109641041Y-107949404D01*
X109581517Y-108044642D01*
X109527946Y-108092261D01*
X109426755Y-108139880D01*
X109331517Y-108139880D01*
X109242232Y-108092261D01*
X109200565Y-108044642D01*
X109164851Y-107949404D01*
X109141041Y-107758928D01*
X109170803Y-107520833D01*
X109242232Y-107330357D01*
X109301755Y-107235119D01*
X109355327Y-107187500D01*
X109456517Y-107139880D01*
X107997619Y-108639880D02*
X107902380Y-108830357D01*
%TO.C,SW41*%
X67951755Y-87717261D02*
X68088660Y-87764880D01*
X68326755Y-87764880D01*
X68427946Y-87717261D01*
X68481517Y-87669642D01*
X68541041Y-87574404D01*
X68552946Y-87479166D01*
X68517232Y-87383928D01*
X68475565Y-87336309D01*
X68386279Y-87288690D01*
X68201755Y-87241071D01*
X68112470Y-87193452D01*
X68070803Y-87145833D01*
X68035089Y-87050595D01*
X68046994Y-86955357D01*
X68106517Y-86860119D01*
X68160089Y-86812500D01*
X68261279Y-86764880D01*
X68499375Y-86764880D01*
X68636279Y-86812500D01*
X68975565Y-86764880D02*
X69088660Y-87764880D01*
X69368422Y-87050595D01*
X69469613Y-87764880D01*
X69832708Y-86764880D01*
X70600565Y-87098214D02*
X70517232Y-87764880D01*
X70410089Y-86717261D02*
X70082708Y-87431547D01*
X70701755Y-87431547D01*
X71564851Y-87764880D02*
X70993422Y-87764880D01*
X71279136Y-87764880D02*
X71404136Y-86764880D01*
X71291041Y-86907738D01*
X71183898Y-87002976D01*
X71082708Y-87050595D01*
X66969047Y-91574880D02*
X66969047Y-90574880D01*
X67350000Y-90574880D01*
X67445238Y-90622500D01*
X67492857Y-90670119D01*
X67540476Y-90765357D01*
X67540476Y-90908214D01*
X67492857Y-91003452D01*
X67445238Y-91051071D01*
X67350000Y-91098690D01*
X66969047Y-91098690D01*
X67969047Y-91574880D02*
X67969047Y-90574880D01*
X68445238Y-91574880D02*
X68445238Y-90574880D01*
X68826190Y-90574880D01*
X68921428Y-90622500D01*
X68969047Y-90670119D01*
X69016666Y-90765357D01*
X69016666Y-90908214D01*
X68969047Y-91003452D01*
X68921428Y-91051071D01*
X68826190Y-91098690D01*
X68445238Y-91098690D01*
X69445238Y-91051071D02*
X69778571Y-91051071D01*
X69921428Y-91574880D02*
X69445238Y-91574880D01*
X69445238Y-90574880D01*
X69921428Y-90574880D01*
X70873809Y-91574880D02*
X70302380Y-91574880D01*
X70588095Y-91574880D02*
X70588095Y-90574880D01*
X70492857Y-90717738D01*
X70397619Y-90812976D01*
X70302380Y-90860595D01*
X71778571Y-90574880D02*
X71302380Y-90574880D01*
X71254761Y-91051071D01*
X71302380Y-91003452D01*
X71397619Y-90955833D01*
X71635714Y-90955833D01*
X71730952Y-91003452D01*
X71778571Y-91051071D01*
X71826190Y-91146309D01*
X71826190Y-91384404D01*
X71778571Y-91479642D01*
X71730952Y-91527261D01*
X71635714Y-91574880D01*
X71397619Y-91574880D01*
X71302380Y-91527261D01*
X71254761Y-91479642D01*
X72445238Y-90574880D02*
X72540476Y-90574880D01*
X72635714Y-90622500D01*
X72683333Y-90670119D01*
X72730952Y-90765357D01*
X72778571Y-90955833D01*
X72778571Y-91193928D01*
X72730952Y-91384404D01*
X72683333Y-91479642D01*
X72635714Y-91527261D01*
X72540476Y-91574880D01*
X72445238Y-91574880D01*
X72350000Y-91527261D01*
X72302380Y-91479642D01*
X72254761Y-91384404D01*
X72207142Y-91193928D01*
X72207142Y-90955833D01*
X72254761Y-90765357D01*
X72302380Y-90670119D01*
X72350000Y-90622500D01*
X72445238Y-90574880D01*
%TO.C,SW43*%
X317983005Y-125817261D02*
X318119910Y-125864880D01*
X318358005Y-125864880D01*
X318459196Y-125817261D01*
X318512767Y-125769642D01*
X318572291Y-125674404D01*
X318584196Y-125579166D01*
X318548482Y-125483928D01*
X318506815Y-125436309D01*
X318417529Y-125388690D01*
X318233005Y-125341071D01*
X318143720Y-125293452D01*
X318102053Y-125245833D01*
X318066339Y-125150595D01*
X318078244Y-125055357D01*
X318137767Y-124960119D01*
X318191339Y-124912500D01*
X318292529Y-124864880D01*
X318530625Y-124864880D01*
X318667529Y-124912500D01*
X319006815Y-124864880D02*
X319119910Y-125864880D01*
X319399672Y-125150595D01*
X319500863Y-125864880D01*
X319863958Y-124864880D01*
X320631815Y-125198214D02*
X320548482Y-125864880D01*
X320441339Y-124817261D02*
X320113958Y-125531547D01*
X320733005Y-125531547D01*
X321102053Y-124864880D02*
X321721101Y-124864880D01*
X321340148Y-125245833D01*
X321483005Y-125245833D01*
X321572291Y-125293452D01*
X321613958Y-125341071D01*
X321649672Y-125436309D01*
X321619910Y-125674404D01*
X321560386Y-125769642D01*
X321506815Y-125817261D01*
X321405625Y-125864880D01*
X321119910Y-125864880D01*
X321030625Y-125817261D01*
X320988958Y-125769642D01*
X316714583Y-131389880D02*
X316238392Y-131389880D01*
X316238392Y-130389880D01*
X317000297Y-131342261D02*
X317143154Y-131389880D01*
X317381250Y-131389880D01*
X317476488Y-131342261D01*
X317524107Y-131294642D01*
X317571726Y-131199404D01*
X317571726Y-131104166D01*
X317524107Y-131008928D01*
X317476488Y-130961309D01*
X317381250Y-130913690D01*
X317190773Y-130866071D01*
X317095535Y-130818452D01*
X317047916Y-130770833D01*
X317000297Y-130675595D01*
X317000297Y-130580357D01*
X317047916Y-130485119D01*
X317095535Y-130437500D01*
X317190773Y-130389880D01*
X317428869Y-130389880D01*
X317571726Y-130437500D01*
X318000297Y-131389880D02*
X318000297Y-130389880D01*
X318000297Y-130866071D02*
X318571726Y-130866071D01*
X318571726Y-131389880D02*
X318571726Y-130389880D01*
X319047916Y-131389880D02*
X319047916Y-130389880D01*
X319857440Y-130866071D02*
X319524107Y-130866071D01*
X319524107Y-131389880D02*
X319524107Y-130389880D01*
X320000297Y-130389880D01*
X320238392Y-130389880D02*
X320809821Y-130389880D01*
X320524107Y-131389880D02*
X320524107Y-130389880D01*
X321095535Y-130485119D02*
X321143154Y-130437500D01*
X321238392Y-130389880D01*
X321476488Y-130389880D01*
X321571726Y-130437500D01*
X321619345Y-130485119D01*
X321666964Y-130580357D01*
X321666964Y-130675595D01*
X321619345Y-130818452D01*
X321047916Y-131389880D01*
X321666964Y-131389880D01*
X322047916Y-130485119D02*
X322095535Y-130437500D01*
X322190773Y-130389880D01*
X322428869Y-130389880D01*
X322524107Y-130437500D01*
X322571726Y-130485119D01*
X322619345Y-130580357D01*
X322619345Y-130675595D01*
X322571726Y-130818452D01*
X322000297Y-131389880D01*
X322619345Y-131389880D01*
X323524107Y-130389880D02*
X323047916Y-130389880D01*
X323000297Y-130866071D01*
X323047916Y-130818452D01*
X323143154Y-130770833D01*
X323381250Y-130770833D01*
X323476488Y-130818452D01*
X323524107Y-130866071D01*
X323571726Y-130961309D01*
X323571726Y-131199404D01*
X323524107Y-131294642D01*
X323476488Y-131342261D01*
X323381250Y-131389880D01*
X323143154Y-131389880D01*
X323047916Y-131342261D01*
X323000297Y-131294642D01*
%TO.C,SW45*%
X287026755Y-127142261D02*
X287163660Y-127189880D01*
X287401755Y-127189880D01*
X287502946Y-127142261D01*
X287556517Y-127094642D01*
X287616041Y-126999404D01*
X287627946Y-126904166D01*
X287592232Y-126808928D01*
X287550565Y-126761309D01*
X287461279Y-126713690D01*
X287276755Y-126666071D01*
X287187470Y-126618452D01*
X287145803Y-126570833D01*
X287110089Y-126475595D01*
X287121994Y-126380357D01*
X287181517Y-126285119D01*
X287235089Y-126237500D01*
X287336279Y-126189880D01*
X287574375Y-126189880D01*
X287711279Y-126237500D01*
X288050565Y-126189880D02*
X288163660Y-127189880D01*
X288443422Y-126475595D01*
X288544613Y-127189880D01*
X288907708Y-126189880D01*
X289675565Y-126523214D02*
X289592232Y-127189880D01*
X289485089Y-126142261D02*
X289157708Y-126856547D01*
X289776755Y-126856547D01*
X290717232Y-126189880D02*
X290241041Y-126189880D01*
X290133898Y-126666071D01*
X290187470Y-126618452D01*
X290288660Y-126570833D01*
X290526755Y-126570833D01*
X290616041Y-126618452D01*
X290657708Y-126666071D01*
X290693422Y-126761309D01*
X290663660Y-126999404D01*
X290604136Y-127094642D01*
X290550565Y-127142261D01*
X290449375Y-127189880D01*
X290211279Y-127189880D01*
X290121994Y-127142261D01*
X290080327Y-127094642D01*
X288591666Y-127689880D02*
X289258333Y-127689880D01*
X288591666Y-128689880D01*
X289258333Y-128689880D01*
%TO.C,SW46*%
X267976755Y-127142261D02*
X268113660Y-127189880D01*
X268351755Y-127189880D01*
X268452946Y-127142261D01*
X268506517Y-127094642D01*
X268566041Y-126999404D01*
X268577946Y-126904166D01*
X268542232Y-126808928D01*
X268500565Y-126761309D01*
X268411279Y-126713690D01*
X268226755Y-126666071D01*
X268137470Y-126618452D01*
X268095803Y-126570833D01*
X268060089Y-126475595D01*
X268071994Y-126380357D01*
X268131517Y-126285119D01*
X268185089Y-126237500D01*
X268286279Y-126189880D01*
X268524375Y-126189880D01*
X268661279Y-126237500D01*
X269000565Y-126189880D02*
X269113660Y-127189880D01*
X269393422Y-126475595D01*
X269494613Y-127189880D01*
X269857708Y-126189880D01*
X270625565Y-126523214D02*
X270542232Y-127189880D01*
X270435089Y-126142261D02*
X270107708Y-126856547D01*
X270726755Y-126856547D01*
X271619613Y-126189880D02*
X271429136Y-126189880D01*
X271327946Y-126237500D01*
X271274375Y-126285119D01*
X271161279Y-126427976D01*
X271089851Y-126618452D01*
X271042232Y-126999404D01*
X271077946Y-127094642D01*
X271119613Y-127142261D01*
X271208898Y-127189880D01*
X271399375Y-127189880D01*
X271500565Y-127142261D01*
X271554136Y-127094642D01*
X271613660Y-126999404D01*
X271643422Y-126761309D01*
X271607708Y-126666071D01*
X271566041Y-126618452D01*
X271476755Y-126570833D01*
X271286279Y-126570833D01*
X271185089Y-126618452D01*
X271131517Y-126666071D01*
X271071994Y-126761309D01*
X269541666Y-127689880D02*
X270208333Y-128689880D01*
X270208333Y-127689880D02*
X269541666Y-128689880D01*
%TO.C,SW49*%
X210826755Y-127142261D02*
X210963660Y-127189880D01*
X211201755Y-127189880D01*
X211302946Y-127142261D01*
X211356517Y-127094642D01*
X211416041Y-126999404D01*
X211427946Y-126904166D01*
X211392232Y-126808928D01*
X211350565Y-126761309D01*
X211261279Y-126713690D01*
X211076755Y-126666071D01*
X210987470Y-126618452D01*
X210945803Y-126570833D01*
X210910089Y-126475595D01*
X210921994Y-126380357D01*
X210981517Y-126285119D01*
X211035089Y-126237500D01*
X211136279Y-126189880D01*
X211374375Y-126189880D01*
X211511279Y-126237500D01*
X211850565Y-126189880D02*
X211963660Y-127189880D01*
X212243422Y-126475595D01*
X212344613Y-127189880D01*
X212707708Y-126189880D01*
X213475565Y-126523214D02*
X213392232Y-127189880D01*
X213285089Y-126142261D02*
X212957708Y-126856547D01*
X213576755Y-126856547D01*
X213963660Y-127189880D02*
X214154136Y-127189880D01*
X214255327Y-127142261D01*
X214308898Y-127094642D01*
X214421994Y-126951785D01*
X214493422Y-126761309D01*
X214541041Y-126380357D01*
X214505327Y-126285119D01*
X214463660Y-126237500D01*
X214374375Y-126189880D01*
X214183898Y-126189880D01*
X214082708Y-126237500D01*
X214029136Y-126285119D01*
X213969613Y-126380357D01*
X213939851Y-126618452D01*
X213975565Y-126713690D01*
X214017232Y-126761309D01*
X214106517Y-126808928D01*
X214296994Y-126808928D01*
X214398184Y-126761309D01*
X214451755Y-126713690D01*
X214511279Y-126618452D01*
X212796428Y-128166071D02*
X212939285Y-128213690D01*
X212986904Y-128261309D01*
X213034523Y-128356547D01*
X213034523Y-128499404D01*
X212986904Y-128594642D01*
X212939285Y-128642261D01*
X212844047Y-128689880D01*
X212463095Y-128689880D01*
X212463095Y-127689880D01*
X212796428Y-127689880D01*
X212891666Y-127737500D01*
X212939285Y-127785119D01*
X212986904Y-127880357D01*
X212986904Y-127975595D01*
X212939285Y-128070833D01*
X212891666Y-128118452D01*
X212796428Y-128166071D01*
X212463095Y-128166071D01*
%TO.C,SW50*%
X191776755Y-127142261D02*
X191913660Y-127189880D01*
X192151755Y-127189880D01*
X192252946Y-127142261D01*
X192306517Y-127094642D01*
X192366041Y-126999404D01*
X192377946Y-126904166D01*
X192342232Y-126808928D01*
X192300565Y-126761309D01*
X192211279Y-126713690D01*
X192026755Y-126666071D01*
X191937470Y-126618452D01*
X191895803Y-126570833D01*
X191860089Y-126475595D01*
X191871994Y-126380357D01*
X191931517Y-126285119D01*
X191985089Y-126237500D01*
X192086279Y-126189880D01*
X192324375Y-126189880D01*
X192461279Y-126237500D01*
X192800565Y-126189880D02*
X192913660Y-127189880D01*
X193193422Y-126475595D01*
X193294613Y-127189880D01*
X193657708Y-126189880D01*
X194514851Y-126189880D02*
X194038660Y-126189880D01*
X193931517Y-126666071D01*
X193985089Y-126618452D01*
X194086279Y-126570833D01*
X194324375Y-126570833D01*
X194413660Y-126618452D01*
X194455327Y-126666071D01*
X194491041Y-126761309D01*
X194461279Y-126999404D01*
X194401755Y-127094642D01*
X194348184Y-127142261D01*
X194246994Y-127189880D01*
X194008898Y-127189880D01*
X193919613Y-127142261D01*
X193877946Y-127094642D01*
X195181517Y-126189880D02*
X195276755Y-126189880D01*
X195366041Y-126237500D01*
X195407708Y-126285119D01*
X195443422Y-126380357D01*
X195467232Y-126570833D01*
X195437470Y-126808928D01*
X195366041Y-126999404D01*
X195306517Y-127094642D01*
X195252946Y-127142261D01*
X195151755Y-127189880D01*
X195056517Y-127189880D01*
X194967232Y-127142261D01*
X194925565Y-127094642D01*
X194889851Y-126999404D01*
X194866041Y-126808928D01*
X194895803Y-126570833D01*
X194967232Y-126380357D01*
X195026755Y-126285119D01*
X195080327Y-126237500D01*
X195181517Y-126189880D01*
X193389285Y-128689880D02*
X193389285Y-127689880D01*
X193960714Y-128689880D01*
X193960714Y-127689880D01*
%TO.C,SW51*%
X172726755Y-127142261D02*
X172863660Y-127189880D01*
X173101755Y-127189880D01*
X173202946Y-127142261D01*
X173256517Y-127094642D01*
X173316041Y-126999404D01*
X173327946Y-126904166D01*
X173292232Y-126808928D01*
X173250565Y-126761309D01*
X173161279Y-126713690D01*
X172976755Y-126666071D01*
X172887470Y-126618452D01*
X172845803Y-126570833D01*
X172810089Y-126475595D01*
X172821994Y-126380357D01*
X172881517Y-126285119D01*
X172935089Y-126237500D01*
X173036279Y-126189880D01*
X173274375Y-126189880D01*
X173411279Y-126237500D01*
X173750565Y-126189880D02*
X173863660Y-127189880D01*
X174143422Y-126475595D01*
X174244613Y-127189880D01*
X174607708Y-126189880D01*
X175464851Y-126189880D02*
X174988660Y-126189880D01*
X174881517Y-126666071D01*
X174935089Y-126618452D01*
X175036279Y-126570833D01*
X175274375Y-126570833D01*
X175363660Y-126618452D01*
X175405327Y-126666071D01*
X175441041Y-126761309D01*
X175411279Y-126999404D01*
X175351755Y-127094642D01*
X175298184Y-127142261D01*
X175196994Y-127189880D01*
X174958898Y-127189880D01*
X174869613Y-127142261D01*
X174827946Y-127094642D01*
X176339851Y-127189880D02*
X175768422Y-127189880D01*
X176054136Y-127189880D02*
X176179136Y-126189880D01*
X176066041Y-126332738D01*
X175958898Y-126427976D01*
X175857708Y-126475595D01*
X174291666Y-128689880D02*
X174291666Y-127689880D01*
X174625000Y-128404166D01*
X174958333Y-127689880D01*
X174958333Y-128689880D01*
%TO.C,SW52*%
X153676755Y-127142261D02*
X153813660Y-127189880D01*
X154051755Y-127189880D01*
X154152946Y-127142261D01*
X154206517Y-127094642D01*
X154266041Y-126999404D01*
X154277946Y-126904166D01*
X154242232Y-126808928D01*
X154200565Y-126761309D01*
X154111279Y-126713690D01*
X153926755Y-126666071D01*
X153837470Y-126618452D01*
X153795803Y-126570833D01*
X153760089Y-126475595D01*
X153771994Y-126380357D01*
X153831517Y-126285119D01*
X153885089Y-126237500D01*
X153986279Y-126189880D01*
X154224375Y-126189880D01*
X154361279Y-126237500D01*
X154700565Y-126189880D02*
X154813660Y-127189880D01*
X155093422Y-126475595D01*
X155194613Y-127189880D01*
X155557708Y-126189880D01*
X156414851Y-126189880D02*
X155938660Y-126189880D01*
X155831517Y-126666071D01*
X155885089Y-126618452D01*
X155986279Y-126570833D01*
X156224375Y-126570833D01*
X156313660Y-126618452D01*
X156355327Y-126666071D01*
X156391041Y-126761309D01*
X156361279Y-126999404D01*
X156301755Y-127094642D01*
X156248184Y-127142261D01*
X156146994Y-127189880D01*
X155908898Y-127189880D01*
X155819613Y-127142261D01*
X155777946Y-127094642D01*
X156831517Y-126285119D02*
X156885089Y-126237500D01*
X156986279Y-126189880D01*
X157224375Y-126189880D01*
X157313660Y-126237500D01*
X157355327Y-126285119D01*
X157391041Y-126380357D01*
X157379136Y-126475595D01*
X157313660Y-126618452D01*
X156670803Y-127189880D01*
X157289851Y-127189880D01*
X155955952Y-128023214D02*
X155194047Y-128308928D01*
X155955952Y-128594642D01*
%TO.C,SW53*%
X134626755Y-127142261D02*
X134763660Y-127189880D01*
X135001755Y-127189880D01*
X135102946Y-127142261D01*
X135156517Y-127094642D01*
X135216041Y-126999404D01*
X135227946Y-126904166D01*
X135192232Y-126808928D01*
X135150565Y-126761309D01*
X135061279Y-126713690D01*
X134876755Y-126666071D01*
X134787470Y-126618452D01*
X134745803Y-126570833D01*
X134710089Y-126475595D01*
X134721994Y-126380357D01*
X134781517Y-126285119D01*
X134835089Y-126237500D01*
X134936279Y-126189880D01*
X135174375Y-126189880D01*
X135311279Y-126237500D01*
X135650565Y-126189880D02*
X135763660Y-127189880D01*
X136043422Y-126475595D01*
X136144613Y-127189880D01*
X136507708Y-126189880D01*
X137364851Y-126189880D02*
X136888660Y-126189880D01*
X136781517Y-126666071D01*
X136835089Y-126618452D01*
X136936279Y-126570833D01*
X137174375Y-126570833D01*
X137263660Y-126618452D01*
X137305327Y-126666071D01*
X137341041Y-126761309D01*
X137311279Y-126999404D01*
X137251755Y-127094642D01*
X137198184Y-127142261D01*
X137096994Y-127189880D01*
X136858898Y-127189880D01*
X136769613Y-127142261D01*
X136727946Y-127094642D01*
X137745803Y-126189880D02*
X138364851Y-126189880D01*
X137983898Y-126570833D01*
X138126755Y-126570833D01*
X138216041Y-126618452D01*
X138257708Y-126666071D01*
X138293422Y-126761309D01*
X138263660Y-126999404D01*
X138204136Y-127094642D01*
X138150565Y-127142261D01*
X138049375Y-127189880D01*
X137763660Y-127189880D01*
X137674375Y-127142261D01*
X137632708Y-127094642D01*
X136144047Y-128023214D02*
X136905952Y-128308928D01*
X136144047Y-128594642D01*
%TO.C,SW54*%
X115576755Y-127142261D02*
X115713660Y-127189880D01*
X115951755Y-127189880D01*
X116052946Y-127142261D01*
X116106517Y-127094642D01*
X116166041Y-126999404D01*
X116177946Y-126904166D01*
X116142232Y-126808928D01*
X116100565Y-126761309D01*
X116011279Y-126713690D01*
X115826755Y-126666071D01*
X115737470Y-126618452D01*
X115695803Y-126570833D01*
X115660089Y-126475595D01*
X115671994Y-126380357D01*
X115731517Y-126285119D01*
X115785089Y-126237500D01*
X115886279Y-126189880D01*
X116124375Y-126189880D01*
X116261279Y-126237500D01*
X116600565Y-126189880D02*
X116713660Y-127189880D01*
X116993422Y-126475595D01*
X117094613Y-127189880D01*
X117457708Y-126189880D01*
X118314851Y-126189880D02*
X117838660Y-126189880D01*
X117731517Y-126666071D01*
X117785089Y-126618452D01*
X117886279Y-126570833D01*
X118124375Y-126570833D01*
X118213660Y-126618452D01*
X118255327Y-126666071D01*
X118291041Y-126761309D01*
X118261279Y-126999404D01*
X118201755Y-127094642D01*
X118148184Y-127142261D01*
X118046994Y-127189880D01*
X117808898Y-127189880D01*
X117719613Y-127142261D01*
X117677946Y-127094642D01*
X119177946Y-126523214D02*
X119094613Y-127189880D01*
X118987470Y-126142261D02*
X118660089Y-126856547D01*
X119279136Y-126856547D01*
X117427380Y-128594642D02*
X117475000Y-128642261D01*
X117427380Y-128689880D01*
X117379761Y-128642261D01*
X117427380Y-128594642D01*
X117427380Y-128689880D01*
X117236904Y-127737500D02*
X117332142Y-127689880D01*
X117570238Y-127689880D01*
X117665476Y-127737500D01*
X117713095Y-127832738D01*
X117713095Y-127927976D01*
X117665476Y-128023214D01*
X117617857Y-128070833D01*
X117522619Y-128118452D01*
X117475000Y-128166071D01*
X117427380Y-128261309D01*
X117427380Y-128308928D01*
%TO.C,SW55*%
X79858005Y-125817261D02*
X79994910Y-125864880D01*
X80233005Y-125864880D01*
X80334196Y-125817261D01*
X80387767Y-125769642D01*
X80447291Y-125674404D01*
X80459196Y-125579166D01*
X80423482Y-125483928D01*
X80381815Y-125436309D01*
X80292529Y-125388690D01*
X80108005Y-125341071D01*
X80018720Y-125293452D01*
X79977053Y-125245833D01*
X79941339Y-125150595D01*
X79953244Y-125055357D01*
X80012767Y-124960119D01*
X80066339Y-124912500D01*
X80167529Y-124864880D01*
X80405625Y-124864880D01*
X80542529Y-124912500D01*
X80881815Y-124864880D02*
X80994910Y-125864880D01*
X81274672Y-125150595D01*
X81375863Y-125864880D01*
X81738958Y-124864880D01*
X82596101Y-124864880D02*
X82119910Y-124864880D01*
X82012767Y-125341071D01*
X82066339Y-125293452D01*
X82167529Y-125245833D01*
X82405625Y-125245833D01*
X82494910Y-125293452D01*
X82536577Y-125341071D01*
X82572291Y-125436309D01*
X82542529Y-125674404D01*
X82483005Y-125769642D01*
X82429434Y-125817261D01*
X82328244Y-125864880D01*
X82090148Y-125864880D01*
X82000863Y-125817261D01*
X81959196Y-125769642D01*
X83548482Y-124864880D02*
X83072291Y-124864880D01*
X82965148Y-125341071D01*
X83018720Y-125293452D01*
X83119910Y-125245833D01*
X83358005Y-125245833D01*
X83447291Y-125293452D01*
X83488958Y-125341071D01*
X83524672Y-125436309D01*
X83494910Y-125674404D01*
X83435386Y-125769642D01*
X83381815Y-125817261D01*
X83280625Y-125864880D01*
X83042529Y-125864880D01*
X82953244Y-125817261D01*
X82911577Y-125769642D01*
X78589583Y-131389880D02*
X78256250Y-130913690D01*
X78018154Y-131389880D02*
X78018154Y-130389880D01*
X78399107Y-130389880D01*
X78494345Y-130437500D01*
X78541964Y-130485119D01*
X78589583Y-130580357D01*
X78589583Y-130723214D01*
X78541964Y-130818452D01*
X78494345Y-130866071D01*
X78399107Y-130913690D01*
X78018154Y-130913690D01*
X78970535Y-131342261D02*
X79113392Y-131389880D01*
X79351488Y-131389880D01*
X79446726Y-131342261D01*
X79494345Y-131294642D01*
X79541964Y-131199404D01*
X79541964Y-131104166D01*
X79494345Y-131008928D01*
X79446726Y-130961309D01*
X79351488Y-130913690D01*
X79161011Y-130866071D01*
X79065773Y-130818452D01*
X79018154Y-130770833D01*
X78970535Y-130675595D01*
X78970535Y-130580357D01*
X79018154Y-130485119D01*
X79065773Y-130437500D01*
X79161011Y-130389880D01*
X79399107Y-130389880D01*
X79541964Y-130437500D01*
X79970535Y-131389880D02*
X79970535Y-130389880D01*
X79970535Y-130866071D02*
X80541964Y-130866071D01*
X80541964Y-131389880D02*
X80541964Y-130389880D01*
X81018154Y-131389880D02*
X81018154Y-130389880D01*
X81827678Y-130866071D02*
X81494345Y-130866071D01*
X81494345Y-131389880D02*
X81494345Y-130389880D01*
X81970535Y-130389880D01*
X82208630Y-130389880D02*
X82780059Y-130389880D01*
X82494345Y-131389880D02*
X82494345Y-130389880D01*
X83065773Y-130485119D02*
X83113392Y-130437500D01*
X83208630Y-130389880D01*
X83446726Y-130389880D01*
X83541964Y-130437500D01*
X83589583Y-130485119D01*
X83637202Y-130580357D01*
X83637202Y-130675595D01*
X83589583Y-130818452D01*
X83018154Y-131389880D01*
X83637202Y-131389880D01*
X83970535Y-130389880D02*
X84637202Y-130389880D01*
X84208630Y-131389880D01*
X85494345Y-130389880D02*
X85018154Y-130389880D01*
X84970535Y-130866071D01*
X85018154Y-130818452D01*
X85113392Y-130770833D01*
X85351488Y-130770833D01*
X85446726Y-130818452D01*
X85494345Y-130866071D01*
X85541964Y-130961309D01*
X85541964Y-131199404D01*
X85494345Y-131294642D01*
X85446726Y-131342261D01*
X85351488Y-131389880D01*
X85113392Y-131389880D01*
X85018154Y-131342261D01*
X84970535Y-131294642D01*
%TO.C,SW56*%
X63189255Y-127142261D02*
X63326160Y-127189880D01*
X63564255Y-127189880D01*
X63665446Y-127142261D01*
X63719017Y-127094642D01*
X63778541Y-126999404D01*
X63790446Y-126904166D01*
X63754732Y-126808928D01*
X63713065Y-126761309D01*
X63623779Y-126713690D01*
X63439255Y-126666071D01*
X63349970Y-126618452D01*
X63308303Y-126570833D01*
X63272589Y-126475595D01*
X63284494Y-126380357D01*
X63344017Y-126285119D01*
X63397589Y-126237500D01*
X63498779Y-126189880D01*
X63736875Y-126189880D01*
X63873779Y-126237500D01*
X64213065Y-126189880D02*
X64326160Y-127189880D01*
X64605922Y-126475595D01*
X64707113Y-127189880D01*
X65070208Y-126189880D01*
X65927351Y-126189880D02*
X65451160Y-126189880D01*
X65344017Y-126666071D01*
X65397589Y-126618452D01*
X65498779Y-126570833D01*
X65736875Y-126570833D01*
X65826160Y-126618452D01*
X65867827Y-126666071D01*
X65903541Y-126761309D01*
X65873779Y-126999404D01*
X65814255Y-127094642D01*
X65760684Y-127142261D01*
X65659494Y-127189880D01*
X65421398Y-127189880D01*
X65332113Y-127142261D01*
X65290446Y-127094642D01*
X66832113Y-126189880D02*
X66641636Y-126189880D01*
X66540446Y-126237500D01*
X66486875Y-126285119D01*
X66373779Y-126427976D01*
X66302351Y-126618452D01*
X66254732Y-126999404D01*
X66290446Y-127094642D01*
X66332113Y-127142261D01*
X66421398Y-127189880D01*
X66611875Y-127189880D01*
X66713065Y-127142261D01*
X66766636Y-127094642D01*
X66826160Y-126999404D01*
X66855922Y-126761309D01*
X66820208Y-126666071D01*
X66778541Y-126618452D01*
X66689255Y-126570833D01*
X66498779Y-126570833D01*
X66397589Y-126618452D01*
X66344017Y-126666071D01*
X66284494Y-126761309D01*
X64706547Y-128166071D02*
X64373214Y-128166071D01*
X64373214Y-128689880D02*
X64373214Y-127689880D01*
X64849404Y-127689880D01*
X65230357Y-128689880D02*
X65230357Y-127689880D01*
X65801785Y-128689880D01*
X65801785Y-127689880D01*
%TO.C,SW61*%
X139389255Y-144867261D02*
X139526160Y-144914880D01*
X139764255Y-144914880D01*
X139865446Y-144867261D01*
X139919017Y-144819642D01*
X139978541Y-144724404D01*
X139990446Y-144629166D01*
X139954732Y-144533928D01*
X139913065Y-144486309D01*
X139823779Y-144438690D01*
X139639255Y-144391071D01*
X139549970Y-144343452D01*
X139508303Y-144295833D01*
X139472589Y-144200595D01*
X139484494Y-144105357D01*
X139544017Y-144010119D01*
X139597589Y-143962500D01*
X139698779Y-143914880D01*
X139936875Y-143914880D01*
X140073779Y-143962500D01*
X140413065Y-143914880D02*
X140526160Y-144914880D01*
X140805922Y-144200595D01*
X140907113Y-144914880D01*
X141270208Y-143914880D01*
X142079732Y-143914880D02*
X141889255Y-143914880D01*
X141788065Y-143962500D01*
X141734494Y-144010119D01*
X141621398Y-144152976D01*
X141549970Y-144343452D01*
X141502351Y-144724404D01*
X141538065Y-144819642D01*
X141579732Y-144867261D01*
X141669017Y-144914880D01*
X141859494Y-144914880D01*
X141960684Y-144867261D01*
X142014255Y-144819642D01*
X142073779Y-144724404D01*
X142103541Y-144486309D01*
X142067827Y-144391071D01*
X142026160Y-144343452D01*
X141936875Y-144295833D01*
X141746398Y-144295833D01*
X141645208Y-144343452D01*
X141591636Y-144391071D01*
X141532113Y-144486309D01*
X143002351Y-144914880D02*
X142430922Y-144914880D01*
X142716636Y-144914880D02*
X142841636Y-143914880D01*
X142728541Y-144057738D01*
X142621398Y-144152976D01*
X142520208Y-144200595D01*
X140430357Y-149852071D02*
X140097023Y-149852071D01*
X140097023Y-150375880D02*
X140097023Y-149375880D01*
X140573214Y-149375880D01*
X140954166Y-150375880D02*
X140954166Y-149375880D01*
X141525595Y-150375880D01*
X141525595Y-149375880D01*
X141954166Y-149471119D02*
X142001785Y-149423500D01*
X142097023Y-149375880D01*
X142335119Y-149375880D01*
X142430357Y-149423500D01*
X142477976Y-149471119D01*
X142525595Y-149566357D01*
X142525595Y-149661595D01*
X142477976Y-149804452D01*
X141906547Y-150375880D01*
X142525595Y-150375880D01*
%TO.C,SW65*%
X82239255Y-69992261D02*
X82376160Y-70039880D01*
X82614255Y-70039880D01*
X82715446Y-69992261D01*
X82769017Y-69944642D01*
X82828541Y-69849404D01*
X82840446Y-69754166D01*
X82804732Y-69658928D01*
X82763065Y-69611309D01*
X82673779Y-69563690D01*
X82489255Y-69516071D01*
X82399970Y-69468452D01*
X82358303Y-69420833D01*
X82322589Y-69325595D01*
X82334494Y-69230357D01*
X82394017Y-69135119D01*
X82447589Y-69087500D01*
X82548779Y-69039880D01*
X82786875Y-69039880D01*
X82923779Y-69087500D01*
X83263065Y-69039880D02*
X83376160Y-70039880D01*
X83655922Y-69325595D01*
X83757113Y-70039880D01*
X84120208Y-69039880D01*
X84929732Y-69039880D02*
X84739255Y-69039880D01*
X84638065Y-69087500D01*
X84584494Y-69135119D01*
X84471398Y-69277976D01*
X84399970Y-69468452D01*
X84352351Y-69849404D01*
X84388065Y-69944642D01*
X84429732Y-69992261D01*
X84519017Y-70039880D01*
X84709494Y-70039880D01*
X84810684Y-69992261D01*
X84864255Y-69944642D01*
X84923779Y-69849404D01*
X84953541Y-69611309D01*
X84917827Y-69516071D01*
X84876160Y-69468452D01*
X84786875Y-69420833D01*
X84596398Y-69420833D01*
X84495208Y-69468452D01*
X84441636Y-69516071D01*
X84382113Y-69611309D01*
X85929732Y-69039880D02*
X85453541Y-69039880D01*
X85346398Y-69516071D01*
X85399970Y-69468452D01*
X85501160Y-69420833D01*
X85739255Y-69420833D01*
X85828541Y-69468452D01*
X85870208Y-69516071D01*
X85905922Y-69611309D01*
X85876160Y-69849404D01*
X85816636Y-69944642D01*
X85763065Y-69992261D01*
X85661875Y-70039880D01*
X85423779Y-70039880D01*
X85334494Y-69992261D01*
X85292827Y-69944642D01*
X80208928Y-71539880D02*
X79637500Y-71539880D01*
X79923214Y-71539880D02*
X79923214Y-70539880D01*
X79827976Y-70682738D01*
X79732738Y-70777976D01*
X79637500Y-70825595D01*
X80637500Y-70539880D02*
X80637500Y-71349404D01*
X80685119Y-71444642D01*
X80732738Y-71492261D01*
X80827976Y-71539880D01*
X81018452Y-71539880D01*
X81113690Y-71492261D01*
X81161309Y-71444642D01*
X81208928Y-71349404D01*
X81208928Y-70539880D01*
X82923214Y-71539880D02*
X82447023Y-71539880D01*
X82447023Y-70539880D01*
X83589880Y-71016071D02*
X83732738Y-71063690D01*
X83780357Y-71111309D01*
X83827976Y-71206547D01*
X83827976Y-71349404D01*
X83780357Y-71444642D01*
X83732738Y-71492261D01*
X83637500Y-71539880D01*
X83256547Y-71539880D01*
X83256547Y-70539880D01*
X83589880Y-70539880D01*
X83685119Y-70587500D01*
X83732738Y-70635119D01*
X83780357Y-70730357D01*
X83780357Y-70825595D01*
X83732738Y-70920833D01*
X83685119Y-70968452D01*
X83589880Y-71016071D01*
X83256547Y-71016071D01*
X84208928Y-71254166D02*
X84685119Y-71254166D01*
X84113690Y-71539880D02*
X84447023Y-70539880D01*
X84780357Y-71539880D01*
X85685119Y-71444642D02*
X85637500Y-71492261D01*
X85494642Y-71539880D01*
X85399404Y-71539880D01*
X85256547Y-71492261D01*
X85161309Y-71397023D01*
X85113690Y-71301785D01*
X85066071Y-71111309D01*
X85066071Y-70968452D01*
X85113690Y-70777976D01*
X85161309Y-70682738D01*
X85256547Y-70587500D01*
X85399404Y-70539880D01*
X85494642Y-70539880D01*
X85637500Y-70587500D01*
X85685119Y-70635119D01*
X86113690Y-71539880D02*
X86113690Y-70539880D01*
X86685119Y-71539880D02*
X86256547Y-70968452D01*
X86685119Y-70539880D02*
X86113690Y-71111309D01*
X87066071Y-71492261D02*
X87208928Y-71539880D01*
X87447023Y-71539880D01*
X87542261Y-71492261D01*
X87589880Y-71444642D01*
X87637500Y-71349404D01*
X87637500Y-71254166D01*
X87589880Y-71158928D01*
X87542261Y-71111309D01*
X87447023Y-71063690D01*
X87256547Y-71016071D01*
X87161309Y-70968452D01*
X87113690Y-70920833D01*
X87066071Y-70825595D01*
X87066071Y-70730357D01*
X87113690Y-70635119D01*
X87161309Y-70587500D01*
X87256547Y-70539880D01*
X87494642Y-70539880D01*
X87637500Y-70587500D01*
X88066071Y-71539880D02*
X88066071Y-70539880D01*
X88447023Y-70539880D01*
X88542261Y-70587500D01*
X88589880Y-70635119D01*
X88637500Y-70730357D01*
X88637500Y-70873214D01*
X88589880Y-70968452D01*
X88542261Y-71016071D01*
X88447023Y-71063690D01*
X88066071Y-71063690D01*
%TO.C,SW69*%
X89383005Y-125817261D02*
X89519910Y-125864880D01*
X89758005Y-125864880D01*
X89859196Y-125817261D01*
X89912767Y-125769642D01*
X89972291Y-125674404D01*
X89984196Y-125579166D01*
X89948482Y-125483928D01*
X89906815Y-125436309D01*
X89817529Y-125388690D01*
X89633005Y-125341071D01*
X89543720Y-125293452D01*
X89502053Y-125245833D01*
X89466339Y-125150595D01*
X89478244Y-125055357D01*
X89537767Y-124960119D01*
X89591339Y-124912500D01*
X89692529Y-124864880D01*
X89930625Y-124864880D01*
X90067529Y-124912500D01*
X90406815Y-124864880D02*
X90519910Y-125864880D01*
X90799672Y-125150595D01*
X90900863Y-125864880D01*
X91263958Y-124864880D01*
X92073482Y-124864880D02*
X91883005Y-124864880D01*
X91781815Y-124912500D01*
X91728244Y-124960119D01*
X91615148Y-125102976D01*
X91543720Y-125293452D01*
X91496101Y-125674404D01*
X91531815Y-125769642D01*
X91573482Y-125817261D01*
X91662767Y-125864880D01*
X91853244Y-125864880D01*
X91954434Y-125817261D01*
X92008005Y-125769642D01*
X92067529Y-125674404D01*
X92097291Y-125436309D01*
X92061577Y-125341071D01*
X92019910Y-125293452D01*
X91930625Y-125245833D01*
X91740148Y-125245833D01*
X91638958Y-125293452D01*
X91585386Y-125341071D01*
X91525863Y-125436309D01*
X92519910Y-125864880D02*
X92710386Y-125864880D01*
X92811577Y-125817261D01*
X92865148Y-125769642D01*
X92978244Y-125626785D01*
X93049672Y-125436309D01*
X93097291Y-125055357D01*
X93061577Y-124960119D01*
X93019910Y-124912500D01*
X92930625Y-124864880D01*
X92740148Y-124864880D01*
X92638958Y-124912500D01*
X92585386Y-124960119D01*
X92525863Y-125055357D01*
X92496101Y-125293452D01*
X92531815Y-125388690D01*
X92573482Y-125436309D01*
X92662767Y-125483928D01*
X92853244Y-125483928D01*
X92954434Y-125436309D01*
X93008005Y-125388690D01*
X93067529Y-125293452D01*
X88114583Y-130944880D02*
X87781250Y-130468690D01*
X87543154Y-130944880D02*
X87543154Y-129944880D01*
X87924107Y-129944880D01*
X88019345Y-129992500D01*
X88066964Y-130040119D01*
X88114583Y-130135357D01*
X88114583Y-130278214D01*
X88066964Y-130373452D01*
X88019345Y-130421071D01*
X87924107Y-130468690D01*
X87543154Y-130468690D01*
X88495535Y-130897261D02*
X88638392Y-130944880D01*
X88876488Y-130944880D01*
X88971726Y-130897261D01*
X89019345Y-130849642D01*
X89066964Y-130754404D01*
X89066964Y-130659166D01*
X89019345Y-130563928D01*
X88971726Y-130516309D01*
X88876488Y-130468690D01*
X88686011Y-130421071D01*
X88590773Y-130373452D01*
X88543154Y-130325833D01*
X88495535Y-130230595D01*
X88495535Y-130135357D01*
X88543154Y-130040119D01*
X88590773Y-129992500D01*
X88686011Y-129944880D01*
X88924107Y-129944880D01*
X89066964Y-129992500D01*
X89495535Y-130944880D02*
X89495535Y-129944880D01*
X89495535Y-130421071D02*
X90066964Y-130421071D01*
X90066964Y-130944880D02*
X90066964Y-129944880D01*
X90543154Y-130944880D02*
X90543154Y-129944880D01*
X91352678Y-130421071D02*
X91019345Y-130421071D01*
X91019345Y-130944880D02*
X91019345Y-129944880D01*
X91495535Y-129944880D01*
X91733630Y-129944880D02*
X92305059Y-129944880D01*
X92019345Y-130944880D02*
X92019345Y-129944880D01*
X93162202Y-130944880D02*
X92590773Y-130944880D01*
X92876488Y-130944880D02*
X92876488Y-129944880D01*
X92781250Y-130087738D01*
X92686011Y-130182976D01*
X92590773Y-130230595D01*
X93495535Y-129944880D02*
X94162202Y-129944880D01*
X93733630Y-130944880D01*
X95019345Y-129944880D02*
X94543154Y-129944880D01*
X94495535Y-130421071D01*
X94543154Y-130373452D01*
X94638392Y-130325833D01*
X94876488Y-130325833D01*
X94971726Y-130373452D01*
X95019345Y-130421071D01*
X95066964Y-130516309D01*
X95066964Y-130754404D01*
X95019345Y-130849642D01*
X94971726Y-130897261D01*
X94876488Y-130944880D01*
X94638392Y-130944880D01*
X94543154Y-130897261D01*
X94495535Y-130849642D01*
%TO.C,SW70*%
X325126755Y-144867261D02*
X325263660Y-144914880D01*
X325501755Y-144914880D01*
X325602946Y-144867261D01*
X325656517Y-144819642D01*
X325716041Y-144724404D01*
X325727946Y-144629166D01*
X325692232Y-144533928D01*
X325650565Y-144486309D01*
X325561279Y-144438690D01*
X325376755Y-144391071D01*
X325287470Y-144343452D01*
X325245803Y-144295833D01*
X325210089Y-144200595D01*
X325221994Y-144105357D01*
X325281517Y-144010119D01*
X325335089Y-143962500D01*
X325436279Y-143914880D01*
X325674375Y-143914880D01*
X325811279Y-143962500D01*
X326150565Y-143914880D02*
X326263660Y-144914880D01*
X326543422Y-144200595D01*
X326644613Y-144914880D01*
X327007708Y-143914880D01*
X327293422Y-143914880D02*
X327960089Y-143914880D01*
X327406517Y-144914880D01*
X328531517Y-143914880D02*
X328626755Y-143914880D01*
X328716041Y-143962500D01*
X328757708Y-144010119D01*
X328793422Y-144105357D01*
X328817232Y-144295833D01*
X328787470Y-144533928D01*
X328716041Y-144724404D01*
X328656517Y-144819642D01*
X328602946Y-144867261D01*
X328501755Y-144914880D01*
X328406517Y-144914880D01*
X328317232Y-144867261D01*
X328275565Y-144819642D01*
X328239851Y-144724404D01*
X328216041Y-144533928D01*
X328245803Y-144295833D01*
X328317232Y-144105357D01*
X328376755Y-144010119D01*
X328430327Y-143962500D01*
X328531517Y-143914880D01*
X324120238Y-148724880D02*
X323644047Y-148724880D01*
X323644047Y-147724880D01*
X325025000Y-148629642D02*
X324977380Y-148677261D01*
X324834523Y-148724880D01*
X324739285Y-148724880D01*
X324596428Y-148677261D01*
X324501190Y-148582023D01*
X324453571Y-148486785D01*
X324405952Y-148296309D01*
X324405952Y-148153452D01*
X324453571Y-147962976D01*
X324501190Y-147867738D01*
X324596428Y-147772500D01*
X324739285Y-147724880D01*
X324834523Y-147724880D01*
X324977380Y-147772500D01*
X325025000Y-147820119D01*
X325310714Y-147724880D02*
X325882142Y-147724880D01*
X325596428Y-148724880D02*
X325596428Y-147724880D01*
X326786904Y-148724880D02*
X326453571Y-148248690D01*
X326215476Y-148724880D02*
X326215476Y-147724880D01*
X326596428Y-147724880D01*
X326691666Y-147772500D01*
X326739285Y-147820119D01*
X326786904Y-147915357D01*
X326786904Y-148058214D01*
X326739285Y-148153452D01*
X326691666Y-148201071D01*
X326596428Y-148248690D01*
X326215476Y-148248690D01*
X327691666Y-148724880D02*
X327215476Y-148724880D01*
X327215476Y-147724880D01*
X328548809Y-148724880D02*
X327977380Y-148724880D01*
X328263095Y-148724880D02*
X328263095Y-147724880D01*
X328167857Y-147867738D01*
X328072619Y-147962976D01*
X327977380Y-148010595D01*
X329453571Y-147724880D02*
X328977380Y-147724880D01*
X328929761Y-148201071D01*
X328977380Y-148153452D01*
X329072619Y-148105833D01*
X329310714Y-148105833D01*
X329405952Y-148153452D01*
X329453571Y-148201071D01*
X329501190Y-148296309D01*
X329501190Y-148534404D01*
X329453571Y-148629642D01*
X329405952Y-148677261D01*
X329310714Y-148724880D01*
X329072619Y-148724880D01*
X328977380Y-148677261D01*
X328929761Y-148629642D01*
X330120238Y-147724880D02*
X330215476Y-147724880D01*
X330310714Y-147772500D01*
X330358333Y-147820119D01*
X330405952Y-147915357D01*
X330453571Y-148105833D01*
X330453571Y-148343928D01*
X330405952Y-148534404D01*
X330358333Y-148629642D01*
X330310714Y-148677261D01*
X330215476Y-148724880D01*
X330120238Y-148724880D01*
X330025000Y-148677261D01*
X329977380Y-148629642D01*
X329929761Y-148534404D01*
X329882142Y-148343928D01*
X329882142Y-148105833D01*
X329929761Y-147915357D01*
X329977380Y-147820119D01*
X330025000Y-147772500D01*
X330120238Y-147724880D01*
%TO.C,SW71*%
X301314255Y-146192261D02*
X301451160Y-146239880D01*
X301689255Y-146239880D01*
X301790446Y-146192261D01*
X301844017Y-146144642D01*
X301903541Y-146049404D01*
X301915446Y-145954166D01*
X301879732Y-145858928D01*
X301838065Y-145811309D01*
X301748779Y-145763690D01*
X301564255Y-145716071D01*
X301474970Y-145668452D01*
X301433303Y-145620833D01*
X301397589Y-145525595D01*
X301409494Y-145430357D01*
X301469017Y-145335119D01*
X301522589Y-145287500D01*
X301623779Y-145239880D01*
X301861875Y-145239880D01*
X301998779Y-145287500D01*
X302338065Y-145239880D02*
X302451160Y-146239880D01*
X302730922Y-145525595D01*
X302832113Y-146239880D01*
X303195208Y-145239880D01*
X303480922Y-145239880D02*
X304147589Y-145239880D01*
X303594017Y-146239880D01*
X304927351Y-146239880D02*
X304355922Y-146239880D01*
X304641636Y-146239880D02*
X304766636Y-145239880D01*
X304653541Y-145382738D01*
X304546398Y-145477976D01*
X304445208Y-145525595D01*
X300760119Y-147739880D02*
X300283928Y-147739880D01*
X300283928Y-146739880D01*
X300998214Y-146739880D02*
X301236309Y-147739880D01*
X301426785Y-147025595D01*
X301617261Y-147739880D01*
X301855357Y-146739880D01*
X302236309Y-147739880D02*
X302236309Y-146739880D01*
X302712500Y-147739880D02*
X302712500Y-146739880D01*
X303283928Y-147739880D01*
X303283928Y-146739880D01*
X304283928Y-147739880D02*
X303712500Y-147739880D01*
X303998214Y-147739880D02*
X303998214Y-146739880D01*
X303902976Y-146882738D01*
X303807738Y-146977976D01*
X303712500Y-147025595D01*
X304902976Y-146739880D02*
X304998214Y-146739880D01*
X305093452Y-146787500D01*
X305141071Y-146835119D01*
X305188690Y-146930357D01*
X305236309Y-147120833D01*
X305236309Y-147358928D01*
X305188690Y-147549404D01*
X305141071Y-147644642D01*
X305093452Y-147692261D01*
X304998214Y-147739880D01*
X304902976Y-147739880D01*
X304807738Y-147692261D01*
X304760119Y-147644642D01*
X304712500Y-147549404D01*
X304664880Y-147358928D01*
X304664880Y-147120833D01*
X304712500Y-146930357D01*
X304760119Y-146835119D01*
X304807738Y-146787500D01*
X304902976Y-146739880D01*
X305855357Y-146739880D02*
X305950595Y-146739880D01*
X306045833Y-146787500D01*
X306093452Y-146835119D01*
X306141071Y-146930357D01*
X306188690Y-147120833D01*
X306188690Y-147358928D01*
X306141071Y-147549404D01*
X306093452Y-147644642D01*
X306045833Y-147692261D01*
X305950595Y-147739880D01*
X305855357Y-147739880D01*
X305760119Y-147692261D01*
X305712500Y-147644642D01*
X305664880Y-147549404D01*
X305617261Y-147358928D01*
X305617261Y-147120833D01*
X305664880Y-146930357D01*
X305712500Y-146835119D01*
X305760119Y-146787500D01*
X305855357Y-146739880D01*
%TO.C,SW74*%
X115576755Y-144867261D02*
X115713660Y-144914880D01*
X115951755Y-144914880D01*
X116052946Y-144867261D01*
X116106517Y-144819642D01*
X116166041Y-144724404D01*
X116177946Y-144629166D01*
X116142232Y-144533928D01*
X116100565Y-144486309D01*
X116011279Y-144438690D01*
X115826755Y-144391071D01*
X115737470Y-144343452D01*
X115695803Y-144295833D01*
X115660089Y-144200595D01*
X115671994Y-144105357D01*
X115731517Y-144010119D01*
X115785089Y-143962500D01*
X115886279Y-143914880D01*
X116124375Y-143914880D01*
X116261279Y-143962500D01*
X116600565Y-143914880D02*
X116713660Y-144914880D01*
X116993422Y-144200595D01*
X117094613Y-144914880D01*
X117457708Y-143914880D01*
X117743422Y-143914880D02*
X118410089Y-143914880D01*
X117856517Y-144914880D01*
X119177946Y-144248214D02*
X119094613Y-144914880D01*
X118987470Y-143867261D02*
X118660089Y-144581547D01*
X119279136Y-144581547D01*
X115141666Y-148724880D02*
X114808333Y-148248690D01*
X114570238Y-148724880D02*
X114570238Y-147724880D01*
X114951190Y-147724880D01*
X115046428Y-147772500D01*
X115094047Y-147820119D01*
X115141666Y-147915357D01*
X115141666Y-148058214D01*
X115094047Y-148153452D01*
X115046428Y-148201071D01*
X114951190Y-148248690D01*
X114570238Y-148248690D01*
X115522619Y-148439166D02*
X115998809Y-148439166D01*
X115427380Y-148724880D02*
X115760714Y-147724880D01*
X116094047Y-148724880D01*
X116903571Y-148724880D02*
X116427380Y-148724880D01*
X116427380Y-147724880D01*
X117094047Y-147724880D02*
X117665476Y-147724880D01*
X117379761Y-148724880D02*
X117379761Y-147724880D01*
X118522619Y-148724880D02*
X117951190Y-148724880D01*
X118236904Y-148724880D02*
X118236904Y-147724880D01*
X118141666Y-147867738D01*
X118046428Y-147962976D01*
X117951190Y-148010595D01*
X119427380Y-147724880D02*
X118951190Y-147724880D01*
X118903571Y-148201071D01*
X118951190Y-148153452D01*
X119046428Y-148105833D01*
X119284523Y-148105833D01*
X119379761Y-148153452D01*
X119427380Y-148201071D01*
X119475000Y-148296309D01*
X119475000Y-148534404D01*
X119427380Y-148629642D01*
X119379761Y-148677261D01*
X119284523Y-148724880D01*
X119046428Y-148724880D01*
X118951190Y-148677261D01*
X118903571Y-148629642D01*
X120094047Y-147724880D02*
X120189285Y-147724880D01*
X120284523Y-147772500D01*
X120332142Y-147820119D01*
X120379761Y-147915357D01*
X120427380Y-148105833D01*
X120427380Y-148343928D01*
X120379761Y-148534404D01*
X120332142Y-148629642D01*
X120284523Y-148677261D01*
X120189285Y-148724880D01*
X120094047Y-148724880D01*
X119998809Y-148677261D01*
X119951190Y-148629642D01*
X119903571Y-148534404D01*
X119855952Y-148343928D01*
X119855952Y-148105833D01*
X119903571Y-147915357D01*
X119951190Y-147820119D01*
X119998809Y-147772500D01*
X120094047Y-147724880D01*
%TO.C,SW75*%
X91764255Y-144867261D02*
X91901160Y-144914880D01*
X92139255Y-144914880D01*
X92240446Y-144867261D01*
X92294017Y-144819642D01*
X92353541Y-144724404D01*
X92365446Y-144629166D01*
X92329732Y-144533928D01*
X92288065Y-144486309D01*
X92198779Y-144438690D01*
X92014255Y-144391071D01*
X91924970Y-144343452D01*
X91883303Y-144295833D01*
X91847589Y-144200595D01*
X91859494Y-144105357D01*
X91919017Y-144010119D01*
X91972589Y-143962500D01*
X92073779Y-143914880D01*
X92311875Y-143914880D01*
X92448779Y-143962500D01*
X92788065Y-143914880D02*
X92901160Y-144914880D01*
X93180922Y-144200595D01*
X93282113Y-144914880D01*
X93645208Y-143914880D01*
X93930922Y-143914880D02*
X94597589Y-143914880D01*
X94044017Y-144914880D01*
X95454732Y-143914880D02*
X94978541Y-143914880D01*
X94871398Y-144391071D01*
X94924970Y-144343452D01*
X95026160Y-144295833D01*
X95264255Y-144295833D01*
X95353541Y-144343452D01*
X95395208Y-144391071D01*
X95430922Y-144486309D01*
X95401160Y-144724404D01*
X95341636Y-144819642D01*
X95288065Y-144867261D01*
X95186875Y-144914880D01*
X94948779Y-144914880D01*
X94859494Y-144867261D01*
X94817827Y-144819642D01*
X91210119Y-150375880D02*
X90876785Y-149899690D01*
X90638690Y-150375880D02*
X90638690Y-149375880D01*
X91019642Y-149375880D01*
X91114880Y-149423500D01*
X91162500Y-149471119D01*
X91210119Y-149566357D01*
X91210119Y-149709214D01*
X91162500Y-149804452D01*
X91114880Y-149852071D01*
X91019642Y-149899690D01*
X90638690Y-149899690D01*
X91543452Y-149375880D02*
X91781547Y-150375880D01*
X91972023Y-149661595D01*
X92162500Y-150375880D01*
X92400595Y-149375880D01*
X92781547Y-150375880D02*
X92781547Y-149375880D01*
X93257738Y-150375880D02*
X93257738Y-149375880D01*
X93829166Y-150375880D01*
X93829166Y-149375880D01*
X94829166Y-150375880D02*
X94257738Y-150375880D01*
X94543452Y-150375880D02*
X94543452Y-149375880D01*
X94448214Y-149518738D01*
X94352976Y-149613976D01*
X94257738Y-149661595D01*
X95448214Y-149375880D02*
X95543452Y-149375880D01*
X95638690Y-149423500D01*
X95686309Y-149471119D01*
X95733928Y-149566357D01*
X95781547Y-149756833D01*
X95781547Y-149994928D01*
X95733928Y-150185404D01*
X95686309Y-150280642D01*
X95638690Y-150328261D01*
X95543452Y-150375880D01*
X95448214Y-150375880D01*
X95352976Y-150328261D01*
X95305357Y-150280642D01*
X95257738Y-150185404D01*
X95210119Y-149994928D01*
X95210119Y-149756833D01*
X95257738Y-149566357D01*
X95305357Y-149471119D01*
X95352976Y-149423500D01*
X95448214Y-149375880D01*
X96400595Y-149375880D02*
X96495833Y-149375880D01*
X96591071Y-149423500D01*
X96638690Y-149471119D01*
X96686309Y-149566357D01*
X96733928Y-149756833D01*
X96733928Y-149994928D01*
X96686309Y-150185404D01*
X96638690Y-150280642D01*
X96591071Y-150328261D01*
X96495833Y-150375880D01*
X96400595Y-150375880D01*
X96305357Y-150328261D01*
X96257738Y-150280642D01*
X96210119Y-150185404D01*
X96162500Y-149994928D01*
X96162500Y-149756833D01*
X96210119Y-149566357D01*
X96257738Y-149471119D01*
X96305357Y-149423500D01*
X96400595Y-149375880D01*
%TO.C,SW76*%
X67951755Y-144867261D02*
X68088660Y-144914880D01*
X68326755Y-144914880D01*
X68427946Y-144867261D01*
X68481517Y-144819642D01*
X68541041Y-144724404D01*
X68552946Y-144629166D01*
X68517232Y-144533928D01*
X68475565Y-144486309D01*
X68386279Y-144438690D01*
X68201755Y-144391071D01*
X68112470Y-144343452D01*
X68070803Y-144295833D01*
X68035089Y-144200595D01*
X68046994Y-144105357D01*
X68106517Y-144010119D01*
X68160089Y-143962500D01*
X68261279Y-143914880D01*
X68499375Y-143914880D01*
X68636279Y-143962500D01*
X68975565Y-143914880D02*
X69088660Y-144914880D01*
X69368422Y-144200595D01*
X69469613Y-144914880D01*
X69832708Y-143914880D01*
X70118422Y-143914880D02*
X70785089Y-143914880D01*
X70231517Y-144914880D01*
X71594613Y-143914880D02*
X71404136Y-143914880D01*
X71302946Y-143962500D01*
X71249375Y-144010119D01*
X71136279Y-144152976D01*
X71064851Y-144343452D01*
X71017232Y-144724404D01*
X71052946Y-144819642D01*
X71094613Y-144867261D01*
X71183898Y-144914880D01*
X71374375Y-144914880D01*
X71475565Y-144867261D01*
X71529136Y-144819642D01*
X71588660Y-144724404D01*
X71618422Y-144486309D01*
X71582708Y-144391071D01*
X71541041Y-144343452D01*
X71451755Y-144295833D01*
X71261279Y-144295833D01*
X71160089Y-144343452D01*
X71106517Y-144391071D01*
X71046994Y-144486309D01*
X66945238Y-148724880D02*
X66611904Y-148248690D01*
X66373809Y-148724880D02*
X66373809Y-147724880D01*
X66754761Y-147724880D01*
X66850000Y-147772500D01*
X66897619Y-147820119D01*
X66945238Y-147915357D01*
X66945238Y-148058214D01*
X66897619Y-148153452D01*
X66850000Y-148201071D01*
X66754761Y-148248690D01*
X66373809Y-148248690D01*
X67945238Y-148629642D02*
X67897619Y-148677261D01*
X67754761Y-148724880D01*
X67659523Y-148724880D01*
X67516666Y-148677261D01*
X67421428Y-148582023D01*
X67373809Y-148486785D01*
X67326190Y-148296309D01*
X67326190Y-148153452D01*
X67373809Y-147962976D01*
X67421428Y-147867738D01*
X67516666Y-147772500D01*
X67659523Y-147724880D01*
X67754761Y-147724880D01*
X67897619Y-147772500D01*
X67945238Y-147820119D01*
X68230952Y-147724880D02*
X68802380Y-147724880D01*
X68516666Y-148724880D02*
X68516666Y-147724880D01*
X69707142Y-148724880D02*
X69373809Y-148248690D01*
X69135714Y-148724880D02*
X69135714Y-147724880D01*
X69516666Y-147724880D01*
X69611904Y-147772500D01*
X69659523Y-147820119D01*
X69707142Y-147915357D01*
X69707142Y-148058214D01*
X69659523Y-148153452D01*
X69611904Y-148201071D01*
X69516666Y-148248690D01*
X69135714Y-148248690D01*
X70611904Y-148724880D02*
X70135714Y-148724880D01*
X70135714Y-147724880D01*
X71469047Y-148724880D02*
X70897619Y-148724880D01*
X71183333Y-148724880D02*
X71183333Y-147724880D01*
X71088095Y-147867738D01*
X70992857Y-147962976D01*
X70897619Y-148010595D01*
X72373809Y-147724880D02*
X71897619Y-147724880D01*
X71850000Y-148201071D01*
X71897619Y-148153452D01*
X71992857Y-148105833D01*
X72230952Y-148105833D01*
X72326190Y-148153452D01*
X72373809Y-148201071D01*
X72421428Y-148296309D01*
X72421428Y-148534404D01*
X72373809Y-148629642D01*
X72326190Y-148677261D01*
X72230952Y-148724880D01*
X71992857Y-148724880D01*
X71897619Y-148677261D01*
X71850000Y-148629642D01*
X73040476Y-147724880D02*
X73135714Y-147724880D01*
X73230952Y-147772500D01*
X73278571Y-147820119D01*
X73326190Y-147915357D01*
X73373809Y-148105833D01*
X73373809Y-148343928D01*
X73326190Y-148534404D01*
X73278571Y-148629642D01*
X73230952Y-148677261D01*
X73135714Y-148724880D01*
X73040476Y-148724880D01*
X72945238Y-148677261D01*
X72897619Y-148629642D01*
X72850000Y-148534404D01*
X72802380Y-148343928D01*
X72802380Y-148105833D01*
X72850000Y-147915357D01*
X72897619Y-147820119D01*
X72945238Y-147772500D01*
X73040476Y-147724880D01*
%TO.C,SW44*%
X306076755Y-127142261D02*
X306213660Y-127189880D01*
X306451755Y-127189880D01*
X306552946Y-127142261D01*
X306606517Y-127094642D01*
X306666041Y-126999404D01*
X306677946Y-126904166D01*
X306642232Y-126808928D01*
X306600565Y-126761309D01*
X306511279Y-126713690D01*
X306326755Y-126666071D01*
X306237470Y-126618452D01*
X306195803Y-126570833D01*
X306160089Y-126475595D01*
X306171994Y-126380357D01*
X306231517Y-126285119D01*
X306285089Y-126237500D01*
X306386279Y-126189880D01*
X306624375Y-126189880D01*
X306761279Y-126237500D01*
X307100565Y-126189880D02*
X307213660Y-127189880D01*
X307493422Y-126475595D01*
X307594613Y-127189880D01*
X307957708Y-126189880D01*
X308725565Y-126523214D02*
X308642232Y-127189880D01*
X308535089Y-126142261D02*
X308207708Y-126856547D01*
X308826755Y-126856547D01*
X309677946Y-126523214D02*
X309594613Y-127189880D01*
X309487470Y-126142261D02*
X309160089Y-126856547D01*
X309779136Y-126856547D01*
X304903571Y-128689880D02*
X304903571Y-127689880D01*
X305332142Y-128642261D02*
X305475000Y-128689880D01*
X305713095Y-128689880D01*
X305808333Y-128642261D01*
X305855952Y-128594642D01*
X305903571Y-128499404D01*
X305903571Y-128404166D01*
X305855952Y-128308928D01*
X305808333Y-128261309D01*
X305713095Y-128213690D01*
X305522619Y-128166071D01*
X305427380Y-128118452D01*
X305379761Y-128070833D01*
X305332142Y-127975595D01*
X305332142Y-127880357D01*
X305379761Y-127785119D01*
X305427380Y-127737500D01*
X305522619Y-127689880D01*
X305760714Y-127689880D01*
X305903571Y-127737500D01*
X306522619Y-127689880D02*
X306713095Y-127689880D01*
X306808333Y-127737500D01*
X306903571Y-127832738D01*
X306951190Y-128023214D01*
X306951190Y-128356547D01*
X306903571Y-128547023D01*
X306808333Y-128642261D01*
X306713095Y-128689880D01*
X306522619Y-128689880D01*
X306427380Y-128642261D01*
X306332142Y-128547023D01*
X306284523Y-128356547D01*
X306284523Y-128023214D01*
X306332142Y-127832738D01*
X306427380Y-127737500D01*
X306522619Y-127689880D01*
X307141666Y-128785119D02*
X307903571Y-128785119D01*
X308141666Y-128689880D02*
X308141666Y-127689880D01*
X308522619Y-127689880D01*
X308617857Y-127737500D01*
X308665476Y-127785119D01*
X308713095Y-127880357D01*
X308713095Y-128023214D01*
X308665476Y-128118452D01*
X308617857Y-128166071D01*
X308522619Y-128213690D01*
X308141666Y-128213690D01*
X309141666Y-128689880D02*
X309141666Y-127689880D01*
X309617857Y-128689880D02*
X309617857Y-127689880D01*
X309998809Y-127689880D01*
X310094047Y-127737500D01*
X310141666Y-127785119D01*
X310189285Y-127880357D01*
X310189285Y-128023214D01*
X310141666Y-128118452D01*
X310094047Y-128166071D01*
X309998809Y-128213690D01*
X309617857Y-128213690D01*
X310617857Y-128166071D02*
X310951190Y-128166071D01*
X311094047Y-128689880D02*
X310617857Y-128689880D01*
X310617857Y-127689880D01*
X311094047Y-127689880D01*
%TO.C,SW48*%
X229876755Y-127142261D02*
X230013660Y-127189880D01*
X230251755Y-127189880D01*
X230352946Y-127142261D01*
X230406517Y-127094642D01*
X230466041Y-126999404D01*
X230477946Y-126904166D01*
X230442232Y-126808928D01*
X230400565Y-126761309D01*
X230311279Y-126713690D01*
X230126755Y-126666071D01*
X230037470Y-126618452D01*
X229995803Y-126570833D01*
X229960089Y-126475595D01*
X229971994Y-126380357D01*
X230031517Y-126285119D01*
X230085089Y-126237500D01*
X230186279Y-126189880D01*
X230424375Y-126189880D01*
X230561279Y-126237500D01*
X230900565Y-126189880D02*
X231013660Y-127189880D01*
X231293422Y-126475595D01*
X231394613Y-127189880D01*
X231757708Y-126189880D01*
X232525565Y-126523214D02*
X232442232Y-127189880D01*
X232335089Y-126142261D02*
X232007708Y-126856547D01*
X232626755Y-126856547D01*
X233180327Y-126618452D02*
X233091041Y-126570833D01*
X233049375Y-126523214D01*
X233013660Y-126427976D01*
X233019613Y-126380357D01*
X233079136Y-126285119D01*
X233132708Y-126237500D01*
X233233898Y-126189880D01*
X233424375Y-126189880D01*
X233513660Y-126237500D01*
X233555327Y-126285119D01*
X233591041Y-126380357D01*
X233585089Y-126427976D01*
X233525565Y-126523214D01*
X233471994Y-126570833D01*
X233370803Y-126618452D01*
X233180327Y-126618452D01*
X233079136Y-126666071D01*
X233025565Y-126713690D01*
X232966041Y-126808928D01*
X232942232Y-126999404D01*
X232977946Y-127094642D01*
X233019613Y-127142261D01*
X233108898Y-127189880D01*
X233299375Y-127189880D01*
X233400565Y-127142261D01*
X233454136Y-127094642D01*
X233513660Y-126999404D01*
X233537470Y-126808928D01*
X233501755Y-126713690D01*
X233460089Y-126666071D01*
X233370803Y-126618452D01*
X231441666Y-127689880D02*
X231775000Y-128689880D01*
X232108333Y-127689880D01*
%TO.C,SW47*%
X248926755Y-127142261D02*
X249063660Y-127189880D01*
X249301755Y-127189880D01*
X249402946Y-127142261D01*
X249456517Y-127094642D01*
X249516041Y-126999404D01*
X249527946Y-126904166D01*
X249492232Y-126808928D01*
X249450565Y-126761309D01*
X249361279Y-126713690D01*
X249176755Y-126666071D01*
X249087470Y-126618452D01*
X249045803Y-126570833D01*
X249010089Y-126475595D01*
X249021994Y-126380357D01*
X249081517Y-126285119D01*
X249135089Y-126237500D01*
X249236279Y-126189880D01*
X249474375Y-126189880D01*
X249611279Y-126237500D01*
X249950565Y-126189880D02*
X250063660Y-127189880D01*
X250343422Y-126475595D01*
X250444613Y-127189880D01*
X250807708Y-126189880D01*
X251575565Y-126523214D02*
X251492232Y-127189880D01*
X251385089Y-126142261D02*
X251057708Y-126856547D01*
X251676755Y-126856547D01*
X252045803Y-126189880D02*
X252712470Y-126189880D01*
X252158898Y-127189880D01*
X251134523Y-128594642D02*
X251086904Y-128642261D01*
X250944047Y-128689880D01*
X250848809Y-128689880D01*
X250705952Y-128642261D01*
X250610714Y-128547023D01*
X250563095Y-128451785D01*
X250515476Y-128261309D01*
X250515476Y-128118452D01*
X250563095Y-127927976D01*
X250610714Y-127832738D01*
X250705952Y-127737500D01*
X250848809Y-127689880D01*
X250944047Y-127689880D01*
X251086904Y-127737500D01*
X251134523Y-127785119D01*
%TO.C,SW42*%
X75095505Y-106767261D02*
X75232410Y-106814880D01*
X75470505Y-106814880D01*
X75571696Y-106767261D01*
X75625267Y-106719642D01*
X75684791Y-106624404D01*
X75696696Y-106529166D01*
X75660982Y-106433928D01*
X75619315Y-106386309D01*
X75530029Y-106338690D01*
X75345505Y-106291071D01*
X75256220Y-106243452D01*
X75214553Y-106195833D01*
X75178839Y-106100595D01*
X75190744Y-106005357D01*
X75250267Y-105910119D01*
X75303839Y-105862500D01*
X75405029Y-105814880D01*
X75643125Y-105814880D01*
X75780029Y-105862500D01*
X76119315Y-105814880D02*
X76232410Y-106814880D01*
X76512172Y-106100595D01*
X76613363Y-106814880D01*
X76976458Y-105814880D01*
X77744315Y-106148214D02*
X77660982Y-106814880D01*
X77553839Y-105767261D02*
X77226458Y-106481547D01*
X77845505Y-106481547D01*
X78250267Y-105910119D02*
X78303839Y-105862500D01*
X78405029Y-105814880D01*
X78643125Y-105814880D01*
X78732410Y-105862500D01*
X78774077Y-105910119D01*
X78809791Y-106005357D01*
X78797886Y-106100595D01*
X78732410Y-106243452D01*
X78089553Y-106814880D01*
X78708601Y-106814880D01*
X72874702Y-111816071D02*
X73208035Y-111816071D01*
X73350892Y-112339880D02*
X72874702Y-112339880D01*
X72874702Y-111339880D01*
X73350892Y-111339880D01*
X73779464Y-112339880D02*
X73779464Y-111339880D01*
X74350892Y-112339880D01*
X74350892Y-111339880D01*
X74684226Y-111339880D02*
X75255654Y-111339880D01*
X74969940Y-112339880D02*
X74969940Y-111339880D01*
X75588988Y-111816071D02*
X75922321Y-111816071D01*
X76065178Y-112339880D02*
X75588988Y-112339880D01*
X75588988Y-111339880D01*
X76065178Y-111339880D01*
X77065178Y-112339880D02*
X76731845Y-111863690D01*
X76493750Y-112339880D02*
X76493750Y-111339880D01*
X76874702Y-111339880D01*
X76969940Y-111387500D01*
X77017559Y-111435119D01*
X77065178Y-111530357D01*
X77065178Y-111673214D01*
X77017559Y-111768452D01*
X76969940Y-111816071D01*
X76874702Y-111863690D01*
X76493750Y-111863690D01*
X77255654Y-112435119D02*
X78017559Y-112435119D01*
X78208035Y-112054166D02*
X78684226Y-112054166D01*
X78112797Y-112339880D02*
X78446130Y-111339880D01*
X78779464Y-112339880D01*
X79112797Y-112339880D02*
X79112797Y-111339880D01*
X79684226Y-112339880D01*
X79684226Y-111339880D01*
X80112797Y-112292261D02*
X80255654Y-112339880D01*
X80493750Y-112339880D01*
X80588988Y-112292261D01*
X80636607Y-112244642D01*
X80684226Y-112149404D01*
X80684226Y-112054166D01*
X80636607Y-111958928D01*
X80588988Y-111911309D01*
X80493750Y-111863690D01*
X80303273Y-111816071D01*
X80208035Y-111768452D01*
X80160416Y-111720833D01*
X80112797Y-111625595D01*
X80112797Y-111530357D01*
X80160416Y-111435119D01*
X80208035Y-111387500D01*
X80303273Y-111339880D01*
X80541369Y-111339880D01*
X80684226Y-111387500D01*
X81112797Y-112339880D02*
X81112797Y-111339880D01*
%TO.C,SW29*%
X322745505Y-106767261D02*
X322882410Y-106814880D01*
X323120505Y-106814880D01*
X323221696Y-106767261D01*
X323275267Y-106719642D01*
X323334791Y-106624404D01*
X323346696Y-106529166D01*
X323310982Y-106433928D01*
X323269315Y-106386309D01*
X323180029Y-106338690D01*
X322995505Y-106291071D01*
X322906220Y-106243452D01*
X322864553Y-106195833D01*
X322828839Y-106100595D01*
X322840744Y-106005357D01*
X322900267Y-105910119D01*
X322953839Y-105862500D01*
X323055029Y-105814880D01*
X323293125Y-105814880D01*
X323430029Y-105862500D01*
X323769315Y-105814880D02*
X323882410Y-106814880D01*
X324162172Y-106100595D01*
X324263363Y-106814880D01*
X324626458Y-105814880D01*
X324947886Y-105910119D02*
X325001458Y-105862500D01*
X325102648Y-105814880D01*
X325340744Y-105814880D01*
X325430029Y-105862500D01*
X325471696Y-105910119D01*
X325507410Y-106005357D01*
X325495505Y-106100595D01*
X325430029Y-106243452D01*
X324787172Y-106814880D01*
X325406220Y-106814880D01*
X325882410Y-106814880D02*
X326072886Y-106814880D01*
X326174077Y-106767261D01*
X326227648Y-106719642D01*
X326340744Y-106576785D01*
X326412172Y-106386309D01*
X326459791Y-106005357D01*
X326424077Y-105910119D01*
X326382410Y-105862500D01*
X326293125Y-105814880D01*
X326102648Y-105814880D01*
X326001458Y-105862500D01*
X325947886Y-105910119D01*
X325888363Y-106005357D01*
X325858601Y-106243452D01*
X325894315Y-106338690D01*
X325935982Y-106386309D01*
X326025267Y-106433928D01*
X326215744Y-106433928D01*
X326316934Y-106386309D01*
X326370505Y-106338690D01*
X326430029Y-106243452D01*
X323548511Y-111799642D02*
X323500892Y-111847261D01*
X323358035Y-111894880D01*
X323262797Y-111894880D01*
X323119940Y-111847261D01*
X323024702Y-111752023D01*
X322977083Y-111656785D01*
X322929464Y-111466309D01*
X322929464Y-111323452D01*
X322977083Y-111132976D01*
X323024702Y-111037738D01*
X323119940Y-110942500D01*
X323262797Y-110894880D01*
X323358035Y-110894880D01*
X323500892Y-110942500D01*
X323548511Y-110990119D01*
X323929464Y-111609166D02*
X324405654Y-111609166D01*
X323834226Y-111894880D02*
X324167559Y-110894880D01*
X324500892Y-111894880D01*
X324834226Y-111894880D02*
X324834226Y-110894880D01*
X325215178Y-110894880D01*
X325310416Y-110942500D01*
X325358035Y-110990119D01*
X325405654Y-111085357D01*
X325405654Y-111228214D01*
X325358035Y-111323452D01*
X325310416Y-111371071D01*
X325215178Y-111418690D01*
X324834226Y-111418690D01*
X325786607Y-111847261D02*
X325929464Y-111894880D01*
X326167559Y-111894880D01*
X326262797Y-111847261D01*
X326310416Y-111799642D01*
X326358035Y-111704404D01*
X326358035Y-111609166D01*
X326310416Y-111513928D01*
X326262797Y-111466309D01*
X326167559Y-111418690D01*
X325977083Y-111371071D01*
X325881845Y-111323452D01*
X325834226Y-111275833D01*
X325786607Y-111180595D01*
X325786607Y-111085357D01*
X325834226Y-110990119D01*
X325881845Y-110942500D01*
X325977083Y-110894880D01*
X326215178Y-110894880D01*
X326358035Y-110942500D01*
%TO.C,SW15*%
X325126755Y-87717261D02*
X325263660Y-87764880D01*
X325501755Y-87764880D01*
X325602946Y-87717261D01*
X325656517Y-87669642D01*
X325716041Y-87574404D01*
X325727946Y-87479166D01*
X325692232Y-87383928D01*
X325650565Y-87336309D01*
X325561279Y-87288690D01*
X325376755Y-87241071D01*
X325287470Y-87193452D01*
X325245803Y-87145833D01*
X325210089Y-87050595D01*
X325221994Y-86955357D01*
X325281517Y-86860119D01*
X325335089Y-86812500D01*
X325436279Y-86764880D01*
X325674375Y-86764880D01*
X325811279Y-86812500D01*
X326150565Y-86764880D02*
X326263660Y-87764880D01*
X326543422Y-87050595D01*
X326644613Y-87764880D01*
X327007708Y-86764880D01*
X327787470Y-87764880D02*
X327216041Y-87764880D01*
X327501755Y-87764880D02*
X327626755Y-86764880D01*
X327513660Y-86907738D01*
X327406517Y-87002976D01*
X327305327Y-87050595D01*
X328817232Y-86764880D02*
X328341041Y-86764880D01*
X328233898Y-87241071D01*
X328287470Y-87193452D01*
X328388660Y-87145833D01*
X328626755Y-87145833D01*
X328716041Y-87193452D01*
X328757708Y-87241071D01*
X328793422Y-87336309D01*
X328763660Y-87574404D01*
X328704136Y-87669642D01*
X328650565Y-87717261D01*
X328549375Y-87764880D01*
X328311279Y-87764880D01*
X328221994Y-87717261D01*
X328180327Y-87669642D01*
X324382142Y-90574880D02*
X324953571Y-90574880D01*
X324667857Y-91574880D02*
X324667857Y-90574880D01*
X325239285Y-91289166D02*
X325715476Y-91289166D01*
X325144047Y-91574880D02*
X325477380Y-90574880D01*
X325810714Y-91574880D01*
X326477380Y-91051071D02*
X326620238Y-91098690D01*
X326667857Y-91146309D01*
X326715476Y-91241547D01*
X326715476Y-91384404D01*
X326667857Y-91479642D01*
X326620238Y-91527261D01*
X326525000Y-91574880D01*
X326144047Y-91574880D01*
X326144047Y-90574880D01*
X326477380Y-90574880D01*
X326572619Y-90622500D01*
X326620238Y-90670119D01*
X326667857Y-90765357D01*
X326667857Y-90860595D01*
X326620238Y-90955833D01*
X326572619Y-91003452D01*
X326477380Y-91051071D01*
X326144047Y-91051071D01*
X327667857Y-91574880D02*
X327096428Y-91574880D01*
X327382142Y-91574880D02*
X327382142Y-90574880D01*
X327286904Y-90717738D01*
X327191666Y-90812976D01*
X327096428Y-90860595D01*
X328572619Y-90574880D02*
X328096428Y-90574880D01*
X328048809Y-91051071D01*
X328096428Y-91003452D01*
X328191666Y-90955833D01*
X328429761Y-90955833D01*
X328525000Y-91003452D01*
X328572619Y-91051071D01*
X328620238Y-91146309D01*
X328620238Y-91384404D01*
X328572619Y-91479642D01*
X328525000Y-91527261D01*
X328429761Y-91574880D01*
X328191666Y-91574880D01*
X328096428Y-91527261D01*
X328048809Y-91479642D01*
X329239285Y-90574880D02*
X329334523Y-90574880D01*
X329429761Y-90622500D01*
X329477380Y-90670119D01*
X329525000Y-90765357D01*
X329572619Y-90955833D01*
X329572619Y-91193928D01*
X329525000Y-91384404D01*
X329477380Y-91479642D01*
X329429761Y-91527261D01*
X329334523Y-91574880D01*
X329239285Y-91574880D01*
X329144047Y-91527261D01*
X329096428Y-91479642D01*
X329048809Y-91384404D01*
X329001190Y-91193928D01*
X329001190Y-90955833D01*
X329048809Y-90765357D01*
X329096428Y-90670119D01*
X329144047Y-90622500D01*
X329239285Y-90574880D01*
%TO.C,SW66*%
X327508005Y-106767261D02*
X327644910Y-106814880D01*
X327883005Y-106814880D01*
X327984196Y-106767261D01*
X328037767Y-106719642D01*
X328097291Y-106624404D01*
X328109196Y-106529166D01*
X328073482Y-106433928D01*
X328031815Y-106386309D01*
X327942529Y-106338690D01*
X327758005Y-106291071D01*
X327668720Y-106243452D01*
X327627053Y-106195833D01*
X327591339Y-106100595D01*
X327603244Y-106005357D01*
X327662767Y-105910119D01*
X327716339Y-105862500D01*
X327817529Y-105814880D01*
X328055625Y-105814880D01*
X328192529Y-105862500D01*
X328531815Y-105814880D02*
X328644910Y-106814880D01*
X328924672Y-106100595D01*
X329025863Y-106814880D01*
X329388958Y-105814880D01*
X330198482Y-105814880D02*
X330008005Y-105814880D01*
X329906815Y-105862500D01*
X329853244Y-105910119D01*
X329740148Y-106052976D01*
X329668720Y-106243452D01*
X329621101Y-106624404D01*
X329656815Y-106719642D01*
X329698482Y-106767261D01*
X329787767Y-106814880D01*
X329978244Y-106814880D01*
X330079434Y-106767261D01*
X330133005Y-106719642D01*
X330192529Y-106624404D01*
X330222291Y-106386309D01*
X330186577Y-106291071D01*
X330144910Y-106243452D01*
X330055625Y-106195833D01*
X329865148Y-106195833D01*
X329763958Y-106243452D01*
X329710386Y-106291071D01*
X329650863Y-106386309D01*
X331150863Y-105814880D02*
X330960386Y-105814880D01*
X330859196Y-105862500D01*
X330805625Y-105910119D01*
X330692529Y-106052976D01*
X330621101Y-106243452D01*
X330573482Y-106624404D01*
X330609196Y-106719642D01*
X330650863Y-106767261D01*
X330740148Y-106814880D01*
X330930625Y-106814880D01*
X331031815Y-106767261D01*
X331085386Y-106719642D01*
X331144910Y-106624404D01*
X331174672Y-106386309D01*
X331138958Y-106291071D01*
X331097291Y-106243452D01*
X331008005Y-106195833D01*
X330817529Y-106195833D01*
X330716339Y-106243452D01*
X330662767Y-106291071D01*
X330603244Y-106386309D01*
X324430059Y-112228261D02*
X324572916Y-112275880D01*
X324811011Y-112275880D01*
X324906250Y-112228261D01*
X324953869Y-112180642D01*
X325001488Y-112085404D01*
X325001488Y-111990166D01*
X324953869Y-111894928D01*
X324906250Y-111847309D01*
X324811011Y-111799690D01*
X324620535Y-111752071D01*
X324525297Y-111704452D01*
X324477678Y-111656833D01*
X324430059Y-111561595D01*
X324430059Y-111466357D01*
X324477678Y-111371119D01*
X324525297Y-111323500D01*
X324620535Y-111275880D01*
X324858630Y-111275880D01*
X325001488Y-111323500D01*
X325287202Y-111275880D02*
X325858630Y-111275880D01*
X325572916Y-112275880D02*
X325572916Y-111275880D01*
X326191964Y-111752071D02*
X326525297Y-111752071D01*
X326668154Y-112275880D02*
X326191964Y-112275880D01*
X326191964Y-111275880D01*
X326668154Y-111275880D01*
X327096726Y-112275880D02*
X327096726Y-111275880D01*
X327477678Y-111275880D01*
X327572916Y-111323500D01*
X327620535Y-111371119D01*
X327668154Y-111466357D01*
X327668154Y-111609214D01*
X327620535Y-111704452D01*
X327572916Y-111752071D01*
X327477678Y-111799690D01*
X327096726Y-111799690D01*
X328096726Y-112275880D02*
X328096726Y-111275880D01*
X328477678Y-111275880D01*
X328572916Y-111323500D01*
X328620535Y-111371119D01*
X328668154Y-111466357D01*
X328668154Y-111609214D01*
X328620535Y-111704452D01*
X328572916Y-111752071D01*
X328477678Y-111799690D01*
X328096726Y-111799690D01*
X329096726Y-111752071D02*
X329430059Y-111752071D01*
X329572916Y-112275880D02*
X329096726Y-112275880D01*
X329096726Y-111275880D01*
X329572916Y-111275880D01*
X330001488Y-112275880D02*
X330001488Y-111275880D01*
X330239583Y-111275880D01*
X330382440Y-111323500D01*
X330477678Y-111418738D01*
X330525297Y-111513976D01*
X330572916Y-111704452D01*
X330572916Y-111847309D01*
X330525297Y-112037785D01*
X330477678Y-112133023D01*
X330382440Y-112228261D01*
X330239583Y-112275880D01*
X330001488Y-112275880D01*
X331572916Y-112180642D02*
X331525297Y-112228261D01*
X331382440Y-112275880D01*
X331287202Y-112275880D01*
X331144345Y-112228261D01*
X331049107Y-112133023D01*
X331001488Y-112037785D01*
X330953869Y-111847309D01*
X330953869Y-111704452D01*
X331001488Y-111513976D01*
X331049107Y-111418738D01*
X331144345Y-111323500D01*
X331287202Y-111275880D01*
X331382440Y-111275880D01*
X331525297Y-111323500D01*
X331572916Y-111371119D01*
X331953869Y-111990166D02*
X332430059Y-111990166D01*
X331858630Y-112275880D02*
X332191964Y-111275880D01*
X332525297Y-112275880D01*
X332858630Y-112275880D02*
X332858630Y-111275880D01*
X333239583Y-111275880D01*
X333334821Y-111323500D01*
X333382440Y-111371119D01*
X333430059Y-111466357D01*
X333430059Y-111609214D01*
X333382440Y-111704452D01*
X333334821Y-111752071D01*
X333239583Y-111799690D01*
X332858630Y-111799690D01*
X333811011Y-112228261D02*
X333953869Y-112275880D01*
X334191964Y-112275880D01*
X334287202Y-112228261D01*
X334334821Y-112180642D01*
X334382440Y-112085404D01*
X334382440Y-111990166D01*
X334334821Y-111894928D01*
X334287202Y-111847309D01*
X334191964Y-111799690D01*
X334001488Y-111752071D01*
X333906250Y-111704452D01*
X333858630Y-111656833D01*
X333811011Y-111561595D01*
X333811011Y-111466357D01*
X333858630Y-111371119D01*
X333906250Y-111323500D01*
X334001488Y-111275880D01*
X334239583Y-111275880D01*
X334382440Y-111323500D01*
%TO.C,SW35*%
X201301755Y-108092261D02*
X201438660Y-108139880D01*
X201676755Y-108139880D01*
X201777946Y-108092261D01*
X201831517Y-108044642D01*
X201891041Y-107949404D01*
X201902946Y-107854166D01*
X201867232Y-107758928D01*
X201825565Y-107711309D01*
X201736279Y-107663690D01*
X201551755Y-107616071D01*
X201462470Y-107568452D01*
X201420803Y-107520833D01*
X201385089Y-107425595D01*
X201396994Y-107330357D01*
X201456517Y-107235119D01*
X201510089Y-107187500D01*
X201611279Y-107139880D01*
X201849375Y-107139880D01*
X201986279Y-107187500D01*
X202325565Y-107139880D02*
X202438660Y-108139880D01*
X202718422Y-107425595D01*
X202819613Y-108139880D01*
X203182708Y-107139880D01*
X203468422Y-107139880D02*
X204087470Y-107139880D01*
X203706517Y-107520833D01*
X203849375Y-107520833D01*
X203938660Y-107568452D01*
X203980327Y-107616071D01*
X204016041Y-107711309D01*
X203986279Y-107949404D01*
X203926755Y-108044642D01*
X203873184Y-108092261D01*
X203771994Y-108139880D01*
X203486279Y-108139880D01*
X203396994Y-108092261D01*
X203355327Y-108044642D01*
X204992232Y-107139880D02*
X204516041Y-107139880D01*
X204408898Y-107616071D01*
X204462470Y-107568452D01*
X204563660Y-107520833D01*
X204801755Y-107520833D01*
X204891041Y-107568452D01*
X204932708Y-107616071D01*
X204968422Y-107711309D01*
X204938660Y-107949404D01*
X204879136Y-108044642D01*
X204825565Y-108092261D01*
X204724375Y-108139880D01*
X204486279Y-108139880D01*
X204396994Y-108092261D01*
X204355327Y-108044642D01*
X202914285Y-109639880D02*
X202914285Y-108639880D01*
X202914285Y-109116071D02*
X203485714Y-109116071D01*
X203485714Y-109639880D02*
X203485714Y-108639880D01*
%TO.C,SW30*%
X296551755Y-108092261D02*
X296688660Y-108139880D01*
X296926755Y-108139880D01*
X297027946Y-108092261D01*
X297081517Y-108044642D01*
X297141041Y-107949404D01*
X297152946Y-107854166D01*
X297117232Y-107758928D01*
X297075565Y-107711309D01*
X296986279Y-107663690D01*
X296801755Y-107616071D01*
X296712470Y-107568452D01*
X296670803Y-107520833D01*
X296635089Y-107425595D01*
X296646994Y-107330357D01*
X296706517Y-107235119D01*
X296760089Y-107187500D01*
X296861279Y-107139880D01*
X297099375Y-107139880D01*
X297236279Y-107187500D01*
X297575565Y-107139880D02*
X297688660Y-108139880D01*
X297968422Y-107425595D01*
X298069613Y-108139880D01*
X298432708Y-107139880D01*
X298718422Y-107139880D02*
X299337470Y-107139880D01*
X298956517Y-107520833D01*
X299099375Y-107520833D01*
X299188660Y-107568452D01*
X299230327Y-107616071D01*
X299266041Y-107711309D01*
X299236279Y-107949404D01*
X299176755Y-108044642D01*
X299123184Y-108092261D01*
X299021994Y-108139880D01*
X298736279Y-108139880D01*
X298646994Y-108092261D01*
X298605327Y-108044642D01*
X299956517Y-107139880D02*
X300051755Y-107139880D01*
X300141041Y-107187500D01*
X300182708Y-107235119D01*
X300218422Y-107330357D01*
X300242232Y-107520833D01*
X300212470Y-107758928D01*
X300141041Y-107949404D01*
X300081517Y-108044642D01*
X300027946Y-108092261D01*
X299926755Y-108139880D01*
X299831517Y-108139880D01*
X299742232Y-108092261D01*
X299700565Y-108044642D01*
X299664851Y-107949404D01*
X299641041Y-107758928D01*
X299670803Y-107520833D01*
X299742232Y-107330357D01*
X299801755Y-107235119D01*
X299855327Y-107187500D01*
X299956517Y-107139880D01*
X298211904Y-109354166D02*
X298688095Y-109354166D01*
X298116666Y-109639880D02*
X298450000Y-108639880D01*
X298783333Y-109639880D01*
%TO.C,SW72*%
X277501755Y-144867261D02*
X277638660Y-144914880D01*
X277876755Y-144914880D01*
X277977946Y-144867261D01*
X278031517Y-144819642D01*
X278091041Y-144724404D01*
X278102946Y-144629166D01*
X278067232Y-144533928D01*
X278025565Y-144486309D01*
X277936279Y-144438690D01*
X277751755Y-144391071D01*
X277662470Y-144343452D01*
X277620803Y-144295833D01*
X277585089Y-144200595D01*
X277596994Y-144105357D01*
X277656517Y-144010119D01*
X277710089Y-143962500D01*
X277811279Y-143914880D01*
X278049375Y-143914880D01*
X278186279Y-143962500D01*
X278525565Y-143914880D02*
X278638660Y-144914880D01*
X278918422Y-144200595D01*
X279019613Y-144914880D01*
X279382708Y-143914880D01*
X279668422Y-143914880D02*
X280335089Y-143914880D01*
X279781517Y-144914880D01*
X280656517Y-144010119D02*
X280710089Y-143962500D01*
X280811279Y-143914880D01*
X281049375Y-143914880D01*
X281138660Y-143962500D01*
X281180327Y-144010119D01*
X281216041Y-144105357D01*
X281204136Y-144200595D01*
X281138660Y-144343452D01*
X280495803Y-144914880D01*
X281114851Y-144914880D01*
X277066666Y-148724880D02*
X276590476Y-148724880D01*
X276590476Y-147724880D01*
X277352380Y-148439166D02*
X277828571Y-148439166D01*
X277257142Y-148724880D02*
X277590476Y-147724880D01*
X277923809Y-148724880D01*
X278733333Y-148724880D02*
X278257142Y-148724880D01*
X278257142Y-147724880D01*
X278923809Y-147724880D02*
X279495238Y-147724880D01*
X279209523Y-148724880D02*
X279209523Y-147724880D01*
X280352380Y-148724880D02*
X279780952Y-148724880D01*
X280066666Y-148724880D02*
X280066666Y-147724880D01*
X279971428Y-147867738D01*
X279876190Y-147962976D01*
X279780952Y-148010595D01*
X281257142Y-147724880D02*
X280780952Y-147724880D01*
X280733333Y-148201071D01*
X280780952Y-148153452D01*
X280876190Y-148105833D01*
X281114285Y-148105833D01*
X281209523Y-148153452D01*
X281257142Y-148201071D01*
X281304761Y-148296309D01*
X281304761Y-148534404D01*
X281257142Y-148629642D01*
X281209523Y-148677261D01*
X281114285Y-148724880D01*
X280876190Y-148724880D01*
X280780952Y-148677261D01*
X280733333Y-148629642D01*
X281923809Y-147724880D02*
X282019047Y-147724880D01*
X282114285Y-147772500D01*
X282161904Y-147820119D01*
X282209523Y-147915357D01*
X282257142Y-148105833D01*
X282257142Y-148343928D01*
X282209523Y-148534404D01*
X282161904Y-148629642D01*
X282114285Y-148677261D01*
X282019047Y-148724880D01*
X281923809Y-148724880D01*
X281828571Y-148677261D01*
X281780952Y-148629642D01*
X281733333Y-148534404D01*
X281685714Y-148343928D01*
X281685714Y-148105833D01*
X281733333Y-147915357D01*
X281780952Y-147820119D01*
X281828571Y-147772500D01*
X281923809Y-147724880D01*
%TO.C,SW101*%
X253213065Y-144867261D02*
X253349970Y-144914880D01*
X253588065Y-144914880D01*
X253689255Y-144867261D01*
X253742827Y-144819642D01*
X253802351Y-144724404D01*
X253814255Y-144629166D01*
X253778541Y-144533928D01*
X253736875Y-144486309D01*
X253647589Y-144438690D01*
X253463065Y-144391071D01*
X253373779Y-144343452D01*
X253332113Y-144295833D01*
X253296398Y-144200595D01*
X253308303Y-144105357D01*
X253367827Y-144010119D01*
X253421398Y-143962500D01*
X253522589Y-143914880D01*
X253760684Y-143914880D01*
X253897589Y-143962500D01*
X254236875Y-143914880D02*
X254349970Y-144914880D01*
X254629732Y-144200595D01*
X254730922Y-144914880D01*
X255094017Y-143914880D01*
X255873779Y-144914880D02*
X255302351Y-144914880D01*
X255588065Y-144914880D02*
X255713065Y-143914880D01*
X255599970Y-144057738D01*
X255492827Y-144152976D01*
X255391636Y-144200595D01*
X256617827Y-143914880D02*
X256713065Y-143914880D01*
X256802351Y-143962500D01*
X256844017Y-144010119D01*
X256879732Y-144105357D01*
X256903541Y-144295833D01*
X256873779Y-144533928D01*
X256802351Y-144724404D01*
X256742827Y-144819642D01*
X256689255Y-144867261D01*
X256588065Y-144914880D01*
X256492827Y-144914880D01*
X256403541Y-144867261D01*
X256361875Y-144819642D01*
X256326160Y-144724404D01*
X256302351Y-144533928D01*
X256332113Y-144295833D01*
X256403541Y-144105357D01*
X256463065Y-144010119D01*
X256516636Y-143962500D01*
X256617827Y-143914880D01*
X257778541Y-144914880D02*
X257207113Y-144914880D01*
X257492827Y-144914880D02*
X257617827Y-143914880D01*
X257504732Y-144057738D01*
X257397589Y-144152976D01*
X257296398Y-144200595D01*
X254730357Y-149852071D02*
X254397023Y-149852071D01*
X254397023Y-150375880D02*
X254397023Y-149375880D01*
X254873214Y-149375880D01*
X255254166Y-150375880D02*
X255254166Y-149375880D01*
X255825595Y-150375880D01*
X255825595Y-149375880D01*
X256825595Y-150375880D02*
X256254166Y-150375880D01*
X256539880Y-150375880D02*
X256539880Y-149375880D01*
X256444642Y-149518738D01*
X256349404Y-149613976D01*
X256254166Y-149661595D01*
%TO.C,SW103*%
X169869315Y-144867261D02*
X170006220Y-144914880D01*
X170244315Y-144914880D01*
X170345505Y-144867261D01*
X170399077Y-144819642D01*
X170458601Y-144724404D01*
X170470505Y-144629166D01*
X170434791Y-144533928D01*
X170393125Y-144486309D01*
X170303839Y-144438690D01*
X170119315Y-144391071D01*
X170030029Y-144343452D01*
X169988363Y-144295833D01*
X169952648Y-144200595D01*
X169964553Y-144105357D01*
X170024077Y-144010119D01*
X170077648Y-143962500D01*
X170178839Y-143914880D01*
X170416934Y-143914880D01*
X170553839Y-143962500D01*
X170893125Y-143914880D02*
X171006220Y-144914880D01*
X171285982Y-144200595D01*
X171387172Y-144914880D01*
X171750267Y-143914880D01*
X172530029Y-144914880D02*
X171958601Y-144914880D01*
X172244315Y-144914880D02*
X172369315Y-143914880D01*
X172256220Y-144057738D01*
X172149077Y-144152976D01*
X172047886Y-144200595D01*
X173274077Y-143914880D02*
X173369315Y-143914880D01*
X173458601Y-143962500D01*
X173500267Y-144010119D01*
X173535982Y-144105357D01*
X173559791Y-144295833D01*
X173530029Y-144533928D01*
X173458601Y-144724404D01*
X173399077Y-144819642D01*
X173345505Y-144867261D01*
X173244315Y-144914880D01*
X173149077Y-144914880D01*
X173059791Y-144867261D01*
X173018125Y-144819642D01*
X172982410Y-144724404D01*
X172958601Y-144533928D01*
X172988363Y-144295833D01*
X173059791Y-144105357D01*
X173119315Y-144010119D01*
X173172886Y-143962500D01*
X173274077Y-143914880D01*
X173940744Y-143914880D02*
X174559791Y-143914880D01*
X174178839Y-144295833D01*
X174321696Y-144295833D01*
X174410982Y-144343452D01*
X174452648Y-144391071D01*
X174488363Y-144486309D01*
X174458601Y-144724404D01*
X174399077Y-144819642D01*
X174345505Y-144867261D01*
X174244315Y-144914880D01*
X173958601Y-144914880D01*
X173869315Y-144867261D01*
X173827648Y-144819642D01*
X168410416Y-150392261D02*
X168553273Y-150439880D01*
X168791369Y-150439880D01*
X168886607Y-150392261D01*
X168934226Y-150344642D01*
X168981845Y-150249404D01*
X168981845Y-150154166D01*
X168934226Y-150058928D01*
X168886607Y-150011309D01*
X168791369Y-149963690D01*
X168600892Y-149916071D01*
X168505654Y-149868452D01*
X168458035Y-149820833D01*
X168410416Y-149725595D01*
X168410416Y-149630357D01*
X168458035Y-149535119D01*
X168505654Y-149487500D01*
X168600892Y-149439880D01*
X168838988Y-149439880D01*
X168981845Y-149487500D01*
X169410416Y-150439880D02*
X169410416Y-149439880D01*
X169791369Y-149439880D01*
X169886607Y-149487500D01*
X169934226Y-149535119D01*
X169981845Y-149630357D01*
X169981845Y-149773214D01*
X169934226Y-149868452D01*
X169886607Y-149916071D01*
X169791369Y-149963690D01*
X169410416Y-149963690D01*
X170362797Y-150154166D02*
X170838988Y-150154166D01*
X170267559Y-150439880D02*
X170600892Y-149439880D01*
X170934226Y-150439880D01*
X171838988Y-150344642D02*
X171791369Y-150392261D01*
X171648511Y-150439880D01*
X171553273Y-150439880D01*
X171410416Y-150392261D01*
X171315178Y-150297023D01*
X171267559Y-150201785D01*
X171219940Y-150011309D01*
X171219940Y-149868452D01*
X171267559Y-149677976D01*
X171315178Y-149582738D01*
X171410416Y-149487500D01*
X171553273Y-149439880D01*
X171648511Y-149439880D01*
X171791369Y-149487500D01*
X171838988Y-149535119D01*
X172267559Y-149916071D02*
X172600892Y-149916071D01*
X172743750Y-150439880D02*
X172267559Y-150439880D01*
X172267559Y-149439880D01*
X172743750Y-149439880D01*
X173124702Y-149535119D02*
X173172321Y-149487500D01*
X173267559Y-149439880D01*
X173505654Y-149439880D01*
X173600892Y-149487500D01*
X173648511Y-149535119D01*
X173696130Y-149630357D01*
X173696130Y-149725595D01*
X173648511Y-149868452D01*
X173077083Y-150439880D01*
X173696130Y-150439880D01*
X174124702Y-150344642D02*
X174172321Y-150392261D01*
X174124702Y-150439880D01*
X174077083Y-150392261D01*
X174124702Y-150344642D01*
X174124702Y-150439880D01*
X174553273Y-149535119D02*
X174600892Y-149487500D01*
X174696130Y-149439880D01*
X174934226Y-149439880D01*
X175029464Y-149487500D01*
X175077083Y-149535119D01*
X175124702Y-149630357D01*
X175124702Y-149725595D01*
X175077083Y-149868452D01*
X174505654Y-150439880D01*
X175124702Y-150439880D01*
X176029464Y-149439880D02*
X175553273Y-149439880D01*
X175505654Y-149916071D01*
X175553273Y-149868452D01*
X175648511Y-149820833D01*
X175886607Y-149820833D01*
X175981845Y-149868452D01*
X176029464Y-149916071D01*
X176077083Y-150011309D01*
X176077083Y-150249404D01*
X176029464Y-150344642D01*
X175981845Y-150392261D01*
X175886607Y-150439880D01*
X175648511Y-150439880D01*
X175553273Y-150392261D01*
X175505654Y-150344642D01*
%TD*%
M02*
