M48
; DRILL file {KiCad (6.0.7)} date Sun 07 Aug 2022 05:46:13 PM CEST
; FORMAT={-:-/ absolute / inch / decimal}
; #@! TF.CreationDate,2022-08-07T17:46:13+02:00
; #@! TF.GenerationSoftware,Kicad,Pcbnew,(6.0.7)
; #@! TF.FileFunction,NonPlated,1,2,NPTH
FMAT,2
INCH
; #@! TA.AperFunction,NonPlated,NPTH,ComponentDrill
T1C0.0670
; #@! TA.AperFunction,NonPlated,NPTH,ComponentDrill
T2C0.0689
; #@! TA.AperFunction,NonPlated,NPTH,ComponentDrill
T3C0.1200
; #@! TA.AperFunction,NonPlated,NPTH,ComponentDrill
T4C0.1570
%
G90
G05
T1
X2.3625Y-2.5625
X2.3625Y-4.8125
X2.55Y-3.3125
X2.55Y-5.5625
X2.7375Y-2.5625
X2.7625Y-2.5625
X2.7625Y-4.8125
X2.8312Y-4.0625
X2.95Y-3.3125
X2.95Y-5.5625
X3.0187Y-4.8125
X3.1125Y-2.5625
X3.1375Y-2.5625
X3.2312Y-4.0625
X3.3937Y-4.8125
X3.4187Y-4.8125
X3.4875Y-3.3125
X3.4875Y-5.5625
X3.5125Y-2.5625
X3.7937Y-4.8125
X3.8625Y-2.5625
X3.8875Y-3.3125
X3.8875Y-5.5625
X4.05Y-4.0625
X4.2375Y-3.3125
X4.2625Y-2.5625
X4.425Y-4.8125
X4.425Y-5.5625
X4.45Y-4.0625
X4.6125Y-2.5625
X4.6375Y-3.3125
X4.8Y-4.0625
X4.825Y-4.8125
X4.825Y-5.5625
X4.9875Y-3.3125
X5.0125Y-2.5625
X5.175Y-4.8125
X5.2Y-4.0625
X5.3625Y-2.5625
X5.3625Y-5.5625
X5.3875Y-3.3125
X5.55Y-4.0625
X5.575Y-4.8125
X5.7375Y-3.3125
X5.7625Y-2.5625
X5.7625Y-5.5625
X5.925Y-4.8125
X5.95Y-4.0625
X6.1125Y-2.5625
X6.1375Y-3.3125
X6.3Y-4.0625
X6.325Y-4.8125
X6.4875Y-3.3125
X6.5125Y-2.5625
X6.5812Y-5.5625
X6.675Y-4.8125
X6.7Y-4.0625
X6.8625Y-2.5625
X6.8875Y-3.3125
X6.9813Y-5.5625
X7.05Y-4.0625
X7.075Y-4.8125
X7.2375Y-3.3125
X7.2625Y-2.5625
X7.425Y-4.8125
X7.45Y-4.0625
X7.6125Y-2.5625
X7.6375Y-3.3125
X7.8Y-4.0625
X7.825Y-4.8125
X7.9875Y-3.3125
X8.0125Y-2.5625
X8.175Y-4.8125
X8.2Y-4.0625
X8.3625Y-2.5625
X8.3875Y-3.3125
X8.55Y-4.0625
X8.575Y-4.8125
X8.7375Y-3.3125
X8.7625Y-2.5625
X8.925Y-4.8125
X8.95Y-4.0625
X9.1125Y-2.5625
X9.1375Y-3.3125
X9.3Y-4.0625
X9.325Y-4.8125
X9.4875Y-3.3125
X9.5125Y-2.5625
X9.675Y-4.8125
X9.7Y-4.0625
X9.8625Y-2.5625
X9.8625Y-5.5625
X9.8875Y-3.3125
X10.05Y-4.0625
X10.075Y-4.8125
X10.2375Y-3.3125
X10.2625Y-2.5625
X10.2625Y-5.5625
X10.425Y-4.8125
X10.45Y-4.0625
X10.6125Y-2.5625
X10.6375Y-3.3125
X10.8Y-4.0625
X10.8Y-5.5625
X10.825Y-4.8125
X10.9875Y-3.3125
X11.0125Y-2.5625
X11.175Y-4.8125
X11.2Y-4.0625
X11.2Y-5.5625
X11.3625Y-2.5625
X11.3875Y-3.3125
X11.55Y-4.0625
X11.575Y-4.8125
X11.7375Y-3.3125
X11.7375Y-5.5625
X11.7625Y-2.5625
X11.925Y-4.8125
X11.95Y-4.0625
X12.1125Y-2.5625
X12.1375Y-3.3125
X12.1375Y-5.5625
X12.325Y-4.8125
X12.3937Y-4.8125
X12.5125Y-2.5625
X12.5812Y-4.0625
X12.675Y-3.3125
X12.675Y-5.5625
X12.7687Y-4.0625
X12.7937Y-4.8125
X12.8625Y-2.5625
X12.9812Y-4.0625
X13.075Y-3.3125
X13.075Y-5.5625
X13.1687Y-4.0625
X13.2625Y-2.5625
T2
X7.6125Y-5.5625
X8.0125Y-5.5625
X8.4562Y-5.5625
X8.8562Y-5.5625
T3
X2.4675Y-2.2875
X2.5612Y-4.3375
X2.7487Y-4.5375
X3.4075Y-2.2875
X3.5012Y-4.3375
X3.6887Y-4.5375
X5.1887Y-5.8375
X5.5625Y-5.8375
X6.3113Y-5.8375
X7.2512Y-5.8375
X8.1875Y-5.8375
X9.125Y-5.8375
X10.0625Y-5.8375
X10.4387Y-5.8375
X12.1237Y-4.5375
X13.0637Y-4.5375
T4
X2.4675Y-2.8875
X2.5612Y-3.7375
X2.5625Y-2.5625
X2.5625Y-4.8125
X2.7487Y-5.1375
X2.75Y-3.3125
X2.75Y-5.5625
X2.9375Y-2.5625
X3.0312Y-4.0625
X3.2188Y-4.8125
X3.3125Y-2.5625
X3.4075Y-2.8875
X3.5012Y-3.7375
X3.5938Y-4.8125
X3.6875Y-3.3125
X3.6875Y-5.5625
X3.6887Y-5.1375
X4.0625Y-2.5625
X4.25Y-4.0625
X4.4375Y-3.3125
X4.625Y-4.8125
X4.625Y-5.5625
X4.8125Y-2.5625
X5.0Y-4.0625
X5.1875Y-3.3125
X5.1887Y-5.2375
X5.375Y-4.8125
X5.5625Y-2.5625
X5.5625Y-5.2375
X5.5625Y-5.5625
X5.75Y-4.0625
X5.9375Y-3.3125
X6.125Y-4.8125
X6.3113Y-5.2375
X6.3125Y-2.5625
X6.5Y-4.0625
X6.6875Y-3.3125
X6.7812Y-5.5625
X6.875Y-4.8125
X7.0625Y-2.5625
X7.25Y-4.0625
X7.2512Y-5.2375
X7.4375Y-3.3125
X7.625Y-4.8125
X7.8125Y-2.5625
X7.8125Y-5.5625
X8.0Y-4.0625
X8.1875Y-3.3125
X8.1875Y-5.2375
X8.375Y-4.8125
X8.5625Y-2.5625
X8.6562Y-5.5625
X8.75Y-4.0625
X8.9375Y-3.3125
X9.125Y-4.8125
X9.125Y-5.2375
X9.3125Y-2.5625
X9.5Y-4.0625
X9.6875Y-3.3125
X9.875Y-4.8125
X10.0625Y-2.5625
X10.0625Y-5.2375
X10.0625Y-5.5625
X10.25Y-4.0625
X10.4375Y-3.3125
X10.4387Y-5.2375
X10.625Y-4.8125
X10.8125Y-2.5625
X11.0Y-4.0625
X11.0Y-5.5625
X11.1875Y-3.3125
X11.375Y-4.8125
X11.5625Y-2.5625
X11.75Y-4.0625
X11.9375Y-3.3125
X11.9375Y-5.5625
X12.1237Y-5.1375
X12.125Y-4.8125
X12.3125Y-2.5625
X12.5938Y-4.8125
X12.7812Y-4.0625
X12.875Y-3.3125
X12.875Y-5.5625
X12.9688Y-4.0625
X13.0625Y-2.5625
X13.0637Y-5.1375
T0
M30
