M48
; DRILL file {KiCad (6.0.7)} date Fri 19 Aug 2022 07:51:27 AM CEST
; FORMAT={-:-/ absolute / inch / decimal}
; #@! TF.CreationDate,2022-08-19T07:51:27+02:00
; #@! TF.GenerationSoftware,Kicad,Pcbnew,(6.0.7)
; #@! TF.FileFunction,Plated,1,2,PTH
FMAT,2
INCH
; #@! TA.AperFunction,Plated,PTH,ViaDrill
T1C0.0120
; #@! TA.AperFunction,Plated,PTH,ComponentDrill
T2C0.0300
; #@! TA.AperFunction,Plated,PTH,ComponentDrill
T3C0.0579
; #@! TA.AperFunction,Plated,PTH,ComponentDrill
T4C0.0600
%
G90
G05
T1
X3.4Y-3.8625
X12.065Y-3.84
X12.065Y-3.91
X12.1375Y-3.5325
X12.1375Y-3.8275
X12.1538Y-4.19
X12.2875Y-4.3175
X12.3375Y-4.4125
X12.3575Y-4.3175
X12.365Y-4.19
X12.4112Y-3.0288
X12.4375Y-2.9075
X12.4375Y-3.8475
X12.4688Y-5.1338
X12.48Y-3.895
X12.52Y-3.41
X12.5225Y-3.8725
X12.535Y-3.6125
X12.5875Y-3.8275
X12.635Y-3.455
X12.7025Y-3.6025
X12.7833Y-3.4317
X12.805Y-3.58
X12.83Y-3.56
X12.8525Y-3.5425
X13.0175Y-4.3125
X13.1975Y-4.3025
T2
X12.5875Y-4.3275
X12.5875Y-4.4275
X12.6875Y-4.3275
X12.6875Y-4.4275
X12.7875Y-4.3275
X12.7875Y-4.4275
T3
X7.7125Y-5.3625
X7.9625Y-5.4625
X8.5563Y-5.3625
X8.8063Y-5.4625
T4
X2.4625Y-2.3625
X2.4625Y-4.6125
X2.65Y-3.1125
X2.65Y-5.3625
X2.7125Y-2.4625
X2.7125Y-4.7125
X2.8375Y-2.3625
X2.9Y-3.2125
X2.9Y-5.4625
X2.9312Y-3.8625
X3.0875Y-2.4625
X3.1187Y-4.6125
X3.1812Y-3.9625
X3.2125Y-2.3625
X3.3687Y-4.7125
X3.4625Y-2.4625
X3.4937Y-4.6125
X3.5875Y-3.1125
X3.5875Y-5.3625
X3.7437Y-4.7125
X3.8375Y-3.2125
X3.8375Y-5.4625
X3.9625Y-2.3625
X4.15Y-3.8625
X4.2125Y-2.4625
X4.3375Y-3.1125
X4.4Y-3.9625
X4.525Y-4.6125
X4.525Y-5.3625
X4.5875Y-3.2125
X4.7125Y-2.3625
X4.775Y-4.7125
X4.775Y-5.4625
X4.9Y-3.8625
X4.9625Y-2.4625
X5.0875Y-3.1125
X5.15Y-3.9625
X5.275Y-4.6125
X5.3375Y-3.2125
X5.4625Y-2.3625
X5.4625Y-5.3625
X5.525Y-4.7125
X5.65Y-3.8625
X5.7125Y-2.4625
X5.7125Y-5.4625
X5.8375Y-3.1125
X5.9Y-3.9625
X6.025Y-4.6125
X6.0875Y-3.2125
X6.2125Y-2.3625
X6.275Y-4.7125
X6.4Y-3.8625
X6.4625Y-2.4625
X6.5875Y-3.1125
X6.65Y-3.9625
X6.6812Y-5.3625
X6.775Y-4.6125
X6.8375Y-3.2125
X6.9312Y-5.4625
X6.9625Y-2.3625
X7.025Y-4.7125
X7.15Y-3.8625
X7.2125Y-2.4625
X7.3375Y-3.1125
X7.4Y-3.9625
X7.525Y-4.6125
X7.5875Y-3.2125
X7.7125Y-2.3625
X7.775Y-4.7125
X7.9Y-3.8625
X7.9625Y-2.4625
X8.0875Y-3.1125
X8.15Y-3.9625
X8.275Y-4.6125
X8.3375Y-3.2125
X8.4625Y-2.3625
X8.525Y-4.7125
X8.65Y-3.8625
X8.7125Y-2.4625
X8.8375Y-3.1125
X8.9Y-3.9625
X9.025Y-4.6125
X9.0875Y-3.2125
X9.2125Y-2.3625
X9.275Y-4.7125
X9.4Y-3.8625
X9.4625Y-2.4625
X9.5875Y-3.1125
X9.65Y-3.9625
X9.775Y-4.6125
X9.8375Y-3.2125
X9.9625Y-2.3625
X9.9625Y-5.3625
X10.025Y-4.7125
X10.15Y-3.8625
X10.2125Y-2.4625
X10.2125Y-5.4625
X10.3375Y-3.1125
X10.4Y-3.9625
X10.525Y-4.6125
X10.5875Y-3.2125
X10.7125Y-2.3625
X10.775Y-4.7125
X10.9Y-3.8625
X10.9Y-5.3625
X10.9625Y-2.4625
X11.0875Y-3.1125
X11.15Y-3.9625
X11.15Y-5.4625
X11.275Y-4.6125
X11.3375Y-3.2125
X11.4625Y-2.3625
X11.525Y-4.7125
X11.65Y-3.8625
X11.7125Y-2.4625
X11.8375Y-3.1125
X11.8375Y-5.3625
X11.9Y-3.9625
X12.025Y-4.6125
X12.0875Y-3.2125
X12.0875Y-5.4625
X12.2125Y-2.3625
X12.275Y-4.7125
X12.4625Y-2.4625
X12.4938Y-4.6125
X12.6813Y-3.8625
X12.7438Y-4.7125
X12.775Y-3.1125
X12.775Y-5.3625
X12.8688Y-3.8625
X12.9313Y-3.9625
X12.9625Y-2.3625
X13.025Y-3.2125
X13.025Y-5.4625
X13.1188Y-3.9625
X13.2125Y-2.4625
T0
M30
