%TF.GenerationSoftware,KiCad,Pcbnew,(6.0.7)*%
%TF.CreationDate,2022-08-19T07:51:27+02:00*%
%TF.ProjectId,nue-pcb,6e75652d-7063-4622-9e6b-696361645f70,0.1*%
%TF.SameCoordinates,Original*%
%TF.FileFunction,Paste,Top*%
%TF.FilePolarity,Positive*%
%FSLAX46Y46*%
G04 Gerber Fmt 4.6, Leading zero omitted, Abs format (unit mm)*
G04 Created by KiCad (PCBNEW (6.0.7)) date 2022-08-19 07:51:27*
%MOMM*%
%LPD*%
G01*
G04 APERTURE LIST*
G04 Aperture macros list*
%AMRoundRect*
0 Rectangle with rounded corners*
0 $1 Rounding radius*
0 $2 $3 $4 $5 $6 $7 $8 $9 X,Y pos of 4 corners*
0 Add a 4 corners polygon primitive as box body*
4,1,4,$2,$3,$4,$5,$6,$7,$8,$9,$2,$3,0*
0 Add four circle primitives for the rounded corners*
1,1,$1+$1,$2,$3*
1,1,$1+$1,$4,$5*
1,1,$1+$1,$6,$7*
1,1,$1+$1,$8,$9*
0 Add four rect primitives between the rounded corners*
20,1,$1+$1,$2,$3,$4,$5,0*
20,1,$1+$1,$4,$5,$6,$7,0*
20,1,$1+$1,$6,$7,$8,$9,0*
20,1,$1+$1,$8,$9,$2,$3,0*%
G04 Aperture macros list end*
%ADD10RoundRect,0.250000X-0.650000X0.350000X-0.650000X-0.350000X0.650000X-0.350000X0.650000X0.350000X0*%
%ADD11RoundRect,0.150000X-0.625000X0.150000X-0.625000X-0.150000X0.625000X-0.150000X0.625000X0.150000X0*%
%ADD12R,1.200000X0.900000*%
%ADD13RoundRect,0.225000X-0.250000X0.225000X-0.250000X-0.225000X0.250000X-0.225000X0.250000X0.225000X0*%
%ADD14RoundRect,0.225000X0.250000X-0.225000X0.250000X0.225000X-0.250000X0.225000X-0.250000X-0.225000X0*%
%ADD15RoundRect,0.225000X0.225000X0.250000X-0.225000X0.250000X-0.225000X-0.250000X0.225000X-0.250000X0*%
%ADD16RoundRect,0.200000X0.275000X-0.200000X0.275000X0.200000X-0.275000X0.200000X-0.275000X-0.200000X0*%
%ADD17RoundRect,0.200000X-0.200000X-0.275000X0.200000X-0.275000X0.200000X0.275000X-0.200000X0.275000X0*%
%ADD18R,1.500000X0.550000*%
%ADD19RoundRect,0.225000X-0.225000X-0.250000X0.225000X-0.250000X0.225000X0.250000X-0.225000X0.250000X0*%
%ADD20RoundRect,0.250000X0.275000X0.275000X-0.275000X0.275000X-0.275000X-0.275000X0.275000X-0.275000X0*%
%ADD21RoundRect,0.062500X0.475000X0.062500X-0.475000X0.062500X-0.475000X-0.062500X0.475000X-0.062500X0*%
%ADD22RoundRect,0.062500X0.062500X0.475000X-0.062500X0.475000X-0.062500X-0.475000X0.062500X-0.475000X0*%
%ADD23R,1.150000X1.000000*%
G04 APERTURE END LIST*
D10*
%TO.C,J1*%
X330378000Y-70218000D03*
X330378000Y-75818000D03*
D11*
X334253000Y-74518000D03*
X334253000Y-73518000D03*
X334253000Y-72518000D03*
X334253000Y-71518000D03*
%TD*%
D12*
%TO.C,D1*%
X334899000Y-68325000D03*
X334899000Y-65025000D03*
%TD*%
%TO.C,D2*%
X319881250Y-68325000D03*
X319881250Y-65025000D03*
%TD*%
%TO.C,D3*%
X300831250Y-68325000D03*
X300831250Y-65025000D03*
%TD*%
%TO.C,D4*%
X281781250Y-68325000D03*
X281781250Y-65025000D03*
%TD*%
%TO.C,D5*%
X262731250Y-68325000D03*
X262731250Y-65025000D03*
%TD*%
%TO.C,D6*%
X243681250Y-68325000D03*
X243681250Y-65025000D03*
%TD*%
%TO.C,D7*%
X224631250Y-68325000D03*
X224631250Y-65025000D03*
%TD*%
%TO.C,D8*%
X205581250Y-68325000D03*
X205581250Y-65025000D03*
%TD*%
%TO.C,D9*%
X186531250Y-68325000D03*
X186531250Y-65025000D03*
%TD*%
%TO.C,D10*%
X167481250Y-68325000D03*
X167481250Y-65025000D03*
%TD*%
%TO.C,D11*%
X148431250Y-68325000D03*
X148431250Y-65025000D03*
%TD*%
%TO.C,D12*%
X129381250Y-68325000D03*
X129381250Y-65025000D03*
%TD*%
%TO.C,D13*%
X110331250Y-68325000D03*
X110331250Y-65025000D03*
%TD*%
%TO.C,D14*%
X92868750Y-68325000D03*
X92868750Y-65025000D03*
%TD*%
%TO.C,D15*%
X320675000Y-76931250D03*
X320675000Y-80231250D03*
%TD*%
%TO.C,D16*%
X304101500Y-76931250D03*
X304101500Y-80231250D03*
%TD*%
%TO.C,D17*%
X292893750Y-76931250D03*
X292893750Y-80231250D03*
%TD*%
%TO.C,D18*%
X273843750Y-76931250D03*
X273843750Y-80231250D03*
%TD*%
%TO.C,D19*%
X254793750Y-76931250D03*
X254793750Y-80231250D03*
%TD*%
%TO.C,D20*%
X235743750Y-76931250D03*
X235743750Y-80231250D03*
%TD*%
%TO.C,D21*%
X216693750Y-76931250D03*
X216693750Y-80231250D03*
%TD*%
%TO.C,D22*%
X197643750Y-76931250D03*
X197643750Y-80231250D03*
%TD*%
%TO.C,D23*%
X178593750Y-76931250D03*
X178593750Y-80231250D03*
%TD*%
%TO.C,D24*%
X159543750Y-76931250D03*
X159543750Y-80231250D03*
%TD*%
%TO.C,D25*%
X140493750Y-76931250D03*
X140493750Y-80231250D03*
%TD*%
%TO.C,D26*%
X121443750Y-76931250D03*
X121443750Y-80231250D03*
%TD*%
%TO.C,D27*%
X102393750Y-76931250D03*
X102393750Y-80231250D03*
%TD*%
%TO.C,D29*%
X336550000Y-106425000D03*
X336550000Y-103125000D03*
%TD*%
%TO.C,D30*%
X305593750Y-106425000D03*
X305593750Y-103125000D03*
%TD*%
%TO.C,D31*%
X286543750Y-106425000D03*
X286543750Y-103125000D03*
%TD*%
%TO.C,D32*%
X267493750Y-106425000D03*
X267493750Y-103125000D03*
%TD*%
%TO.C,D33*%
X248443750Y-106425000D03*
X248443750Y-103125000D03*
%TD*%
%TO.C,D34*%
X229393750Y-106425000D03*
X229393750Y-103125000D03*
%TD*%
%TO.C,D35*%
X210343750Y-106425000D03*
X210343750Y-103125000D03*
%TD*%
%TO.C,D36*%
X191293750Y-106425000D03*
X191293750Y-103125000D03*
%TD*%
%TO.C,D37*%
X172243750Y-106425000D03*
X172243750Y-103125000D03*
%TD*%
%TO.C,D38*%
X153193750Y-106425000D03*
X153193750Y-103125000D03*
%TD*%
%TO.C,D39*%
X134143750Y-106425000D03*
X134143750Y-103125000D03*
%TD*%
%TO.C,D42*%
X96043750Y-106425000D03*
X96043750Y-103125000D03*
%TD*%
%TO.C,D43*%
X336867500Y-125538500D03*
X336867500Y-122238500D03*
%TD*%
%TO.C,D44*%
X300831250Y-125475000D03*
X300831250Y-122175000D03*
%TD*%
%TO.C,D45*%
X296068750Y-125475000D03*
X296068750Y-122175000D03*
%TD*%
%TO.C,D46*%
X277018750Y-125475000D03*
X277018750Y-122175000D03*
%TD*%
%TO.C,D47*%
X257968750Y-125475000D03*
X257968750Y-122175000D03*
%TD*%
%TO.C,D48*%
X238918750Y-125475000D03*
X238918750Y-122175000D03*
%TD*%
%TO.C,D49*%
X219868750Y-125475000D03*
X219868750Y-122175000D03*
%TD*%
%TO.C,D50*%
X200818750Y-125475000D03*
X200818750Y-122175000D03*
%TD*%
%TO.C,D51*%
X181768750Y-125475000D03*
X181768750Y-122175000D03*
%TD*%
%TO.C,D52*%
X162718750Y-125475000D03*
X162718750Y-122175000D03*
%TD*%
%TO.C,D53*%
X143668750Y-125475000D03*
X143668750Y-122175000D03*
%TD*%
%TO.C,D54*%
X124618750Y-125475000D03*
X124618750Y-122175000D03*
%TD*%
%TO.C,D55*%
X99218750Y-125475000D03*
X99218750Y-122175000D03*
%TD*%
%TO.C,D56*%
X78613000Y-125475000D03*
X78613000Y-122175000D03*
%TD*%
%TO.C,D57*%
X336550000Y-133287500D03*
X336550000Y-136587500D03*
%TD*%
%TO.C,D58*%
X316706250Y-133287500D03*
X316706250Y-136587500D03*
%TD*%
%TO.C,D59*%
X293687500Y-133287500D03*
X293687500Y-136587500D03*
%TD*%
%TO.C,D60*%
X200550000Y-130350000D03*
X200550000Y-133650000D03*
%TD*%
%TO.C,D61*%
X153620000Y-130430000D03*
X153620000Y-133730000D03*
%TD*%
%TO.C,D63*%
X103981250Y-133287500D03*
X103981250Y-136587500D03*
%TD*%
%TO.C,D64*%
X80962500Y-133287500D03*
X80962500Y-136587500D03*
%TD*%
%TO.C,D28*%
X71818500Y-76643500D03*
X71818500Y-73343500D03*
%TD*%
%TO.C,D62*%
X127000000Y-133287500D03*
X127000000Y-136587500D03*
%TD*%
D13*
%TO.C,C2*%
X318579500Y-94919500D03*
X318579500Y-96469500D03*
%TD*%
D14*
%TO.C,C4*%
X318071500Y-85674500D03*
X318071500Y-84124500D03*
%TD*%
D15*
%TO.C,C5*%
X307162500Y-96329500D03*
X305612500Y-96329500D03*
%TD*%
D16*
%TO.C,R1*%
X333692500Y-111251500D03*
X333692500Y-109601500D03*
%TD*%
D17*
%TO.C,R2*%
X305562500Y-94805500D03*
X307212500Y-94805500D03*
%TD*%
%TO.C,R3*%
X335661500Y-72326500D03*
X337311500Y-72326500D03*
%TD*%
%TO.C,R4*%
X335661500Y-73850500D03*
X337311500Y-73850500D03*
%TD*%
D18*
%TO.C,SW_RST1*%
X310356250Y-100768750D03*
X310356250Y-104018750D03*
%TD*%
D19*
%TO.C,C1*%
X319455500Y-92011500D03*
X321005500Y-92011500D03*
%TD*%
D15*
%TO.C,C3*%
X306895500Y-89979500D03*
X305345500Y-89979500D03*
%TD*%
D20*
%TO.C,U1*%
X315235500Y-90351000D03*
X311335500Y-91651000D03*
X313935500Y-92951000D03*
X313935500Y-94251000D03*
X315235500Y-91651000D03*
X311335500Y-90351000D03*
X311335500Y-94251000D03*
X312635500Y-94251000D03*
X315235500Y-94251000D03*
X315235500Y-92951000D03*
X311335500Y-92951000D03*
X312635500Y-90351000D03*
X312635500Y-92951000D03*
X313935500Y-90351000D03*
X312635500Y-91651000D03*
X313935500Y-91651000D03*
D21*
X316623000Y-94801000D03*
X316623000Y-94301000D03*
X316623000Y-93801000D03*
X316623000Y-93301000D03*
X316623000Y-92801000D03*
X316623000Y-92301000D03*
X316623000Y-91801000D03*
X316623000Y-91301000D03*
X316623000Y-90801000D03*
X316623000Y-90301000D03*
X316623000Y-89801000D03*
D22*
X315785500Y-88963500D03*
X315285500Y-88963500D03*
X314785500Y-88963500D03*
X314285500Y-88963500D03*
X313785500Y-88963500D03*
X313285500Y-88963500D03*
X312785500Y-88963500D03*
X312285500Y-88963500D03*
X311785500Y-88963500D03*
X311285500Y-88963500D03*
X310785500Y-88963500D03*
D21*
X309948000Y-89801000D03*
X309948000Y-90301000D03*
X309948000Y-90801000D03*
X309948000Y-91301000D03*
X309948000Y-91801000D03*
X309948000Y-92301000D03*
X309948000Y-92801000D03*
X309948000Y-93301000D03*
X309948000Y-93801000D03*
X309948000Y-94301000D03*
X309948000Y-94801000D03*
D22*
X310785500Y-95638500D03*
X311285500Y-95638500D03*
X311785500Y-95638500D03*
X312285500Y-95638500D03*
X312785500Y-95638500D03*
X313285500Y-95638500D03*
X313785500Y-95638500D03*
X314285500Y-95638500D03*
X314785500Y-95638500D03*
X315285500Y-95638500D03*
X315785500Y-95638500D03*
%TD*%
D15*
%TO.C,C7*%
X315036500Y-81216500D03*
X313486500Y-81216500D03*
%TD*%
D14*
%TO.C,C6*%
X311721500Y-84277500D03*
X311721500Y-82727500D03*
%TD*%
D23*
%TO.C,Y1*%
X313386500Y-84202500D03*
X315136500Y-84202500D03*
X315136500Y-82802500D03*
X313386500Y-82802500D03*
%TD*%
D12*
%TO.C,D41*%
X80137000Y-106425000D03*
X80137000Y-103125000D03*
%TD*%
%TO.C,D40*%
X115093750Y-106425000D03*
X115093750Y-103125000D03*
%TD*%
%TO.C,D101*%
X271480000Y-130370000D03*
X271480000Y-133670000D03*
%TD*%
%TO.C,D103*%
X176120000Y-130440000D03*
X176120000Y-133740000D03*
%TD*%
M02*
